<?xml version="1.0" encoding="utf-8"?>
<!-- Generator: Adobe Illustrator 26.2.1, SVG Export Plug-In . SVG Version: 6.00 Build 0)  -->
<svg version="1.1" id="Layer_1" xmlns="http://www.w3.org/2000/svg" xmlns:xlink="http://www.w3.org/1999/xlink" x="0px" y="0px"
	 viewBox="0 0 550.1 452.5" style="enable-background:new 0 0 550.1 452.5;" xml:space="preserve">
<style type="text/css">
	.st0{fill:#AD833D;}
	.st1{fill:#1E243A;}
</style>
<g>
	<path class="st0" d="M48.6,107.5H9.8c-4,0-7.3,3.3-7.3,7.3v328c0,4,3.3,7.3,7.3,7.3h38.8c4,0,7.3-3.3,7.3-7.3v-328
		C56,110.8,52.7,107.5,48.6,107.5z M17.4,441.2c-3,0-5.4-2.4-5.4-5.4c0-3,2.4-5.4,5.4-5.4c3,0,5.4,2.4,5.4,5.4
		C22.8,438.8,20.4,441.2,17.4,441.2z"/>
</g>
<g>
	<g>
		<polygon class="st0" points="254.9,188.8 295.7,188.8 275.3,161.5 		"/>
	</g>
	<g>
		<polygon class="st0" points="275.3,371.2 295.7,343.9 254.9,343.9 		"/>
	</g>
</g>
<g>
	<path class="st0" d="M430.8,107.1h-308c-6.5,0-11.6,5.3-11.6,11.8v20.3h331.2V119C442.4,112.5,437.2,107.1,430.8,107.1z
		 M132.8,129.7c-3.2,0-5.9-2.6-5.9-5.9c0-3.2,2.6-5.9,5.9-5.9s5.9,2.6,5.9,5.9C138.7,127.1,136.1,129.7,132.8,129.7z M160.5,129.7
		c-3.2,0-5.9-2.6-5.9-5.9c0-3.2,2.6-5.9,5.9-5.9c3.2,0,5.9,2.6,5.9,5.9C166.3,127.1,163.7,129.7,160.5,129.7z"/>
</g>
<g>
	<path class="st0" d="M535.9,2.3H335.4c-6.5,0-11.7,5.4-11.7,11.8v22h223.9v-22C547.6,7.6,542.4,2.3,535.9,2.3z M342.3,24.6
		c-3.3,0-5.9-2.6-5.9-5.9s2.6-5.9,5.9-5.9c3.3,0,5.9,2.6,5.9,5.9S345.5,24.6,342.3,24.6z M366,24.6c-3.3,0-5.9-2.6-5.9-5.9
		s2.6-5.9,5.9-5.9c3.3,0,5.9,2.6,5.9,5.9S369.3,24.6,366,24.6z"/>
</g>
<g>
	<path class="st1" d="M430.5,395.8H123c-7.9,0-14.4-6.5-14.4-14.4V119.2c0-7.9,6.5-14.4,14.4-14.4h307.5c7.9,0,14.4,6.5,14.4,14.4
		v262.2C444.9,389.4,438.4,395.8,430.5,395.8z M123,109.7c-5.3,0-9.6,4.3-9.6,9.6v262.2c0,5.3,4.3,9.6,9.6,9.6h307.5
		c5.3,0,9.6-4.3,9.6-9.6V119.2c0-5.3-4.3-9.6-9.6-9.6H123z"/>
</g>
<g>
	<g>
		<path class="st1" d="M410,323.9H140.6c-3.6,0-6.4-2.9-6.4-6.4V215.3c0-3.5,2.9-6.4,6.4-6.4H410c3.6,0,6.4,2.9,6.4,6.4v102.2
			C416.4,321,413.5,323.9,410,323.9z M140.6,213.7c-0.9,0-1.6,0.7-1.6,1.6v102.2c0,0.9,0.7,1.6,1.6,1.6H410c0.9,0,1.6-0.7,1.6-1.6
			V215.3c0-0.9-0.7-1.6-1.6-1.6H140.6z"/>
	</g>
</g>
<g>
	<path class="st1" d="M440.6,141.6H113.9c-1.3,0-2.4-1.1-2.4-2.4c0-1.3,1.1-2.4,2.4-2.4h326.7c1.3,0,2.4,1.1,2.4,2.4
		C443.1,140.6,442,141.6,440.6,141.6z"/>
</g>
<g>
	<path class="st1" d="M181.5,141c-1.3,0-2.4-1.1-2.4-2.4v-29.3c0-1.3,1.1-2.4,2.4-2.4s2.4,1.1,2.4,2.4v29.3
		C184,139.9,182.9,141,181.5,141z"/>
</g>
<g>
	<g>
		<path class="st1" d="M360.3,121.6H191.5c-1.3,0-2.4-1.1-2.4-2.4c0-1.3,1.1-2.4,2.4-2.4h168.7c1.3,0,2.4,1.1,2.4,2.4
			C362.7,120.6,361.6,121.6,360.3,121.6z"/>
	</g>
	<g>
		<path class="st1" d="M225,131.6h-33.5c-1.3,0-2.4-1.1-2.4-2.4c0-1.3,1.1-2.4,2.4-2.4H225c1.3,0,2.4,1.1,2.4,2.4
			C227.4,130.6,226.3,131.6,225,131.6z"/>
	</g>
</g>
<g>
	<path class="st1" d="M410.3,322.5c-0.3,0-0.6-0.1-0.9-0.2l-82.8-32.9c-1.2-0.5-1.8-1.9-1.4-3.1c0.5-1.2,1.9-1.8,3.1-1.4l82.8,32.9
		c1.2,0.5,1.8,1.9,1.4,3.1C412.2,321.9,411.3,322.5,410.3,322.5z"/>
</g>
<g>
	<path class="st1" d="M226.2,249.3c-0.3,0-0.6-0.1-0.9-0.2l-85.9-34.2c-1.2-0.5-1.8-1.9-1.4-3.1c0.5-1.2,1.9-1.8,3.1-1.4l85.9,34.2
		c1.2,0.5,1.8,1.9,1.4,3.1C228.1,248.7,227.2,249.3,226.2,249.3z"/>
</g>
<g>
	<path class="st1" d="M140.3,322.5c-1,0-1.9-0.6-2.2-1.5c-0.5-1.2,0.1-2.6,1.4-3.1l85.9-34.2c1.2-0.5,2.6,0.1,3.1,1.4
		c0.5,1.2-0.1,2.6-1.4,3.1l-85.9,34.2C140.9,322.4,140.6,322.5,140.3,322.5z"/>
</g>
<g>
	<path class="st1" d="M327.5,248c-1,0-1.9-0.6-2.2-1.5c-0.5-1.2,0.1-2.6,1.4-3.1l82.8-32.9c1.2-0.5,2.6,0.1,3.1,1.4
		c0.5,1.2-0.1,2.6-1.4,3.1l-82.8,32.9C328.1,248,327.8,248,327.5,248z"/>
</g>
<g>
	<g>
		<path class="st1" d="M132.8,132.2c-4.6,0-8.3-3.7-8.3-8.3c0-4.6,3.7-8.3,8.3-8.3s8.3,3.7,8.3,8.3
			C141.1,128.4,137.4,132.2,132.8,132.2z M132.8,120.4c-1.9,0-3.4,1.5-3.4,3.4s1.5,3.4,3.4,3.4s3.4-1.5,3.4-3.4
			S134.7,120.4,132.8,120.4z"/>
	</g>
	<g>
		<path class="st1" d="M160.5,132.2c-4.6,0-8.3-3.7-8.3-8.3c0-4.6,3.7-8.3,8.3-8.3s8.3,3.7,8.3,8.3
			C168.7,128.4,165,132.2,160.5,132.2z M160.5,120.4c-1.9,0-3.4,1.5-3.4,3.4s1.5,3.4,3.4,3.4c1.9,0,3.4-1.5,3.4-3.4
			S162.4,120.4,160.5,120.4z"/>
	</g>
</g>
<g>
	<g>
		<path class="st1" d="M534.5,297.5h-88.7c-1.3,0-2.4-1.1-2.4-2.4c0-1.3,1.1-2.4,2.4-2.4h88.7c6,0,10.8-4.9,10.8-10.8V15.6
			c0-5.9-4.8-10.8-10.8-10.8H336.9c-5.9,0-10.8,4.8-10.8,10.8v88.2c0,1.3-1.1,2.4-2.4,2.4s-2.4-1.1-2.4-2.4V15.6
			c0-8.6,7-15.6,15.6-15.6h197.6c8.6,0,15.6,7,15.6,15.6v266.3C550.1,290.5,543.1,297.5,534.5,297.5z"/>
	</g>
	<g>
		<path class="st1" d="M513.1,38.5H323.7c-1.3,0-2.4-1.1-2.4-2.4c0-1.3,1.1-2.4,2.4-2.4h189.4c1.3,0,2.4,1.1,2.4,2.4
			C515.5,37.4,514.4,38.5,513.1,38.5z"/>
	</g>
	<g>
		<path class="st1" d="M384.7,35.4c-1.3,0-2.4-1.1-2.4-2.4V4c0-1.3,1.1-2.4,2.4-2.4s2.4,1.1,2.4,2.4v29
			C387.2,34.3,386.1,35.4,384.7,35.4z"/>
	</g>
	<g>
		<g>
			<path class="st1" d="M342.3,27c-4.6,0-8.3-3.7-8.3-8.3c0-4.6,3.7-8.3,8.3-8.3c4.6,0,8.3,3.7,8.3,8.3
				C350.6,23.2,346.9,27,342.3,27z M342.3,15.2c-1.9,0-3.5,1.6-3.5,3.5c0,1.9,1.6,3.5,3.5,3.5c1.9,0,3.5-1.6,3.5-3.5
				C345.8,16.7,344.2,15.2,342.3,15.2z"/>
		</g>
		<g>
			<path class="st1" d="M366,27c-4.6,0-8.3-3.7-8.3-8.3c0-4.6,3.7-8.3,8.3-8.3c4.6,0,8.3,3.7,8.3,8.3C374.3,23.2,370.6,27,366,27z
				 M366,15.2c-1.9,0-3.5,1.6-3.5,3.5c0,1.9,1.6,3.5,3.5,3.5c1.9,0,3.5-1.6,3.5-3.5C369.5,16.7,367.9,15.2,366,15.2z"/>
		</g>
	</g>
	<g>
		<g>
			<path class="st1" d="M503.1,15.7H397.9c-1.3,0-2.4-1.1-2.4-2.4s1.1-2.4,2.4-2.4h105.2c1.3,0,2.4,1.1,2.4,2.4
				S504.4,15.7,503.1,15.7z"/>
		</g>
		<g>
			<path class="st1" d="M435.5,27.1h-37.6c-1.3,0-2.4-1.1-2.4-2.4c0-1.3,1.1-2.4,2.4-2.4h37.6c1.3,0,2.4,1.1,2.4,2.4
				C437.9,26,436.8,27.1,435.5,27.1z"/>
		</g>
	</g>
	<g>
		<path class="st1" d="M547.6,38.5h-11.7c-1.3,0-2.4-1.1-2.4-2.4c0-1.3,1.1-2.4,2.4-2.4h11.7c1.3,0,2.4,1.1,2.4,2.4
			C550,37.4,548.9,38.5,547.6,38.5z"/>
	</g>
	<g>
		<path class="st1" d="M534,123h-88.8c-1.3,0-2.4-1.1-2.4-2.4s1.1-2.4,2.4-2.4h86.4V59.1H339.8v45.2c0,1.3-1.1,2.4-2.4,2.4
			c-1.3,0-2.4-1.1-2.4-2.4V56.7c0-1.3,1.1-2.4,2.4-2.4H534c1.3,0,2.4,1.1,2.4,2.4v63.9C536.4,121.9,535.3,123,534,123z"/>
	</g>
	<g>
		<g>
			<path class="st1" d="M534.1,151.7h-73.8c-1.3,0-2.4-1.1-2.4-2.4c0-1.3,1.1-2.4,2.4-2.4h73.8c1.3,0,2.4,1.1,2.4,2.4
				C536.5,150.6,535.5,151.7,534.1,151.7z"/>
		</g>
		<g>
			<path class="st1" d="M534.1,174.1h-73.8c-1.3,0-2.4-1.1-2.4-2.4c0-1.3,1.1-2.4,2.4-2.4h73.8c1.3,0,2.4,1.1,2.4,2.4
				C536.5,173,535.5,174.1,534.1,174.1z"/>
		</g>
		<g>
			<path class="st1" d="M534.1,196.2h-73.8c-1.3,0-2.4-1.1-2.4-2.4c0-1.3,1.1-2.4,2.4-2.4h73.8c1.3,0,2.4,1.1,2.4,2.4
				C536.5,195.1,535.5,196.2,534.1,196.2z"/>
		</g>
		<g>
			<path class="st1" d="M534.1,218.9h-73.8c-1.3,0-2.4-1.1-2.4-2.4c0-1.3,1.1-2.4,2.4-2.4h73.8c1.3,0,2.4,1.1,2.4,2.4
				C536.5,217.8,535.5,218.9,534.1,218.9z"/>
		</g>
		<g>
			<path class="st1" d="M534.1,241h-73.8c-1.3,0-2.4-1.1-2.4-2.4c0-1.3,1.1-2.4,2.4-2.4h73.8c1.3,0,2.4,1.1,2.4,2.4
				C536.5,239.9,535.5,241,534.1,241z"/>
		</g>
	</g>
	<g>
		<path class="st1" d="M534.1,273.4h-89.4c-1.3,0-2.4-1.1-2.4-2.4s1.1-2.4,2.4-2.4h89.4c1.3,0,2.4,1.1,2.4,2.4
			S535.5,273.4,534.1,273.4z"/>
	</g>
</g>
<g>
	<g>
		<path class="st1" d="M48.7,452.5H9.7c-5.4,0-9.7-4.4-9.7-9.7V114.7c0-5.4,4.4-9.7,9.7-9.7h38.9c5.4,0,9.7,4.4,9.7,9.7v328.1
			C58.4,448.2,54,452.5,48.7,452.5z M9.7,109.8c-2.7,0-4.9,2.2-4.9,4.9v328.1c0,2.7,2.2,4.9,4.9,4.9h38.9c2.7,0,4.9-2.2,4.9-4.9
			V114.7c0-2.7-2.2-4.9-4.9-4.9H9.7z"/>
	</g>
	<g>
		<path class="st1" d="M54.9,130.6H28.7c-1.3,0-2.4-1.1-2.4-2.4c0-1.3,1.1-2.4,2.4-2.4h26.2c1.3,0,2.4,1.1,2.4,2.4
			C57.3,129.5,56.3,130.6,54.9,130.6z"/>
	</g>
	<g>
		<path class="st1" d="M54.9,150.3H42.9c-1.3,0-2.4-1.1-2.4-2.4c0-1.3,1.1-2.4,2.4-2.4h12.1c1.3,0,2.4,1.1,2.4,2.4
			C57.3,149.2,56.3,150.3,54.9,150.3z"/>
	</g>
	<g>
		<path class="st1" d="M54.9,170.6H28.7c-1.3,0-2.4-1.1-2.4-2.4c0-1.3,1.1-2.4,2.4-2.4h26.2c1.3,0,2.4,1.1,2.4,2.4
			C57.3,169.5,56.3,170.6,54.9,170.6z"/>
	</g>
	<g>
		<path class="st1" d="M54.9,191.3H42.9c-1.3,0-2.4-1.1-2.4-2.4c0-1.3,1.1-2.4,2.4-2.4h12.1c1.3,0,2.4,1.1,2.4,2.4
			C57.3,190.2,56.3,191.3,54.9,191.3z"/>
	</g>
	<g>
		<path class="st1" d="M54.9,211H28.7c-1.3,0-2.4-1.1-2.4-2.4c0-1.3,1.1-2.4,2.4-2.4h26.2c1.3,0,2.4,1.1,2.4,2.4
			C57.3,209.9,56.3,211,54.9,211z"/>
	</g>
	<g>
		<path class="st1" d="M54.9,231.3H42.9c-1.3,0-2.4-1.1-2.4-2.4c0-1.3,1.1-2.4,2.4-2.4h12.1c1.3,0,2.4,1.1,2.4,2.4
			C57.3,230.3,56.3,231.3,54.9,231.3z"/>
	</g>
	<g>
		<path class="st1" d="M54.9,251.7H28.7c-1.3,0-2.4-1.1-2.4-2.4c0-1.3,1.1-2.4,2.4-2.4h26.2c1.3,0,2.4,1.1,2.4,2.4
			C57.3,250.6,56.3,251.7,54.9,251.7z"/>
	</g>
	<g>
		<path class="st1" d="M54.9,271.4H42.9c-1.3,0-2.4-1.1-2.4-2.4s1.1-2.4,2.4-2.4h12.1c1.3,0,2.4,1.1,2.4,2.4S56.3,271.4,54.9,271.4z
			"/>
	</g>
	<g>
		<path class="st1" d="M54.9,291.7H28.7c-1.3,0-2.4-1.1-2.4-2.4c0-1.3,1.1-2.4,2.4-2.4h26.2c1.3,0,2.4,1.1,2.4,2.4
			C57.3,290.6,56.3,291.7,54.9,291.7z"/>
	</g>
	<g>
		<path class="st1" d="M54.9,311.4H42.9c-1.3,0-2.4-1.1-2.4-2.4s1.1-2.4,2.4-2.4h12.1c1.3,0,2.4,1.1,2.4,2.4S56.3,311.4,54.9,311.4z
			"/>
	</g>
	<g>
		<path class="st1" d="M54.9,331.7H28.7c-1.3,0-2.4-1.1-2.4-2.4c0-1.3,1.1-2.4,2.4-2.4h26.2c1.3,0,2.4,1.1,2.4,2.4
			C57.3,330.7,56.3,331.7,54.9,331.7z"/>
	</g>
	<g>
		<path class="st1" d="M54.9,352.4H42.9c-1.3,0-2.4-1.1-2.4-2.4s1.1-2.4,2.4-2.4h12.1c1.3,0,2.4,1.1,2.4,2.4S56.3,352.4,54.9,352.4z
			"/>
	</g>
	<g>
		<path class="st1" d="M54.9,372.5H28.7c-1.3,0-2.4-1.1-2.4-2.4s1.1-2.4,2.4-2.4h26.2c1.3,0,2.4,1.1,2.4,2.4S56.3,372.5,54.9,372.5z
			"/>
	</g>
	<g>
		<path class="st1" d="M54.9,392.5H42.9c-1.3,0-2.4-1.1-2.4-2.4c0-1.3,1.1-2.4,2.4-2.4h12.1c1.3,0,2.4,1.1,2.4,2.4
			C57.3,391.4,56.3,392.5,54.9,392.5z"/>
	</g>
	<g>
		<path class="st1" d="M54.9,413.2H28.7c-1.3,0-2.4-1.1-2.4-2.4s1.1-2.4,2.4-2.4h26.2c1.3,0,2.4,1.1,2.4,2.4S56.3,413.2,54.9,413.2z
			"/>
	</g>
	<g>
		<path class="st1" d="M54.9,433.2H42.9c-1.3,0-2.4-1.1-2.4-2.4c0-1.3,1.1-2.4,2.4-2.4h12.1c1.3,0,2.4,1.1,2.4,2.4
			C57.3,432.1,56.3,433.2,54.9,433.2z"/>
	</g>
	<g>
		<path class="st1" d="M17.4,443.6c-4.3,0-7.8-3.5-7.8-7.8c0-4.3,3.5-7.8,7.8-7.8c4.3,0,7.8,3.5,7.8,7.8
			C25.2,440.1,21.7,443.6,17.4,443.6z M17.4,432.8c-1.7,0-3,1.3-3,3c0,1.7,1.3,3,3,3c1.7,0,3-1.3,3-3
			C20.4,434.1,19.1,432.8,17.4,432.8z"/>
	</g>
</g>
<g>
	<g>
		<path class="st1" d="M29.1,96.8c-1.3,0-2.4-1.1-2.4-2.4v-4.1c0-1.3,1.1-2.4,2.4-2.4c1.3,0,2.4,1.1,2.4,2.4v4.1
			C31.5,95.7,30.4,96.8,29.1,96.8z"/>
	</g>
	<g>
		<path class="st1" d="M29.1,73c-1.3,0-2.4-1.1-2.4-2.4V59.9c0-1.3,1.1-2.4,2.4-2.4c1.3,0,2.4,1.1,2.4,2.4v10.7
			C31.5,71.9,30.4,73,29.1,73z"/>
	</g>
	<g>
		<path class="st1" d="M29.1,43c-1.3,0-2.4-1.1-2.4-2.4v-4.5c0-1.3,1.1-2.4,2.4-2.4h4.1c1.3,0,2.4,1.1,2.4,2.4
			c0,1.3-1.1,2.4-2.4,2.4h-1.7v2.1C31.5,41.9,30.4,43,29.1,43z"/>
	</g>
	<g>
		<path class="st1" d="M275,38.5h-8.6c-1.3,0-2.4-1.1-2.4-2.4c0-1.3,1.1-2.4,2.4-2.4h8.6c1.3,0,2.4,1.1,2.4,2.4
			C277.5,37.4,276.4,38.5,275,38.5z M250.9,38.5h-8.6c-1.3,0-2.4-1.1-2.4-2.4c0-1.3,1.1-2.4,2.4-2.4h8.6c1.3,0,2.4,1.1,2.4,2.4
			C253.3,37.4,252.2,38.5,250.9,38.5z M226.7,38.5h-8.6c-1.3,0-2.4-1.1-2.4-2.4c0-1.3,1.1-2.4,2.4-2.4h8.6c1.3,0,2.4,1.1,2.4,2.4
			C229.2,37.4,228.1,38.5,226.7,38.5z M202.6,38.5H194c-1.3,0-2.4-1.1-2.4-2.4c0-1.3,1.1-2.4,2.4-2.4h8.6c1.3,0,2.4,1.1,2.4,2.4
			C205,37.4,203.9,38.5,202.6,38.5z M178.4,38.5h-8.6c-1.3,0-2.4-1.1-2.4-2.4c0-1.3,1.1-2.4,2.4-2.4h8.6c1.3,0,2.4,1.1,2.4,2.4
			C180.9,37.4,179.8,38.5,178.4,38.5z M154.3,38.5h-8.6c-1.3,0-2.4-1.1-2.4-2.4c0-1.3,1.1-2.4,2.4-2.4h8.6c1.3,0,2.4,1.1,2.4,2.4
			C156.7,37.4,155.6,38.5,154.3,38.5z M130.1,38.5h-8.6c-1.3,0-2.4-1.1-2.4-2.4c0-1.3,1.1-2.4,2.4-2.4h8.6c1.3,0,2.4,1.1,2.4,2.4
			C132.6,37.4,131.5,38.5,130.1,38.5z M106,38.5h-8.6c-1.3,0-2.4-1.1-2.4-2.4c0-1.3,1.1-2.4,2.4-2.4h8.6c1.3,0,2.4,1.1,2.4,2.4
			C108.4,37.4,107.3,38.5,106,38.5z M81.8,38.5h-8.6c-1.3,0-2.4-1.1-2.4-2.4c0-1.3,1.1-2.4,2.4-2.4h8.6c1.3,0,2.4,1.1,2.4,2.4
			C84.3,37.4,83.2,38.5,81.8,38.5z M57.7,38.5h-8.6c-1.3,0-2.4-1.1-2.4-2.4c0-1.3,1.1-2.4,2.4-2.4h8.6c1.3,0,2.4,1.1,2.4,2.4
			C60.1,37.4,59,38.5,57.7,38.5z"/>
	</g>
	<g>
		<path class="st1" d="M295.7,38.5h-4.5c-1.3,0-2.4-1.1-2.4-2.4c0-1.3,1.1-2.4,2.4-2.4h4.5c1.3,0,2.4,1.1,2.4,2.4
			C298.2,37.4,297.1,38.5,295.7,38.5z"/>
	</g>
</g>
<g>
	<g>
		<path class="st1" d="M513.1,316.9c-1.3,0-2.4-1.1-2.4-2.4V310c0-1.3,1.1-2.4,2.4-2.4c1.3,0,2.4,1.1,2.4,2.4v4.5
			C515.5,315.8,514.4,316.9,513.1,316.9z"/>
	</g>
	<g>
		<path class="st1" d="M513.1,432.5c-1.3,0-2.4-1.1-2.4-2.4v-8.3c0-1.3,1.1-2.4,2.4-2.4c1.3,0,2.4,1.1,2.4,2.4v8.3
			C515.5,431.4,514.4,432.5,513.1,432.5z M513.1,409.4c-1.3,0-2.4-1.1-2.4-2.4v-8.3c0-1.3,1.1-2.4,2.4-2.4c1.3,0,2.4,1.1,2.4,2.4
			v8.3C515.5,408.3,514.4,409.4,513.1,409.4z M513.1,386.3c-1.3,0-2.4-1.1-2.4-2.4v-8.3c0-1.3,1.1-2.4,2.4-2.4
			c1.3,0,2.4,1.1,2.4,2.4v8.3C515.5,385.2,514.4,386.3,513.1,386.3z M513.1,363.1c-1.3,0-2.4-1.1-2.4-2.4v-8.3
			c0-1.3,1.1-2.4,2.4-2.4c1.3,0,2.4,1.1,2.4,2.4v8.3C515.5,362.1,514.4,363.1,513.1,363.1z M513.1,340c-1.3,0-2.4-1.1-2.4-2.4v-8.3
			c0-1.3,1.1-2.4,2.4-2.4c1.3,0,2.4,1.1,2.4,2.4v8.3C515.5,338.9,514.4,340,513.1,340z"/>
	</g>
	<g>
		<path class="st1" d="M513.1,452.5h-4.5c-1.3,0-2.4-1.1-2.4-2.4s1.1-2.4,2.4-2.4h2.1v-1.7c0-1.3,1.1-2.4,2.4-2.4
			c1.3,0,2.4,1.1,2.4,2.4v4.1C515.5,451.4,514.4,452.5,513.1,452.5z"/>
	</g>
	<g>
		<path class="st1" d="M493.4,452.5h-8.6c-1.3,0-2.4-1.1-2.4-2.4s1.1-2.4,2.4-2.4h8.6c1.3,0,2.4,1.1,2.4,2.4
			S494.8,452.5,493.4,452.5z M469.6,452.5H461c-1.3,0-2.4-1.1-2.4-2.4s1.1-2.4,2.4-2.4h8.6c1.3,0,2.4,1.1,2.4,2.4
			S471,452.5,469.6,452.5z M445.8,452.5h-8.6c-1.3,0-2.4-1.1-2.4-2.4s1.1-2.4,2.4-2.4h8.6c1.3,0,2.4,1.1,2.4,2.4
			S447.1,452.5,445.8,452.5z M422,452.5h-8.6c-1.3,0-2.4-1.1-2.4-2.4s1.1-2.4,2.4-2.4h8.6c1.3,0,2.4,1.1,2.4,2.4
			S423.3,452.5,422,452.5z M398.2,452.5h-8.6c-1.3,0-2.4-1.1-2.4-2.4s1.1-2.4,2.4-2.4h8.6c1.3,0,2.4,1.1,2.4,2.4
			S399.5,452.5,398.2,452.5z M374.4,452.5h-8.6c-1.3,0-2.4-1.1-2.4-2.4s1.1-2.4,2.4-2.4h8.6c1.3,0,2.4,1.1,2.4,2.4
			S375.7,452.5,374.4,452.5z M350.6,452.5H342c-1.3,0-2.4-1.1-2.4-2.4s1.1-2.4,2.4-2.4h8.6c1.3,0,2.4,1.1,2.4,2.4
			S351.9,452.5,350.6,452.5z M326.8,452.5h-8.6c-1.3,0-2.4-1.1-2.4-2.4s1.1-2.4,2.4-2.4h8.6c1.3,0,2.4,1.1,2.4,2.4
			S328.1,452.5,326.8,452.5z M303,452.5h-8.6c-1.3,0-2.4-1.1-2.4-2.4s1.1-2.4,2.4-2.4h8.6c1.3,0,2.4,1.1,2.4,2.4
			S304.3,452.5,303,452.5z"/>
	</g>
	<g>
		<path class="st1" d="M279.5,452.5h-4.1c-1.3,0-2.4-1.1-2.4-2.4v-4.1c0-1.3,1.1-2.4,2.4-2.4s2.4,1.1,2.4,2.4v1.7h1.7
			c1.3,0,2.4,1.1,2.4,2.4S280.9,452.5,279.5,452.5z"/>
	</g>
	<g>
		<path class="st1" d="M275.4,436.3c-1.3,0-2.4-1.1-2.4-2.4v-6.6c0-1.3,1.1-2.4,2.4-2.4s2.4,1.1,2.4,2.4v6.6
			C277.8,435.2,276.7,436.3,275.4,436.3z"/>
	</g>
	<g>
		<path class="st1" d="M275.4,417.6c-1.3,0-2.4-1.1-2.4-2.4v-4.5c0-1.3,1.1-2.4,2.4-2.4s2.4,1.1,2.4,2.4v4.5
			C277.8,416.6,276.7,417.6,275.4,417.6z"/>
	</g>
</g>
<g>
	<g>
		<path class="st1" d="M84.6,319c-1.3,0-2.4-1.1-2.4-2.4V301c0-1.3,1.1-2.4,2.4-2.4s2.4,1.1,2.4,2.4v15.5
			C87,317.9,85.9,319,84.6,319z"/>
	</g>
	<g>
		<path class="st1" d="M92.5,311.4H77c-1.3,0-2.4-1.1-2.4-2.4s1.1-2.4,2.4-2.4h15.5c1.3,0,2.4,1.1,2.4,2.4S93.9,311.4,92.5,311.4z"
			/>
	</g>
</g>
<g>
	<g>
		<path class="st1" d="M174,83c-1.3,0-2.4-1.1-2.4-2.4V65.1c0-1.3,1.1-2.4,2.4-2.4s2.4,1.1,2.4,2.4v15.5C176.4,81.9,175.3,83,174,83
			z"/>
	</g>
	<g>
		<path class="st1" d="M181.9,75.4h-15.5c-1.3,0-2.4-1.1-2.4-2.4s1.1-2.4,2.4-2.4h15.5c1.3,0,2.4,1.1,2.4,2.4S183.2,75.4,181.9,75.4
			z"/>
	</g>
</g>
<g>
	<g>
		<path class="st1" d="M474.8,425.2c-1.3,0-2.4-1.1-2.4-2.4v-15.5c0-1.3,1.1-2.4,2.4-2.4c1.3,0,2.4,1.1,2.4,2.4v15.5
			C477.2,424.2,476.1,425.2,474.8,425.2z"/>
	</g>
	<g>
		<path class="st1" d="M482.7,417.6h-15.5c-1.3,0-2.4-1.1-2.4-2.4c0-1.3,1.1-2.4,2.4-2.4h15.5c1.3,0,2.4,1.1,2.4,2.4
			C485.1,416.6,484.1,417.6,482.7,417.6z"/>
	</g>
</g>
<g>
	<path class="st1" d="M118,446.4c0-1.9,1.5-3.5,3.4-3.5l0,0c1.9,0,3.5,1.4,3.5,3.3l0,0c0,1.9-1.5,3.5-3.4,3.5l0,0c0,0-0.1,0-0.1,0
		l0,0C119.6,449.7,118.1,448.3,118,446.4z M107.8,444.6L107.8,444.6c-1.4-1.4-1.4-3.5-0.1-4.9l0,0c1.3-1.4,3.5-1.4,4.9-0.1l0,0
		c1.4,1.3,1.4,3.5,0.1,4.9l0,0c-0.7,0.7-1.6,1.1-2.5,1.1l0,0C109.4,445.5,108.5,445.2,107.8,444.6z M130.2,444
		c-1.4-1.3-1.5-3.5-0.2-4.9l0,0c1.3-1.4,3.5-1.5,4.9-0.2l0,0c1.4,1.3,1.5,3.5,0.2,4.9l0,0c-0.7,0.7-1.6,1.1-2.5,1.1l0,0
		C131.7,444.9,130.8,444.6,130.2,444z M102,431.1c0-1.9,1.5-3.5,3.4-3.5l0,0c1.9,0,3.5,1.6,3.5,3.5l0,0c0,1.9-1.5,3.5-3.4,3.5l0,0
		c0,0,0,0,0,0l0,0C103.5,434.6,102,433,102,431.1z M133.3,430.2c-0.1-1.9,1.4-3.5,3.3-3.5l0,0c1.9-0.1,3.5,1.4,3.6,3.3l0,0
		c0.1,1.9-1.4,3.5-3.3,3.5l0,0c0,0-0.1,0-0.1,0l0,0C134.9,433.5,133.4,432.1,133.3,430.2z M107.5,422.2c-1.4-1.3-1.4-3.5,0-4.9l0,0
		c1.3-1.4,3.5-1.4,4.9,0l0,0c1.4,1.3,1.4,3.5,0,4.9l0,0l0,0l0,0c-0.7,0.7-1.6,1-2.5,1l0,0C109.1,423.2,108.2,422.9,107.5,422.2z
		 M129.4,421.7c-1.4-1.3-1.5-3.5-0.2-4.9l0,0c1.3-1.4,3.5-1.5,4.9-0.2l0,0c1.4,1.3,1.5,3.5,0.2,4.9l0,0c-0.7,0.7-1.6,1.1-2.5,1.1
		l0,0C130.8,422.6,130,422.3,129.4,421.7z M117.7,415.1c0-1.9,1.4-3.4,3.5-3.4v0c1.7,0,3.4,1.5,3.4,3.4l0,0c0,1.9-1.5,3.5-3.4,3.5
		l0,0C119.2,418.5,117.7,417,117.7,415.1z"/>
</g>
<g>
	<path class="st1" d="M89.4,88.7c0-1.9,1.5-3.4,3.4-3.5l0,0c1.9,0,3.5,1.4,3.5,3.3l0,0c0,1.9-1.5,3.5-3.4,3.5l0,0c0,0-0.1,0-0.1,0
		l0,0C91,92,89.4,90.6,89.4,88.7z M79.2,86.8c-1.4-1.3-1.4-3.5-0.1-4.9l0,0c1.3-1.4,3.5-1.4,4.9-0.1l0,0l0,0l0,0
		c1.4,1.3,1.4,3.5,0.1,4.9l0,0c-0.7,0.7-1.6,1.1-2.5,1.1l0,0C80.7,87.7,79.8,87.4,79.2,86.8z M101.5,86.2c-1.4-1.3-1.5-3.5-0.2-4.9
		l0,0l0,0l0,0c1.3-1.4,3.5-1.5,4.9-0.2l0,0c1.4,1.3,1.5,3.5,0.2,4.9l0,0c-0.7,0.7-1.6,1.1-2.5,1.1l0,0
		C103,87.2,102.2,86.9,101.5,86.2z M73.3,73.3c0-1.9,1.5-3.5,3.4-3.5l0,0c1.9,0,3.5,1.6,3.5,3.5l0,0c0,1.9-1.5,3.5-3.4,3.5l0,0
		c0,0,0,0,0,0l0,0C74.9,76.8,73.3,75.2,73.3,73.3z M104.7,72.5c-0.1-1.9,1.4-3.5,3.3-3.5l0,0c1.9-0.1,3.5,1.4,3.6,3.3l0,0
		c0.1,1.9-1.4,3.5-3.3,3.5l0,0c0,0-0.1,0-0.1,0l0,0C106.3,75.8,104.7,74.3,104.7,72.5z M78.9,64.4c-1.4-1.3-1.4-3.5,0-4.9l0,0
		c1.3-1.4,3.5-1.4,4.9,0l0,0c1.4,1.3,1.4,3.5,0,4.9l0,0c-0.7,0.7-1.6,1-2.5,1l0,0C80.4,65.4,79.5,65.1,78.9,64.4z M100.7,64
		L100.7,64L100.7,64c-1.4-1.3-1.5-3.5-0.2-4.9l0,0c1.3-1.4,3.5-1.5,4.9-0.2l0,0c1.4,1.3,1.5,3.5,0.2,4.9l0,0
		c-0.7,0.7-1.6,1.1-2.5,1.1l0,0C102.2,64.9,101.4,64.6,100.7,64z M89,57.3c0-1.9,1.5-3.4,3.5-3.4l0,0c1.9,0,3.4,1.5,3.4,3.4l0,0
		c0,1.9-1.5,3.5-3.4,3.5l0,0C90.5,60.8,89,59.2,89,57.3z"/>
</g>
</svg>
