<?xml version="1.0" encoding="utf-8"?>
<!-- Generator: Adobe Illustrator 26.2.1, SVG Export Plug-In . SVG Version: 6.00 Build 0)  -->
<svg version="1.1" id="Layer_1" xmlns="http://www.w3.org/2000/svg" xmlns:xlink="http://www.w3.org/1999/xlink" x="0px" y="0px"
	 viewBox="0 0 339.8 282.7" style="enable-background:new 0 0 339.8 282.7;" xml:space="preserve">
<style type="text/css">
	.st0{fill:#AD833D;}
	.st1{fill:#1E243A;}
</style>
<g>
	<g>
		<path class="st0" d="M326.7,102.4V41.7c7.6-2.7,13-9.8,13-18.1c0-8.1-5.4-15.1-11.7-17.9V23c0,1.1-1.2,1.8-2.3,1.8h-10.5
			c-1.1,0-1.8-0.7-1.8-1.8V5.6c-7.6,2.9-12.2,9.8-12.2,17.9c0,8.3,4.6,15.4,12.5,18.1v60.8c-7.8,2.8-12.4,9.8-12.4,18.1
			c0,8.1,4.6,15.1,12.2,17.9V121c0-1.1,0.7-2.5,1.8-2.5h10.5c1.1,0,2.2,1.4,2.2,2.5v17.4c7-2.9,11.7-9.8,11.7-17.9
			C339.8,112.2,334.4,105.1,326.7,102.4z"/>
	</g>
	<g>
		<line class="st0" x1="313.7" y1="41.6" x2="313.7" y2="36.6"/>
	</g>
	<g>
		<line class="st0" x1="326.7" y1="41.6" x2="326.7" y2="36.6"/>
	</g>
	<g>
		<line class="st0" x1="313.7" y1="107.9" x2="313.7" y2="102.4"/>
	</g>
	<g>
		<line class="st0" x1="326.7" y1="107.9" x2="326.7" y2="102.4"/>
	</g>
</g>
<g>
	<path class="st0" d="M189.5,37.5l0-8.9l-6.8,0c-0.4-2-1.1-3.9-2.1-5.7l4.7-4.7l-6.3-6.3l-4.4,4.4c-1.8-1.2-3.9-2.2-5.9-2.7l0-5.9
		l-8.9,0l0,5.6c-2.2,0.5-4.4,1.3-6.4,2.5l-3.9-3.9l-6.4,6.4l3.9,3.9c-1.1,1.9-2.1,4.1-2.5,6.4l-5.6,0l0,8.9l5.9,0
		c0.6,2.1,1.5,4.1,2.7,5.9l-4.4,4.4l6.3,6.3l4.7-4.7c1.8,1,3.7,1.7,5.7,2.1l0,6.8l8.9,0l0-7.1c1.8-0.5,3.5-1.2,5.2-2.2l5.1,5.1
		l6.4-6.4l-5.1-5.1c1-1.6,1.7-3.4,2.2-5.2L189.5,37.5z M171.9,40.7c-4.6,4.6-12.1,4.6-16.7,0c-4.6-4.6-4.6-12.1,0-16.7
		c4.6-4.6,12.1-4.6,16.7,0C176.5,28.6,176.5,36.1,171.9,40.7z"/>
</g>
<g>
	<path class="st0" d="M68.1,40l0-12l-9.2,0c-0.5-2.7-1.4-5.2-2.8-7.7l6.3-6.3l-8.4-8.4L48,11.6c-2.4-1.7-5.2-2.9-8-3.7l0-7.9l-12,0
		l0,7.5c-3,0.6-5.9,1.8-8.6,3.4l-5.2-5.2l-8.6,8.6l5.2,5.2c-1.5,2.6-2.8,5.6-3.4,8.6l-7.5,0l0,12l7.9,0c0.7,2.8,2,5.6,3.7,8L5.7,54
		l8.4,8.4l6.3-6.3c2.5,1.4,5,2.3,7.6,2.8l0,9.2l12,0l0-9.5c2.4-0.6,4.7-1.6,6.9-3l6.8,6.8l8.6-8.6L55.6,47c1.4-2.2,2.3-4.5,3-7
		L68.1,40z M44.4,44.4c-6.2,6.2-16.3,6.2-22.5,0c-6.2-6.2-6.2-16.3,0-22.5c6.2-6.2,16.3-6.2,22.5,0C50.6,28.1,50.6,38.2,44.4,44.4z"
		/>
</g>
<g>
	<g>
		<g>
			<g>
				<path class="st1" d="M271.8,224.3H70.4c-0.8,0-1.5-0.7-1.5-1.5c0-0.8,0.7-1.5,1.5-1.5h201.4c0.8,0,1.5,0.7,1.5,1.5
					C273.3,223.6,272.7,224.3,271.8,224.3z"/>
			</g>
			<g>
				<path class="st1" d="M147.8,281.4c-0.8,0-1.5-0.7-1.5-1.5v-37.9c0-0.8,0.7-1.5,1.5-1.5c0.8,0,1.5,0.7,1.5,1.5v37.9
					C149.3,280.7,148.6,281.4,147.8,281.4z"/>
			</g>
			<g>
				<path class="st1" d="M194.4,281.4c-0.8,0-1.5-0.7-1.5-1.5v-37.9c0-0.8,0.7-1.5,1.5-1.5c0.8,0,1.5,0.7,1.5,1.5v37.9
					C196,280.7,195.3,281.4,194.4,281.4z"/>
			</g>
			<g>
				<path class="st1" d="M214.9,282.2h-87.4c-0.8,0-1.5-0.7-1.5-1.5s0.7-1.5,1.5-1.5h87.4c0.8,0,1.5,0.7,1.5,1.5
					S215.8,282.2,214.9,282.2z"/>
			</g>
			<g>
				<path class="st1" d="M170.9,236.6c-2.6,0-4.7-2.1-4.7-4.7c0-2.6,2.1-4.7,4.7-4.7c2.6,0,4.7,2.1,4.7,4.7
					C175.6,234.5,173.5,236.6,170.9,236.6z M170.9,230.3c-0.9,0-1.6,0.7-1.6,1.6c0,0.9,0.7,1.6,1.6,1.6c0.9,0,1.6-0.7,1.6-1.6
					C172.5,231,171.8,230.3,170.9,230.3z"/>
			</g>
		</g>
	</g>
	<g>
		<path class="st1" d="M263.8,242.8H78.2c-5.2,0-9.5-4.2-9.5-9.5V110.5c0-5.2,4.2-9.5,9.5-9.5h185.6c5.2,0,9.5,4.2,9.5,9.5v122.9
			C273.2,238.6,269,242.8,263.8,242.8z M78.2,104.1c-3.5,0-6.4,2.9-6.4,6.4v122.9c0,3.5,2.9,6.4,6.4,6.4h185.6
			c3.5,0,6.4-2.9,6.4-6.4V110.5c0-3.5-2.9-6.4-6.4-6.4H78.2z"/>
	</g>
</g>
<g>
	<g>
		<path class="st1" d="M27.5,212.5c-0.8,0-1.5-0.7-1.5-1.5v-9.8c0-0.8,0.7-1.5,1.5-1.5c0.8,0,1.5,0.7,1.5,1.5v9.8
			C29,211.8,28.3,212.5,27.5,212.5z"/>
	</g>
	<g>
		<path class="st1" d="M32.5,207.7h-9.8c-0.8,0-1.5-0.7-1.5-1.5c0-0.8,0.7-1.5,1.5-1.5h9.8c0.8,0,1.5,0.7,1.5,1.5
			C34,207,33.3,207.7,32.5,207.7z"/>
	</g>
</g>
<g>
	<g>
		<path class="st1" d="M108.4,78.4c-0.8,0-1.5-0.7-1.5-1.5v-9.8c0-0.8,0.7-1.5,1.5-1.5c0.8,0,1.5,0.7,1.5,1.5v9.8
			C109.9,77.8,109.2,78.4,108.4,78.4z"/>
	</g>
	<g>
		<path class="st1" d="M113.4,73.7h-9.8c-0.8,0-1.5-0.7-1.5-1.5s0.7-1.5,1.5-1.5h9.8c0.8,0,1.5,0.7,1.5,1.5S114.2,73.7,113.4,73.7z"
			/>
	</g>
</g>
<g>
	<g>
		<path class="st1" d="M306.5,212.5c-0.8,0-1.5-0.7-1.5-1.5v-9.8c0-0.8,0.7-1.5,1.5-1.5s1.5,0.7,1.5,1.5v9.8
			C308,211.8,307.3,212.5,306.5,212.5z"/>
	</g>
	<g>
		<path class="st1" d="M311.5,207.7h-9.8c-0.8,0-1.5-0.7-1.5-1.5c0-0.8,0.7-1.5,1.5-1.5h9.8c0.8,0,1.5,0.7,1.5,1.5
			C313,207,312.3,207.7,311.5,207.7z"/>
	</g>
</g>
<g>
	<g>
		<path class="st1" d="M81.5,277c-0.8,0-1.5-0.7-1.5-1.5v-9.8c0-0.8,0.7-1.5,1.5-1.5c0.8,0,1.5,0.7,1.5,1.5v9.8
			C83.1,276.3,82.4,277,81.5,277z"/>
	</g>
	<g>
		<path class="st1" d="M86.6,272.2h-9.8c-0.8,0-1.5-0.7-1.5-1.5c0-0.8,0.7-1.5,1.5-1.5h9.8c0.8,0,1.5,0.7,1.5,1.5
			C88.1,271.5,87.4,272.2,86.6,272.2z"/>
	</g>
</g>
<g>
	<path class="st1" d="M10.9,280.6c0-1.2,0.9-2.2,2.1-2.2l0,0c1.2,0,2.2,0.9,2.2,2.1l0,0c0,1.2-0.9,2.2-2.1,2.2l0,0c0,0,0,0-0.1,0
		l0,0C11.9,282.7,10.9,281.8,10.9,280.6z M4.5,279.4L4.5,279.4c-0.9-0.9-0.9-2.2-0.1-3.1l0,0c0.8-0.9,2.2-0.9,3.1-0.1l0,0l0,0l0,0
		c0.9,0.8,0.9,2.2,0.1,3.1l0,0c-0.4,0.4-1,0.7-1.6,0.7l0,0C5.4,280,4.9,279.8,4.5,279.4z M18.6,279c-0.9-0.8-0.9-2.2-0.1-3.1l0,0
		c0.8-0.9,2.2-0.9,3.1-0.1l0,0c0.9,0.8,0.9,2.2,0.1,3.1l0,0c-0.4,0.5-1,0.7-1.6,0.7l0,0C19.5,279.6,19,279.4,18.6,279z M0.8,270.9
		c0-1.2,0.9-2.2,2.2-2.2l0,0c1.2,0,2.2,1,2.2,2.2l0,0c0,1.2-0.9,2.2-2.2,2.2l0,0c0,0,0,0,0,0l0,0C1.7,273.1,0.8,272.1,0.8,270.9z
		 M20.6,270.4c0-1.2,0.9-2.2,2.1-2.2l0,0c1.2,0,2.2,0.8,2.3,2.1h0c0,1.1-0.9,2.2-2.1,2.2l0,0c0,0-0.1,0-0.1,0l0,0
		C21.6,272.4,20.6,271.5,20.6,270.4z M4.3,265.3c-0.9-0.8-0.9-2.2,0-3.1l0,0c0.8-0.9,2.2-0.9,3.1,0l0,0c0.9,0.8,0.9,2.2,0,3.1l0,0
		c-0.4,0.4-1,0.6-1.6,0.6l0,0C5.2,265.9,4.7,265.7,4.3,265.3z M18.1,265c-0.9-0.8-0.9-2.2-0.1-3.1l0,0c0.8-0.9,2.2-0.9,3.1-0.1l0,0
		c0.9,0.8,0.9,2.2,0.1,3.1l0,0c-0.4,0.5-1,0.7-1.6,0.7l0,0C19,265.5,18.5,265.4,18.1,265z M10.7,260.8c0-1.2,1-2.2,2.2-2.2l0,0
		c1.2,0,2.2,1,2.2,2.2l0,0c0,1.2-1,2.2-2.2,2.2l0,0C11.6,262.9,10.7,262,10.7,260.8z"/>
</g>
<g>
	<path class="st1" d="M243.5,57.4c0-1.2,0.9-2.2,2.1-2.2l0,0c1.2,0,2.2,0.9,2.2,2.1l0,0c0,1.2-0.9,2.2-2.1,2.2l0,0c0,0,0,0-0.1,0
		l0,0C244.5,59.5,243.5,58.6,243.5,57.4z M237,56.2c-0.9-0.8-0.9-2.2-0.1-3.1l0,0c0.8-0.9,2.2-0.9,3.1-0.1l0,0l0,0l0,0
		c0.9,0.8,0.9,2.2,0.1,3.1l0,0c-0.4,0.4-1,0.7-1.6,0.7l0,0C238,56.8,237.4,56.6,237,56.2z M251.1,55.9c-0.9-0.8-0.9-2.2-0.1-3.1l0,0
		c0.8-0.9,2.2-0.9,3.1-0.1l0,0c0.9,0.8,0.9,2.2,0.1,3.1l0,0c-0.4,0.5-1,0.7-1.6,0.7l0,0C252.1,56.5,251.5,56.3,251.1,55.9z
		 M233.3,47.7c0-1.2,1-2.2,2.2-2.2l0,0c1.2,0,2.2,1,2.2,2.2l0,0c0,1.2-0.9,2.2-2.2,2.2l0,0c0,0,0,0,0,0l0,0
		C234.3,49.9,233.3,48.9,233.3,47.7z M253.1,47.2c0-1.2,0.9-2.2,2.1-2.2l0,0c1.2,0,2.2,0.9,2.3,2.1l0,0c0,1.2-0.9,2.2-2.1,2.2l0,0
		c0,0-0.1,0-0.1,0l0,0C254.1,49.2,253.2,48.4,253.1,47.2z M236.8,42.1c-0.9-0.8-0.9-2.2,0-3.1l0,0c0.8-0.9,2.2-0.9,3.1,0l0,0
		c0.9,0.8,0.9,2.2,0,3.1l0,0c-0.4,0.4-1,0.6-1.6,0.6l0,0C237.8,42.7,237.2,42.5,236.8,42.1z M250.6,41.8L250.6,41.8L250.6,41.8
		c-0.9-0.8-0.9-2.2-0.1-3.1l0,0c0.8-0.9,2.2-0.9,3.1-0.1l0,0c0.9,0.8,0.9,2.2,0.1,3.1l0,0c-0.4,0.5-1,0.7-1.6,0.7l0,0
		C251.6,42.4,251,42.2,250.6,41.8z M243.2,37.6c0-1.2,1-2.2,2.2-2.2l0,0c1.2,0,2.2,1,2.2,2.2l0,0c0,1.2-1,2.2-2.2,2.2l0,0
		C244.2,39.8,243.2,38.8,243.2,37.6z"/>
</g>
<g>
	<path class="st1" d="M324.8,280.6c0-1.2,0.9-2.2,2.1-2.2l0,0c1.2,0,2.2,0.9,2.2,2.1l0,0c0,1.2-0.9,2.2-2.1,2.2l0,0c0,0,0,0-0.1,0
		l0,0C325.7,282.7,324.8,281.8,324.8,280.6z M318.3,279.4L318.3,279.4c-0.9-0.9-0.9-2.2-0.1-3.1l0,0c0.8-0.9,2.2-0.9,3.1-0.1l0,0
		l0,0l0,0c0.9,0.8,0.9,2.2,0.1,3.1l0,0c-0.4,0.4-1,0.7-1.6,0.7l0,0C319.3,280,318.7,279.8,318.3,279.4z M332.4,279
		c-0.9-0.8-0.9-2.2-0.1-3.1l0,0c0.8-0.9,2.2-0.9,3.1-0.1l0,0c0.9,0.8,0.9,2.2,0.1,3.1l0,0c-0.4,0.5-1,0.7-1.6,0.7l0,0
		C333.4,279.6,332.8,279.4,332.4,279z M314.6,270.9c0-1.2,0.9-2.2,2.2-2.2l0,0c1.2,0,2.2,1,2.2,2.2l0,0c0,1.2-0.9,2.2-2.2,2.2l0,0
		c0,0,0,0,0,0l0,0C315.6,273.1,314.6,272.1,314.6,270.9z M334.4,270.4c0-1.2,0.9-2.2,2.1-2.2l0,0c1.2,0,2.2,0.8,2.3,2.1h0
		c0,1.1-0.9,2.2-2.1,2.2l0,0c0,0-0.1,0-0.1,0l0,0C335.4,272.4,334.4,271.5,334.4,270.4z M318.1,265.3c-0.9-0.8-0.9-2.2,0-3.1l0,0
		c0.8-0.9,2.2-0.9,3.1,0l0,0c0.9,0.8,0.9,2.2,0,3.1l0,0c-0.4,0.4-1,0.6-1.6,0.6l0,0C319.1,265.9,318.5,265.7,318.1,265.3z
		 M331.9,265c-0.9-0.8-0.9-2.2-0.1-3.1l0,0c0.8-0.9,2.2-0.9,3.1-0.1l0,0c0.9,0.8,0.9,2.2,0.1,3.1l0,0c-0.4,0.5-1,0.7-1.6,0.7l0,0
		C332.8,265.5,332.3,265.4,331.9,265z M324.5,260.8c0-1.2,1-2.2,2.2-2.2l0,0c1.2,0,2.2,1,2.2,2.2l0,0c0,1.2-1,2.2-2.2,2.2l0,0
		C325.5,262.9,324.5,262,324.5,260.8z"/>
</g>
<g>
	<g>
		<path class="st1" d="M153.7,181.1c-0.4,0-0.9-0.2-1.2-0.5l-18.1-16.6c-0.4-0.4-0.6-0.8-0.6-1.4s0.2-1,0.6-1.4l18.1-16.6
			c0.8-0.7,1.9-0.6,2.6,0.1c0.7,0.8,0.6,1.9-0.1,2.6l-16.6,15.2l16.6,15.2c0.8,0.7,0.8,1.9,0.1,2.6
			C154.7,180.9,154.2,181.1,153.7,181.1z"/>
	</g>
	<g>
		<path class="st1" d="M188.4,181.1c-0.5,0-1-0.2-1.4-0.6c-0.7-0.8-0.6-1.9,0.1-2.6l16.6-15.2l-16.6-15.2c-0.8-0.7-0.8-1.9-0.1-2.6
			c0.7-0.8,1.9-0.8,2.6-0.1l18.1,16.6c0.4,0.4,0.6,0.8,0.6,1.4s-0.2,1-0.6,1.4l-18.1,16.6C189.3,180.9,188.8,181.1,188.4,181.1z"/>
	</g>
	<g>
		<path class="st1" d="M166.6,181.1c-0.2,0-0.3,0-0.5-0.1c-1-0.3-1.6-1.3-1.3-2.3l8.9-33.1c0.3-1,1.3-1.6,2.3-1.3
			c1,0.3,1.6,1.3,1.3,2.3l-8.9,33.1C168.1,180.5,167.4,181.1,166.6,181.1z"/>
	</g>
</g>
<g>
	<g>
		<path class="st1" d="M33.2,84.8c-0.8,0-1.5-0.7-1.5-1.5v-2.8c0-0.8,0.7-1.5,1.5-1.5c0.8,0,1.5,0.7,1.5,1.5v2.8
			C34.7,84.1,34,84.8,33.2,84.8z"/>
	</g>
	<g>
		<path class="st1" d="M33.2,150.8c-0.8,0-1.5-0.7-1.5-1.5v-5.9c0-0.8,0.7-1.5,1.5-1.5c0.8,0,1.5,0.7,1.5,1.5v5.9
			C34.7,150.1,34,150.8,33.2,150.8z M33.2,134.2c-0.8,0-1.5-0.7-1.5-1.5v-5.9c0-0.8,0.7-1.5,1.5-1.5c0.8,0,1.5,0.7,1.5,1.5v5.9
			C34.7,133.6,34,134.2,33.2,134.2z M33.2,117.7c-0.8,0-1.5-0.7-1.5-1.5v-5.9c0-0.8,0.7-1.5,1.5-1.5c0.8,0,1.5,0.7,1.5,1.5v5.9
			C34.7,117,34,117.7,33.2,117.7z M33.2,101.1c-0.8,0-1.5-0.7-1.5-1.5v-5.9c0-0.8,0.7-1.5,1.5-1.5c0.8,0,1.5,0.7,1.5,1.5v5.9
			C34.7,100.4,34,101.1,33.2,101.1z"/>
	</g>
	<g>
		<path class="st1" d="M35.8,164.3h-2.6c-0.8,0-1.5-0.7-1.5-1.5v-2.6c0-0.8,0.7-1.5,1.5-1.5c0.8,0,1.5,0.7,1.5,1.5v1.1h1.1
			c0.8,0,1.5,0.7,1.5,1.5C37.3,163.6,36.6,164.3,35.8,164.3z"/>
	</g>
	<g>
		<path class="st1" d="M49.7,164.3h-5c-0.8,0-1.5-0.7-1.5-1.5c0-0.8,0.7-1.5,1.5-1.5h5c0.8,0,1.5,0.7,1.5,1.5
			C51.2,163.6,50.6,164.3,49.7,164.3z"/>
	</g>
	<g>
		<path class="st1" d="M61.3,164.3h-2.8c-0.8,0-1.5-0.7-1.5-1.5c0-0.8,0.7-1.5,1.5-1.5h2.8c0.8,0,1.5,0.7,1.5,1.5
			C62.8,163.6,62.1,164.3,61.3,164.3z"/>
	</g>
</g>
<g>
	<g>
		<path class="st1" d="M320.4,150.6c-0.8,0-1.5-0.7-1.5-1.5v-2.8c0-0.8,0.7-1.5,1.5-1.5c0.8,0,1.5,0.7,1.5,1.5v2.8
			C321.9,149.9,321.3,150.6,320.4,150.6z"/>
	</g>
	<g>
		<path class="st1" d="M320.4,164.3h-2.8c-0.8,0-1.5-0.7-1.5-1.5c0-0.8,0.7-1.5,1.5-1.5h1.3v-1.1c0-0.8,0.7-1.5,1.5-1.5
			c0.8,0,1.5,0.7,1.5,1.5v2.6C321.9,163.6,321.3,164.3,320.4,164.3z"/>
	</g>
	<g>
		<path class="st1" d="M309.9,164.3h-4.4c-0.8,0-1.5-0.7-1.5-1.5c0-0.8,0.7-1.5,1.5-1.5h4.4c0.8,0,1.5,0.7,1.5,1.5
			C311.5,163.6,310.8,164.3,309.9,164.3z M297.7,164.3h-4.4c-0.8,0-1.5-0.7-1.5-1.5c0-0.8,0.7-1.5,1.5-1.5h4.4
			c0.8,0,1.5,0.7,1.5,1.5C299.3,163.6,298.6,164.3,297.7,164.3z"/>
	</g>
	<g>
		<path class="st1" d="M285.5,164.3h-2.6c-0.8,0-1.5-0.7-1.5-1.5c0-0.8,0.7-1.5,1.5-1.5h2.6c0.8,0,1.5,0.7,1.5,1.5
			C287.1,163.6,286.4,164.3,285.5,164.3z"/>
	</g>
</g>
</svg>
