<?xml version="1.0" encoding="utf-8"?>
<!-- Generator: Adobe Illustrator 26.2.1, SVG Export Plug-In . SVG Version: 6.00 Build 0)  -->
<svg version="1.1" id="Layer_1" xmlns="http://www.w3.org/2000/svg" xmlns:xlink="http://www.w3.org/1999/xlink" x="0px" y="0px"
	 viewBox="0 0 93.2 89.5" style="enable-background:new 0 0 93.2 89.5;" xml:space="preserve">
<style type="text/css">
	.st0{fill:#FFFFFF;}
	.st1{fill:#AD823D;}
</style>
<g>
	<path class="st0" d="M8.4,67.3C4.3,60.8,1.9,53,1.9,44.8c0-23.6,19.2-42.8,42.8-42.8c11.2,0,21.4,4.3,29.1,11.4
		c0.4-0.6,0.7-1.1,1.1-1.6C67,4.5,56.4,0,44.8,0C20.1,0,0,20.1,0,44.8c0,8.9,2.6,17.2,7.1,24.1C7.5,68.4,7.9,67.9,8.4,67.3z"/>
	<path class="st0" d="M84.5,28.9c0.2-0.2,0.5-0.5,0.7-0.7l0.5-0.5l0.4-0.1c-0.7-1.8-1.6-3.5-2.6-5.1c-0.4,0.5-0.9,1-1.4,1.5
		C83,25.5,83.8,27.2,84.5,28.9z"/>
	<path class="st0" d="M87.1,38.6c0.3,2,0.5,4.1,0.5,6.2c0,23.6-19.2,42.8-42.8,42.8c-9.9,0-19-3.4-26.3-9c-0.4,0.6-0.8,1.1-1.1,1.6
		c7.6,5.9,17.1,9.4,27.4,9.4c24.7,0,44.8-20.1,44.8-44.8c0-2.6-0.2-5.2-0.7-7.7C88.3,37.6,87.8,38,87.1,38.6z"/>
</g>
<g>
	<g>
		<path class="st1" d="M37.5,28.2h0.6c2-0.7,3-1.9,3-3.4c0-1.3-0.8-2.2-2.5-2.5c-0.1,0-0.4,0-0.7,0.1c-2,0.7-3,1.8-3,3.4
			C35.1,27.1,35.9,27.9,37.5,28.2z"/>
	</g>
	<g>
		<path class="st1" d="M89.1,29l-0.7,0.2c-4.9,5.3-9.4,7.9-13.4,7.9c-2.1,0-4.1-0.7-6.2-2.2c0-0.1,0.5-1.2,1.6-3.3
			C85.6,17,93.2,7.6,93.2,3.5c0-1.6-0.9-2.5-2.8-2.8c-4.4,0-11.8,9.6-22.4,28.8c-5,4.7-9,7-12.2,7h-0.1c-2.3,0-4.1-1.3-5.3-4
			c-0.3-1.6-0.9-2.3-1.8-2.3c-0.5,0-0.8,0.2-1.1,0.5l0,0c-2.1,2.2-6.6,6.8-13.6,13.7h-0.1c2.8-7,4.1-11.1,4.1-12.4
			c0-0.8-0.5-1.3-1.6-1.5l-0.6,0.1c-1.2,1.1-2.3,2-3.4,2.8c-1.4,0.8-3,1.3-4.7,1.7c-1.9,0-2.9,0.5-2.9,1.6c0,0.8,0.5,1.3,1.6,1.6
			c1.9,0,4.3-0.7,7.2-2.2h0.1c-0.9,2.8-2.5,6.8-4.8,12.1c-1,2.2-1.8,3.5-2.5,3.9C10.1,69,2,79.4,2,83.5l0.1,1
			c0.6,1.6,1.6,2.3,3.1,2.3H6c2.9,0,7.6-5.1,14.1-15.4c4.1-6.9,7.3-13,9.9-18.4c0-0.2,5.4-5.6,16.1-16.4c0.8-0.8,1.5-1.5,2.1-2
			c1.7,3.4,4.3,5.1,7.6,5.1h0.1c2.6,0,5.5-1,8.6-3.1c-7.5,15.3-11.3,25.7-11.3,31.1V68c0,0.4,0,0.8,0.1,1.3c0.6,2.1,1.5,3.1,2.9,3.1
			h0.5c2.1,0,4.7-2.3,7.6-7c4.7-8.5,7-16,7-22.4c0-1.4-0.1-2.5-0.3-3.4c1.4,0.5,2.8,0.7,4.1,0.7c3.4,0,6.9-1.4,10.6-4.2
			c3.4-2.8,5.1-4.5,5.1-5.1v-0.5C90.7,29.7,90.1,29.2,89.1,29z M82.4,12c3.4-4.6,5.9-7.3,7.7-8.1c-0.7,2.9-5.4,8.8-13.9,17.7h-0.1
			C78.1,18.3,80.2,15.1,82.4,12z M14.5,74.4c-4.1,5.9-7,9.1-8.8,9.4H5.1c0-1.6,1.9-4.8,5.8-9.8l6.4-7.6c3.5-3.7,5.2-5.6,5.3-5.8h0.2
			C20,65.5,17.3,70.1,14.5,74.4z M62.9,61.3c-3,5.3-5.2,8-6.4,8c-0.2,0-0.3-0.4-0.3-1.2v-0.5c0-4.8,3.6-14.7,10.8-29.7h0.1
			c0.7,1.4,1,3,1,4.8C68.1,47.9,66.4,54.1,62.9,61.3z"/>
	</g>
</g>
</svg>
