<?xml version="1.0" encoding="utf-8"?>
<!-- Generator: Adobe Illustrator 26.3.1, SVG Export Plug-In . SVG Version: 6.00 Build 0)  -->
<svg version="1.1" id="Layer_1" xmlns="http://www.w3.org/2000/svg" xmlns:xlink="http://www.w3.org/1999/xlink" x="0px" y="0px"
	 viewBox="0 0 289.9 89.5" style="enable-background:new 0 0 289.9 89.5;" xml:space="preserve">
<style type="text/css">
	.st0{fill:#FFFFFF;}
</style>
<g>
	<path class="st0" d="M126.2,26v12.7c0,1.9-0.5,3.4-1.6,4.5c-1.1,1.1-2.5,1.6-4.4,1.6c-2,0-3.6-0.6-4.8-1.7c-1.2-1.1-1.8-2.8-1.8-5
		h4.4c0,1.7,0.7,2.6,2,2.6c1.1,0,1.7-0.7,1.7-2V26H126.2z"/>
	<path class="st0" d="M137.7,30.5c0.8,0.5,1.4,1.2,1.8,2.1v-2.7h4.5v14.7h-4.5v-2.7c-0.4,0.9-1,1.6-1.8,2.1
		c-0.8,0.5-1.8,0.8-2.9,0.8c-1.2,0-2.3-0.3-3.2-0.9c-1-0.6-1.7-1.5-2.3-2.6c-0.6-1.1-0.8-2.5-0.8-4c0-1.5,0.3-2.9,0.8-4
		c0.6-1.1,1.3-2,2.3-2.6c1-0.6,2-0.9,3.2-0.9C135.9,29.7,136.9,30,137.7,30.5z M133.9,34.6c-0.6,0.6-0.9,1.5-0.9,2.6
		c0,1.1,0.3,2,0.9,2.6c0.6,0.6,1.4,0.9,2.3,0.9c0.9,0,1.7-0.3,2.3-1c0.6-0.6,0.9-1.5,0.9-2.6c0-1.1-0.3-2-0.9-2.6
		c-0.6-0.6-1.4-1-2.3-1C135.2,33.7,134.5,34,133.9,34.6z"/>
	<path class="st0" d="M156.8,31.1c1.1,0.9,1.8,2.2,2.1,3.7h-4.2c-0.1-0.6-0.4-1.1-0.8-1.4c-0.4-0.3-1-0.5-1.6-0.5
		c-0.5,0-0.9,0.1-1.2,0.3c-0.3,0.2-0.4,0.5-0.4,0.9c0,0.5,0.2,0.8,0.7,1c0.5,0.2,1.2,0.5,2.3,0.7c1.1,0.3,2,0.5,2.8,0.8
		c0.7,0.3,1.3,0.7,1.9,1.3c0.5,0.6,0.8,1.4,0.8,2.5c0,0.8-0.2,1.6-0.7,2.2c-0.5,0.6-1.1,1.2-2,1.5c-0.9,0.4-1.9,0.6-3.1,0.6
		c-2,0-3.6-0.4-4.8-1.3c-1.2-0.9-1.9-2.1-2.2-3.8h4.3c0.1,0.6,0.3,1.1,0.8,1.4c0.5,0.3,1.1,0.5,1.8,0.5c0.5,0,0.9-0.1,1.2-0.4
		c0.3-0.2,0.4-0.5,0.4-0.9c0-0.5-0.2-0.9-0.7-1.1c-0.5-0.2-1.3-0.5-2.4-0.7c-1.1-0.2-2-0.5-2.7-0.7c-0.7-0.3-1.3-0.7-1.8-1.3
		s-0.8-1.4-0.8-2.4c0-1.3,0.5-2.4,1.5-3.2c1-0.8,2.4-1.2,4.2-1.2C154.2,29.7,155.7,30.2,156.8,31.1z"/>
	<path class="st0" d="M172.4,30.6c1.1,0.6,2.1,1.5,2.7,2.6c0.7,1.1,1,2.5,1,4s-0.3,2.9-1,4c-0.7,1.1-1.6,2-2.7,2.6
		c-1.1,0.6-2.5,0.9-3.9,0.9s-2.8-0.3-3.9-0.9c-1.2-0.6-2.1-1.5-2.7-2.6c-0.7-1.1-1-2.5-1-4s0.3-2.9,1-4c0.7-1.1,1.6-2,2.7-2.6
		c1.2-0.6,2.5-0.9,3.9-0.9S171.3,30,172.4,30.6z M166.3,34.5c-0.6,0.6-0.9,1.5-0.9,2.7s0.3,2.1,0.9,2.7c0.6,0.6,1.3,0.9,2.2,0.9
		c0.9,0,1.6-0.3,2.2-0.9c0.6-0.6,0.9-1.5,0.9-2.7s-0.3-2.1-0.9-2.7c-0.6-0.6-1.3-0.9-2.2-0.9C167.6,33.6,166.9,33.9,166.3,34.5z"/>
	<path class="st0" d="M191.8,31.4c1,1.1,1.5,2.7,1.5,4.6v8.5h-4.5v-8c0-1-0.3-1.8-0.8-2.3s-1.2-0.8-2.1-0.8c-0.9,0-1.6,0.3-2.2,0.9
		c-0.5,0.6-0.8,1.4-0.8,2.5v7.8h-4.5V29.9h4.5v2.7c0.4-0.9,1-1.6,1.9-2.1c0.8-0.5,1.8-0.8,2.9-0.8C189.4,29.7,190.8,30.3,191.8,31.4
		z"/>
	<path class="st0" d="M213.6,26v3.6H206v4.1h5.9V37H206v7.5h-4.5V26H213.6z"/>
	<path class="st0" d="M222.6,30.5c0.9-0.5,1.8-0.8,2.9-0.8v4.8h-1.3c-1.2,0-2.1,0.3-2.8,0.8s-1,1.4-1,2.6v6.7h-4.5V29.9h4.5v2.8
		C221,31.8,221.7,31,222.6,30.5z"/>
	<path class="st0" d="M241.2,38H231c0.1,1.1,0.3,1.9,0.8,2.4c0.5,0.5,1.2,0.7,1.9,0.7c0.7,0,1.2-0.2,1.7-0.5
		c0.4-0.3,0.7-0.8,0.9-1.3h4.8c-0.2,1-0.6,2-1.3,2.8c-0.6,0.8-1.5,1.5-2.5,1.9c-1,0.5-2.1,0.7-3.3,0.7c-1.4,0-2.7-0.3-3.8-0.9
		c-1.1-0.6-2-1.5-2.6-2.6c-0.6-1.1-0.9-2.5-0.9-4c0-1.5,0.3-2.9,0.9-4c0.6-1.1,1.5-2,2.6-2.6s2.4-0.9,3.8-0.9c1.5,0,2.7,0.3,3.8,0.9
		c1.1,0.6,2,1.4,2.6,2.5c0.6,1.1,0.9,2.3,0.9,3.7C241.3,37.2,241.3,37.6,241.2,38z M236,34c-0.5-0.5-1.2-0.7-2-0.7
		c-0.8,0-1.5,0.2-2.1,0.7c-0.5,0.5-0.9,1.2-0.9,2.2h5.7C236.8,35.2,236.5,34.5,236,34z"/>
	<path class="st0" d="M248.2,25.1v19.5h-4.5V25.1H248.2z"/>
	<path class="st0" d="M251.6,24.1c0.5-0.4,1.1-0.7,1.9-0.7s1.5,0.2,1.9,0.7s0.7,1,0.7,1.7c0,0.7-0.2,1.2-0.7,1.7s-1.1,0.7-1.9,0.7
		s-1.5-0.2-1.9-0.7c-0.5-0.4-0.7-1-0.7-1.7C250.9,25.1,251.1,24.5,251.6,24.1z M255.8,29.9v14.7h-4.5V29.9H255.8z"/>
	<path class="st0" d="M270.3,31.3c1.3,1,2.1,2.5,2.4,4.3h-4.8c-0.1-0.6-0.4-1.1-0.9-1.5s-1-0.5-1.7-0.5c-0.8,0-1.4,0.3-1.9,0.9
		c-0.5,0.6-0.8,1.5-0.8,2.7c0,1.2,0.3,2.1,0.8,2.7c0.5,0.6,1.2,0.9,1.9,0.9c0.7,0,1.2-0.2,1.7-0.5c0.4-0.4,0.7-0.8,0.9-1.5h4.8
		c-0.3,1.8-1.1,3.3-2.4,4.3c-1.3,1-2.9,1.6-4.8,1.6c-1.4,0-2.7-0.3-3.8-0.9c-1.1-0.6-2-1.5-2.6-2.6c-0.6-1.1-0.9-2.5-0.9-4
		c0-1.5,0.3-2.9,0.9-4c0.6-1.1,1.5-2,2.6-2.6s2.4-0.9,3.8-0.9C267.4,29.7,269,30.2,270.3,31.3z"/>
	<path class="st0" d="M288.4,31.4c1,1.1,1.5,2.7,1.5,4.6v8.5h-4.5v-8c0-1-0.3-1.8-0.8-2.3s-1.2-0.8-2.1-0.8c-0.9,0-1.6,0.3-2.2,0.9
		c-0.5,0.6-0.8,1.4-0.8,2.5v7.8H275V25.1h4.5v7.5c0.4-0.9,1-1.6,1.9-2.1c0.8-0.5,1.8-0.8,2.9-0.8C286,29.7,287.4,30.3,288.4,31.4z"
		/>
</g>
<g>
	<path class="st0" d="M8.4,67.3C4.3,60.8,1.9,53,1.9,44.8c0-23.6,19.2-42.8,42.8-42.8c11.2,0,21.4,4.3,29.1,11.4
		c0.4-0.6,0.7-1.1,1.1-1.6C67,4.5,56.4,0,44.8,0C20.1,0,0,20.1,0,44.8c0,8.9,2.6,17.2,7.1,24.1C7.5,68.4,7.9,67.9,8.4,67.3z"/>
	<path class="st0" d="M84.5,28.9c0.2-0.2,0.5-0.5,0.7-0.7l0.5-0.5l0.4-0.1c-0.7-1.8-1.6-3.5-2.6-5.1c-0.4,0.5-0.9,1-1.4,1.5
		C83,25.5,83.8,27.2,84.5,28.9z"/>
	<path class="st0" d="M87.1,38.6c0.3,2,0.5,4.1,0.5,6.2c0,23.6-19.2,42.8-42.8,42.8c-9.9,0-19-3.4-26.3-9c-0.4,0.6-0.8,1.1-1.1,1.6
		c7.6,5.9,17.1,9.4,27.4,9.4c24.7,0,44.8-20.1,44.8-44.8c0-2.6-0.2-5.2-0.7-7.7C88.3,37.6,87.8,38,87.1,38.6z"/>
</g>
<g>
	<g>
		<path class="st0" d="M37.5,28.2h0.6c2-0.7,3-1.9,3-3.4c0-1.3-0.8-2.2-2.5-2.5c-0.1,0-0.4,0-0.7,0.1c-2,0.7-3,1.8-3,3.4
			C35.1,27.1,35.9,27.9,37.5,28.2z"/>
	</g>
	<g>
		<path class="st0" d="M89.1,29l-0.7,0.2c-4.9,5.3-9.4,7.9-13.4,7.9c-2.1,0-4.1-0.7-6.2-2.2c0-0.1,0.5-1.2,1.6-3.3
			C85.6,17,93.2,7.6,93.2,3.5c0-1.6-0.9-2.5-2.8-2.8c-4.4,0-11.8,9.6-22.4,28.8c-5,4.7-9,7-12.2,7h-0.1c-2.3,0-4.1-1.3-5.3-4
			c-0.3-1.6-0.9-2.3-1.8-2.3c-0.5,0-0.8,0.2-1.1,0.5l0,0c-2.1,2.2-6.6,6.8-13.6,13.7h-0.1c2.8-7,4.1-11.1,4.1-12.4
			c0-0.8-0.5-1.3-1.6-1.5l-0.6,0.1c-1.2,1.1-2.3,2-3.4,2.8c-1.4,0.8-3,1.3-4.7,1.7c-1.9,0-2.9,0.5-2.9,1.6c0,0.8,0.5,1.3,1.6,1.6
			c1.9,0,4.3-0.7,7.2-2.2h0.1c-0.9,2.8-2.5,6.8-4.8,12.1c-1,2.2-1.8,3.5-2.5,3.9C10.1,69,2,79.4,2,83.5l0.1,1
			c0.6,1.6,1.6,2.3,3.1,2.3H6c2.9,0,7.6-5.1,14.1-15.4c4.1-6.9,7.3-13,9.9-18.4c0-0.2,5.4-5.6,16.1-16.4c0.8-0.8,1.5-1.5,2.1-2
			c1.7,3.4,4.3,5.1,7.6,5.1h0.1c2.6,0,5.5-1,8.6-3.1c-7.5,15.3-11.3,25.7-11.3,31.1V68c0,0.4,0,0.8,0.1,1.3c0.6,2.1,1.5,3.1,2.9,3.1
			h0.5c2.1,0,4.7-2.3,7.6-7c4.7-8.5,7-16,7-22.4c0-1.4-0.1-2.5-0.3-3.4c1.4,0.5,2.8,0.7,4.1,0.7c3.4,0,6.9-1.4,10.6-4.2
			c3.4-2.8,5.1-4.5,5.1-5.1v-0.5C90.7,29.7,90.1,29.2,89.1,29z M82.4,12c3.4-4.6,5.9-7.3,7.7-8.1c-0.7,2.9-5.4,8.8-13.9,17.7h-0.1
			C78.1,18.3,80.2,15.1,82.4,12z M14.5,74.4c-4.1,5.9-7,9.1-8.8,9.4H5.1c0-1.6,1.9-4.8,5.8-9.8l6.4-7.6c3.5-3.7,5.2-5.6,5.3-5.8h0.2
			C20,65.5,17.3,70.1,14.5,74.4z M62.9,61.3c-3,5.3-5.2,8-6.4,8c-0.2,0-0.3-0.4-0.3-1.2v-0.5c0-4.8,3.6-14.7,10.8-29.7h0.1
			c0.7,1.4,1,3,1,4.8C68.1,47.9,66.4,54.1,62.9,61.3z"/>
	</g>
</g>
<g>
	<path class="st0" d="M115.1,54v3.7c0,0.4,0.1,0.7,0.3,1c0.2,0.2,0.5,0.3,0.8,0.3c0.4,0,0.6-0.1,0.8-0.3c0.2-0.2,0.3-0.5,0.3-1V54
		h1.5v3.7c0,0.6-0.1,1.1-0.4,1.5c-0.2,0.4-0.6,0.7-1,0.9c-0.4,0.2-0.9,0.3-1.4,0.3c-0.5,0-1-0.1-1.3-0.3c-0.4-0.2-0.7-0.5-0.9-0.9
		c-0.2-0.4-0.3-0.9-0.3-1.5V54H115.1z"/>
	<path class="st0" d="M125.6,60.3l-1.3-2l-1.1,2h-1.8l2-3.3l-2.1-3.1h1.8l1.3,1.9l1.1-1.9h1.7l-2,3.2l2.1,3.1H125.6z"/>
	<path class="st0" d="M133.1,51.8L130.7,62h-1.5l2.4-10.2H133.1z"/>
	<path class="st0" d="M136.7,54v3.7c0,0.4,0.1,0.7,0.3,1c0.2,0.2,0.5,0.3,0.8,0.3c0.4,0,0.6-0.1,0.8-0.3c0.2-0.2,0.3-0.5,0.3-1V54
		h1.5v3.7c0,0.6-0.1,1.1-0.4,1.5c-0.2,0.4-0.6,0.7-1,0.9c-0.4,0.2-0.9,0.3-1.4,0.3s-1-0.1-1.3-0.3c-0.4-0.2-0.7-0.5-0.9-0.9
		c-0.2-0.4-0.3-0.9-0.3-1.5V54H136.7z"/>
	<path class="st0" d="M144.9,54v6.3h-1.5V54H144.9z"/>
	<path class="st0" d="M156.8,58.8c-0.3,0.5-0.6,0.9-1.1,1.1c-0.5,0.3-1.1,0.4-1.8,0.4h-2.4V54h2.4c0.7,0,1.3,0.1,1.8,0.4
		c0.5,0.3,0.9,0.6,1.1,1.1c0.3,0.5,0.4,1,0.4,1.6C157.2,57.8,157.1,58.3,156.8,58.8z M155.2,58.5c0.3-0.3,0.5-0.8,0.5-1.3
		c0-0.6-0.2-1-0.5-1.3c-0.3-0.3-0.8-0.5-1.4-0.5h-0.7V59h0.7C154.4,59,154.8,58.8,155.2,58.5z"/>
	<path class="st0" d="M161.5,55.2v1.3h2.1v1.2h-2.1v1.4h2.4v1.2H160V54h3.9v1.2H161.5z"/>
	<path class="st0" d="M171,59.5c-0.2,0.3-0.4,0.5-0.8,0.7c-0.3,0.2-0.7,0.3-1.2,0.3c-0.7,0-1.3-0.2-1.8-0.5
		c-0.5-0.3-0.7-0.8-0.8-1.5h1.6c0,0.2,0.1,0.4,0.3,0.6c0.1,0.1,0.3,0.2,0.6,0.2c0.2,0,0.4-0.1,0.5-0.2c0.1-0.1,0.2-0.3,0.2-0.4
		c0-0.2-0.1-0.3-0.2-0.4c-0.1-0.1-0.2-0.2-0.4-0.3c-0.2-0.1-0.4-0.2-0.6-0.2c-0.4-0.1-0.7-0.3-1-0.4c-0.3-0.1-0.5-0.3-0.7-0.6
		c-0.2-0.3-0.3-0.6-0.3-1c0-0.4,0.1-0.7,0.3-1s0.5-0.5,0.8-0.6c0.3-0.1,0.7-0.2,1.2-0.2c0.7,0,1.3,0.2,1.7,0.5
		c0.4,0.3,0.6,0.8,0.7,1.4h-1.7c0-0.2-0.1-0.4-0.2-0.5c-0.1-0.1-0.3-0.2-0.5-0.2c-0.2,0-0.3,0-0.4,0.1c-0.1,0.1-0.2,0.2-0.2,0.4
		c0,0.1,0,0.3,0.1,0.4c0.1,0.1,0.2,0.2,0.4,0.3c0.1,0.1,0.4,0.1,0.6,0.3c0.4,0.1,0.7,0.3,1,0.4c0.3,0.1,0.5,0.3,0.7,0.6
		c0.2,0.3,0.3,0.6,0.3,1C171.2,58.9,171.1,59.2,171,59.5z"/>
	<path class="st0" d="M175.5,54v6.3H174V54H175.5z"/>
	<path class="st0" d="M183.4,54.5c0.5,0.4,0.8,0.9,1,1.6h-1.6c-0.1-0.2-0.3-0.4-0.5-0.5c-0.2-0.1-0.5-0.2-0.8-0.2
		c-0.5,0-0.9,0.2-1.2,0.5c-0.3,0.3-0.4,0.8-0.4,1.3c0,0.6,0.2,1.1,0.5,1.4c0.3,0.3,0.7,0.5,1.3,0.5c0.4,0,0.7-0.1,1-0.3
		c0.3-0.2,0.5-0.5,0.6-0.9h-1.9v-1.1h3.2v1.5c-0.1,0.4-0.3,0.7-0.6,1c-0.3,0.3-0.6,0.6-1,0.8c-0.4,0.2-0.9,0.3-1.4,0.3
		c-0.6,0-1.2-0.1-1.7-0.4c-0.5-0.3-0.8-0.7-1.1-1.1c-0.3-0.5-0.4-1-0.4-1.7s0.1-1.2,0.4-1.7c0.3-0.5,0.6-0.9,1.1-1.1
		c0.5-0.3,1-0.4,1.7-0.4C182.2,53.9,182.8,54.1,183.4,54.5z"/>
	<path class="st0" d="M192.8,60.3h-1.5l-2.6-3.9v3.9h-1.5V54h1.5l2.6,3.9V54h1.5V60.3z"/>
	<path class="st0" d="M197.2,55.2v1.3h2.1v1.2h-2.1v1.4h2.4v1.2h-3.9V54h3.9v1.2H197.2z"/>
	<path class="st0" d="M205.7,60.3l-1.4-2.4h-0.3v2.4h-1.5V54h2.6c0.5,0,0.9,0.1,1.3,0.3c0.3,0.2,0.6,0.4,0.8,0.7
		c0.2,0.3,0.3,0.6,0.3,1c0,0.5-0.1,0.9-0.4,1.2c-0.3,0.3-0.6,0.5-1.1,0.7l1.5,2.5H205.7z M203.9,56.9h1c0.3,0,0.5-0.1,0.7-0.2
		c0.1-0.1,0.2-0.3,0.2-0.6c0-0.3-0.1-0.4-0.2-0.6c-0.1-0.1-0.4-0.2-0.7-0.2h-1V56.9z"/>
	<path class="st0" d="M217.8,60.3l-0.7-0.9c-0.1,0.1-0.1,0.2-0.2,0.2c-0.1,0.2-0.3,0.4-0.6,0.5c-0.3,0.1-0.5,0.2-0.9,0.2
		c-0.4,0-0.8-0.1-1.1-0.3c-0.3-0.2-0.5-0.4-0.7-0.7c-0.2-0.3-0.2-0.6-0.2-1c0-0.5,0.1-0.9,0.4-1.3c0.3-0.3,0.6-0.5,1.1-0.6l-0.1-0.2
		c-0.1-0.1-0.2-0.3-0.2-0.4c0-0.1-0.1-0.3-0.1-0.5c0-0.3,0.1-0.5,0.2-0.8c0.1-0.2,0.4-0.4,0.6-0.6s0.6-0.2,1-0.2
		c0.5,0,1,0.1,1.3,0.3c0.3,0.2,0.5,0.5,0.6,0.9c0.1,0.3,0.1,0.6,0.1,0.9h-1.4c0-0.1,0-0.2,0-0.3c0-0.3-0.2-0.5-0.5-0.5
		c-0.1,0-0.2,0-0.3,0.1c-0.1,0.1-0.1,0.2-0.1,0.3c0,0.1,0,0.2,0.1,0.3c0,0.1,0.1,0.2,0.2,0.3l3.1,4.1H217.8z M216,58.9
		c0.1-0.1,0.2-0.3,0.2-0.5c0-0.2-0.1-0.4-0.2-0.5c-0.1-0.1-0.3-0.2-0.5-0.2c-0.2,0-0.4,0.1-0.5,0.2s-0.2,0.3-0.2,0.5
		c0,0.2,0.1,0.4,0.2,0.5c0.1,0.1,0.3,0.2,0.5,0.2C215.7,59.1,215.8,59.1,216,58.9z"/>
	<path class="st0" d="M230.7,58.8c-0.3,0.5-0.6,0.9-1.1,1.1c-0.5,0.3-1.1,0.4-1.8,0.4h-2.4V54h2.4c0.7,0,1.3,0.1,1.8,0.4
		c0.5,0.3,0.9,0.6,1.1,1.1c0.3,0.5,0.4,1,0.4,1.6C231.1,57.8,231,58.3,230.7,58.8z M229.1,58.5c0.3-0.3,0.5-0.8,0.5-1.3
		c0-0.6-0.2-1-0.5-1.3c-0.3-0.3-0.8-0.5-1.4-0.5H227V59h0.7C228.3,59,228.8,58.8,229.1,58.5z"/>
	<path class="st0" d="M235.4,55.2v1.3h2.1v1.2h-2.1v1.4h2.4v1.2h-3.9V54h3.9v1.2H235.4z"/>
	<path class="st0" d="M241.8,54l1.6,4.8l1.6-4.8h1.6l-2.2,6.3h-2l-2.2-6.3H241.8z"/>
	<path class="st0" d="M250.5,55.2v1.3h2.1v1.2h-2.1v1.4h2.4v1.2H249V54h3.9v1.2H250.5z"/>
	<path class="st0" d="M257.2,59.2h2v1.2h-3.6V54h1.5V59.2z"/>
	<path class="st0" d="M266.5,54.3c0.5,0.3,0.9,0.7,1.2,1.2c0.3,0.5,0.4,1,0.4,1.7c0,0.6-0.1,1.2-0.4,1.7c-0.3,0.5-0.7,0.9-1.2,1.2
		c-0.5,0.3-1,0.4-1.6,0.4c-0.6,0-1.1-0.1-1.6-0.4c-0.5-0.3-0.9-0.7-1.2-1.2s-0.4-1.1-0.4-1.7c0-0.6,0.1-1.2,0.4-1.7
		c0.3-0.5,0.7-0.9,1.2-1.2c0.5-0.3,1-0.4,1.6-0.4C265.4,53.9,266,54,266.5,54.3z M263.7,55.8c-0.3,0.3-0.4,0.8-0.4,1.3
		c0,0.6,0.1,1,0.4,1.3c0.3,0.3,0.7,0.5,1.2,0.5c0.5,0,0.9-0.2,1.2-0.5s0.4-0.8,0.4-1.3c0-0.6-0.1-1-0.4-1.3
		c-0.3-0.3-0.7-0.5-1.2-0.5S263.9,55.5,263.7,55.8z"/>
	<path class="st0" d="M272.3,58.1v2.2h-1.5V54h2.5c0.8,0,1.3,0.2,1.7,0.6c0.4,0.4,0.6,0.9,0.6,1.5c0,0.4-0.1,0.7-0.3,1.1
		c-0.2,0.3-0.4,0.5-0.8,0.7c-0.3,0.2-0.8,0.3-1.3,0.3H272.3z M274,56.1c0-0.6-0.3-0.8-0.9-0.8h-0.8v1.6h0.8
		C273.7,56.9,274,56.6,274,56.1z"/>
	<path class="st0" d="M279.8,55.2v1.3h2.1v1.2h-2.1v1.4h2.4v1.2h-3.9V54h3.9v1.2H279.8z"/>
	<path class="st0" d="M288.2,60.3l-1.4-2.4h-0.3v2.4h-1.5V54h2.6c0.5,0,0.9,0.1,1.3,0.3c0.3,0.2,0.6,0.4,0.8,0.7
		c0.2,0.3,0.3,0.6,0.3,1c0,0.5-0.1,0.9-0.4,1.2c-0.3,0.3-0.6,0.5-1.1,0.7l1.5,2.5H288.2z M286.4,56.9h1c0.3,0,0.5-0.1,0.7-0.2
		c0.1-0.1,0.2-0.3,0.2-0.6c0-0.3-0.1-0.4-0.2-0.6c-0.1-0.1-0.4-0.2-0.7-0.2h-1V56.9z"/>
</g>
</svg>
