<?xml version="1.0" encoding="utf-8"?>
<!-- Generator: Adobe Illustrator 26.2.1, SVG Export Plug-In . SVG Version: 6.00 Build 0)  -->
<svg version="1.1" xmlns="http://www.w3.org/2000/svg" xmlns:xlink="http://www.w3.org/1999/xlink" x="0px" y="0px"
	 viewBox="0 0 267.3 74.3" style="enable-background:new 0 0 267.3 74.3;" xml:space="preserve">
<style type="text/css">
	.st0{fill:none;stroke:#000000;stroke-width:0.5836;}
	.st1{fill:#20A4A6;}
</style>
<g id="Layer_2">
</g>
<g id="Logo">
	<g>
		<g>
			<path d="M2.1,69.7c0-0.4,0-0.6,0-0.9c1.1,0,1.7-0.6,1.7-2.4c0-7.7,0-15.4,0-23.1c0-1.3-0.7-2-1.7-1.9c0-0.4,0-0.6,0-0.9
				c4.3-0.7,6.5-1,10.8-1.6c0,0.4,0,0.6,0,1c-1,0.1-1.7,0.8-1.7,2.6c0,7.9,0,15.8,0,23.7c0,1.8,0.5,2.5,1.7,2.5c0,0.4,0,0.6,0,1
				C8.7,69.7,6.5,69.7,2.1,69.7z"/>
			<path d="M31.9,69.6c-1.2-2.3-2.3-6.8-3-10c-0.5,0.1-1.3,0.1-2,0.2c-0.7,0-1.5,0-2,0c0,2.5,0,3.8,0,6.3c0,1.9,0.6,2.5,1.7,2.5
				c0,0.4,0,0.6,0,1c-4.3,0-6.5,0-10.9,0c0-0.4,0-0.6,0-1c1,0,1.7-0.6,1.7-2.5c0-8.2,0-16.5-0.1-24.7c0-1.3-0.6-2.2-1.7-2
				c0-0.4,0-0.6,0-1c1.9-0.4,6.3-1.1,10.4-1.8c7.1-1.2,15.7,1.1,15.4,10.1c-0.2,4.9-2.8,8.9-5.9,10.5c0.7,2.8,2.4,7.2,4.1,9.9
				c0.5,0.9,1,1.3,2.1,1.3c0,0.4,0,0.6,0,1.1C37.7,69.5,35.8,69.6,31.9,69.6z M27,43.3c-0.9,0.1-1.7,0.2-2.2,0.3c0,3.9,0,5.9,0,9.8
				c0.8,0,1.7,0,2.5,0c4.4-0.3,6.5-2,6.4-5.7C33.7,44.3,31.6,42.8,27,43.3z"/>
			<path d="M44,69.5c0-0.4,0-0.7,0-1.1c1.1,0,1.7-0.8,1.7-2.8c0-9.1-0.1-18.1-0.1-27.2c0-1.5-0.7-2.4-1.7-2.3c0-0.4,0-0.7,0-1.1
				c4.3-0.5,6.5-0.7,10.8-1.1c0,0.4,0,0.7,0,1.1c-1,0.1-1.7,0.8-1.7,2.9c0,9.2,0.1,18.3,0.1,27.5c0,2.1,0.6,2.9,1.7,2.9
				c0,0.4,0,0.7,0,1.1C50.5,69.5,48.3,69.5,44,69.5z"/>
			<path d="M68,70.6c-2.6,0-6.3-1.2-7.6-1.2c-0.7,0-1.3,0.2-1.5,0.4c-0.6-4.7-1-7-1.6-11.7c0.6-0.2,0.9-0.4,1.5-0.6
				c0.3,1,0.6,2.1,1.3,2.9c1.3,1.5,3,2.6,6.8,2.5c3.5-0.1,4.9-1.5,4.9-3.5c0-1.4-0.8-2.4-6.6-5.4c-4.9-2.5-7.3-5.5-7.4-10
				c-0.1-6.8,5.1-11.9,11.8-12.4c2-0.1,4.6,0.5,5.8,0.5c0.7-0.1,1.3-0.2,1.5-0.4c0.4,4.3,0.6,6.5,0.9,10.8c-0.5,0.2-0.7,0.2-1.2,0.4
				c-0.3-0.9-0.7-1.8-1.5-2.5c-1-0.8-2.3-1.3-5.1-1.1c-3.2,0.2-4.3,1.7-4.3,3.2c0,1.4,1.2,2.3,6,4.7c4.3,2.1,7.7,5.1,7.7,11.3
				C79.2,65.5,76,70.6,68,70.6z"/>
			<path d="M99.1,69.4c0-0.5,0-0.7,0-1.2c1.1,0,1.7-0.9,1.7-3.2c0-4.6,0-6.9,0-11.5c-3.9,0.1-5.9,0.1-9.9,0.2c0,4.6,0,6.8,0,11.4
				c0,2.2,0.6,3.2,1.7,3.2c0,0.5,0,0.7,0,1.2c-4.3,0-6.5,0-10.9,0c0-0.5,0-0.7,0-1.2c1.1,0,1.7-0.9,1.7-3.1c0-9.9-0.1-19.8-0.1-29.7
				c0-1.6-0.8-2.4-1.7-2.4c0-0.5,0-0.7,0-1.2c4.3-0.3,6.5-0.4,10.9-0.6c0,0.5,0,0.7,0,1.2c-1.1,0.1-1.7,0.9-1.7,3.2c0,4,0,5.9,0,9.9
				c3.9-0.1,5.9-0.2,9.9-0.3c0-4.3,0-6.4,0-10.6c0-1.7-0.6-2.5-1.7-2.5c0-0.5,0-0.7,0-1.2c4.3-0.2,6.5-0.3,10.8-0.4
				c0,0.5,0,0.7,0,1.2c-1.1,0-1.6,0.9-1.6,3.2c0,10,0,20,0.1,30c0,2.3,0.4,3.2,1.6,3.2c0,0.5,0,0.7,0,1.2
				C105.6,69.4,103.4,69.4,99.1,69.4z"/>
			<path d="M187,41c-0.6-1.4-1.1-2.1-2.2-2.1c-3.9-0.2-5.9-0.2-9.9-0.4c0,3.1,0,4.6,0,7.7c3.4,0.1,5.1,0.1,8.5,0.2
				c1,0,1.5-0.4,1.5-1.6c0.4,0,0.6,0,1,0c0,4.4,0,6.7,0,11.1c-0.4,0-0.6,0-0.9,0c0-1.1-0.6-1.7-1.5-1.7c-3.4-0.1-5.1-0.1-8.5-0.2
				c0,4.5,0,6.7,0,11.2c0,2,0.5,2.9,1.7,2.9c0,0.5,0,0.7,0,1.2c-4.3,0-6.5,0-10.9,0c0-0.5,0-0.7,0-1.2c1,0,1.7-0.8,1.7-2.9
				c0-10.3,0-20.5,0.1-30.8c0-1.7-0.7-2.8-1.7-2.8c0-0.5,0-0.7,0-1.2c7.4,0.2,11,0.4,18.4,0.7c0.9,0,1.9-0.1,2.3-0.3
				c0.6,3.9,0.9,5.9,1.5,9.8C187.6,40.8,187.4,40.9,187,41z"/>
			<path d="M210.7,70c-0.7-0.3-2-0.6-2.8-0.6c-7.2,0-10.8,0-18,0c0-0.5,0-0.7,0-1.2c1.1,0,1.7-1,1.7-2.8c0-10,0.1-19.9,0.1-29.9
				c0-1.6-0.7-2.9-1.7-2.9c0-0.5,0-0.7,0-1.1c7.3,0.4,11,0.7,18.3,1.2c0.6,0,2-0.1,2.4-0.2c0.6,3.8,0.9,5.6,1.4,9.4
				c-0.4,0.1-0.5,0.2-0.9,0.3c-0.7-1.6-1.2-2-2.6-2.1c-3.8-0.2-5.7-0.4-9.4-0.6c0,2.6,0,3.9,0,6.5c3.4,0.1,5.2,0.2,8.6,0.4
				c0.9,0,1.4-0.3,1.4-1.5c0.4,0,0.6,0,1,0.1c0,4.2,0,6.4,0,10.6c-0.4,0-0.6,0-1,0c0-1.1-0.5-1.5-1.4-1.6c-3.4-0.1-5.2-0.2-8.6-0.3
				c0,3.2,0,4.8,0,8c3.8,0.1,5.7,0.1,9.6,0.2c1.5,0,2-0.5,2.7-2.2c0.4,0.2,0.6,0.3,1,0.4C211.7,64.1,211.4,66.1,210.7,70z"/>
			<path d="M225.2,70.6c-2.6,0-6.3-1.2-7.6-1.2c-0.7,0-1.3,0.2-1.5,0.4c-0.6-4.7-0.9-7.1-1.5-11.9c0.6-0.2,0.9-0.3,1.5-0.5
				c0.3,1,0.6,2.1,1.3,3c1.2,1.6,3,2.7,6.8,2.7c3.5,0.1,4.9-1.2,4.9-3.1c0-1.3-0.8-2.3-6.6-5.6c-4.9-2.8-7.3-6.1-7.3-10.7
				c0-6.6,4.1-11.1,11.9-10.4c2,0.2,4.6,1.3,5.8,1.4c0.7,0.1,1.3,0,1.5-0.1c0.3,4,0.5,6.1,0.8,10.1c-0.5,0.1-0.7,0.1-1.2,0.2
				c-0.2-0.9-0.7-1.8-1.5-2.5c-1-0.9-2.2-1.5-5.1-1.8c-3.2-0.3-4.3,1.1-4.4,2.4c0,1.4,1.2,2.5,5.9,5.2c4.2,2.5,7.6,5.4,7.6,11.1
				C236.5,66,233.2,70.6,225.2,70.6z"/>
			<path d="M262.5,46.8c-0.3-1.2-1-2-1.9-2.1c-2.6-0.3-3.9-0.4-6.5-0.7c0,7.3,0,14.6-0.1,21.9c0,1.9,0.5,2.7,1.6,2.7
				c0,0.4,0,0.6,0,1c-4.3,0-6.5,0-10.8,0c0-0.4,0-0.6,0-1c1.1,0,1.7-0.8,1.7-2.8c0-7.5,0.1-15,0.1-22.5c-2.5-0.2-3.8-0.4-6.3-0.6
				c-0.9-0.1-1.6,0.6-2,1.9c-0.5-0.2-0.7-0.3-1.2-0.5c0.6-3.5,0.9-5.2,1.6-8.6c0.3,0.2,1,0.4,2.1,0.5c6.5,0.7,13,1.6,19.5,2.5
				c0.6,0.1,1.4,0.1,1.7,0c0.6,3.3,0.9,4.9,1.5,8.2C263.2,46.6,263,46.7,262.5,46.8z"/>
		</g>
		<g>
			<path class="st0" d="M3.4,70.9c0-0.4,0-0.6,0-0.9c1.1,0,1.7-0.6,1.7-2.4c0-7.7,0-15.4,0-23.1c0-1.3-0.7-2-1.7-1.9
				c0-0.4,0-0.6,0-0.9c4.3-0.7,6.5-1,10.8-1.6c0,0.4,0,0.6,0,1c-1,0.1-1.7,0.8-1.7,2.6c0,7.9,0,15.8,0,23.7c0,1.8,0.5,2.5,1.7,2.5
				c0,0.4,0,0.6,0,1C9.9,70.9,7.7,70.9,3.4,70.9z"/>
			<path class="st0" d="M33.2,70.8c-1.2-2.3-2.3-6.8-3-10c-0.5,0.1-1.3,0.1-2,0.2c-0.7,0-1.5,0-2,0c0,2.5,0,3.8,0,6.3
				c0,1.9,0.6,2.5,1.7,2.5c0,0.4,0,0.6,0,1c-4.3,0-6.5,0-10.9,0c0-0.4,0-0.6,0-1c1,0,1.7-0.6,1.7-2.5c0-8.2,0-16.5-0.1-24.7
				c0-1.3-0.6-2.2-1.7-2c0-0.4,0-0.6,0-1c1.9-0.4,6.3-1.1,10.4-1.8C34.3,36.8,43,39.1,42.6,48c-0.2,4.9-2.8,8.9-5.9,10.5
				c0.7,2.8,2.4,7.2,4.1,9.9c0.5,0.9,1,1.3,2.1,1.3c0,0.4,0,0.6,0,1.1C39,70.8,37.1,70.8,33.2,70.8z M28.3,44.5
				c-0.9,0.1-1.7,0.2-2.2,0.3c0,3.9,0,5.9,0,9.8c0.8,0,1.7,0,2.5,0c4.4-0.3,6.5-2,6.4-5.7C34.9,45.5,32.9,44.1,28.3,44.5z"/>
			<path class="st0" d="M45.2,70.8c0-0.4,0-0.7,0-1.1c1.1,0,1.7-0.8,1.7-2.8c0-9.1-0.1-18.1-0.1-27.2c0-1.5-0.7-2.4-1.7-2.3
				c0-0.4,0-0.7,0-1.1c4.3-0.5,6.5-0.7,10.8-1.1c0,0.4,0,0.7,0,1.1c-1,0.1-1.7,0.8-1.7,2.9c0,9.2,0.1,18.3,0.1,27.5
				c0,2.1,0.6,2.9,1.7,2.9c0,0.4,0,0.7,0,1.1C51.7,70.8,49.6,70.8,45.2,70.8z"/>
			<path class="st0" d="M69.3,71.8c-2.6,0-6.3-1.2-7.6-1.2c-0.7,0-1.3,0.2-1.5,0.4c-0.6-4.7-1-7-1.6-11.7c0.6-0.2,0.9-0.4,1.5-0.6
				c0.3,1,0.6,2.1,1.3,2.9c1.3,1.5,3,2.6,6.8,2.5c3.5-0.1,4.9-1.5,4.9-3.5c0-1.4-0.8-2.4-6.6-5.4c-4.9-2.5-7.3-5.5-7.4-10
				c-0.1-6.8,5.1-11.9,11.8-12.4c2-0.1,4.6,0.5,5.8,0.5c0.7-0.1,1.3-0.2,1.5-0.4c0.4,4.3,0.6,6.5,0.9,10.8c-0.5,0.2-0.7,0.2-1.2,0.4
				c-0.3-0.9-0.7-1.8-1.5-2.5c-1-0.8-2.3-1.3-5.1-1.1c-3.2,0.2-4.3,1.7-4.3,3.2c0,1.4,1.2,2.3,6,4.7c4.3,2.1,7.7,5.1,7.7,11.3
				C80.5,66.8,77.3,71.8,69.3,71.8z"/>
			<path class="st0" d="M100.3,70.7c0-0.5,0-0.7,0-1.2c1.1,0,1.7-0.9,1.7-3.2c0-4.6,0-6.9,0-11.5c-3.9,0.1-5.9,0.1-9.9,0.2
				c0,4.6,0,6.8,0,11.4c0,2.2,0.6,3.2,1.7,3.2c0,0.5,0,0.7,0,1.2c-4.3,0-6.5,0-10.9,0c0-0.5,0-0.7,0-1.2c1.1,0,1.7-0.9,1.7-3.1
				c0-9.9-0.1-19.8-0.1-29.7c0-1.6-0.8-2.4-1.7-2.4c0-0.5,0-0.7,0-1.2c4.3-0.3,6.5-0.4,10.9-0.6c0,0.5,0,0.7,0,1.2
				c-1.1,0.1-1.7,0.9-1.7,3.2c0,4,0,5.9,0,9.9c3.9-0.1,5.9-0.2,9.9-0.3c0-4.3,0-6.4,0-10.6c0-1.7-0.6-2.5-1.7-2.5c0-0.5,0-0.7,0-1.2
				c4.3-0.2,6.5-0.3,10.8-0.4c0,0.5,0,0.7,0,1.2c-1.1,0-1.6,0.9-1.6,3.2c0,10,0,20,0.1,30c0,2.3,0.4,3.2,1.6,3.2c0,0.5,0,0.7,0,1.2
				C106.8,70.7,104.7,70.7,100.3,70.7z"/>
			<g>
				<path class="st0" d="M185.8,42.3c-0.6-1.4-1.1-2.1-2.2-2.1c-3.9-0.2-5.9-0.2-9.9-0.4c0,3.1,0,4.6,0,7.7c3.4,0.1,5.1,0.1,8.5,0.2
					c1,0,1.5-0.4,1.5-1.6c0.4,0,0.6,0,1,0c0,4.4,0,6.7,0,11.1c-0.4,0-0.6,0-0.9,0c0-1.1-0.6-1.7-1.5-1.7c-3.4-0.1-5.1-0.1-8.5-0.2
					c0,4.5,0,6.7,0,11.2c0,2,0.5,2.9,1.7,2.9c0,0.5,0,0.7,0,1.2c-4.3,0-6.5,0-10.9,0c0-0.5,0-0.7,0-1.2c1,0,1.7-0.8,1.7-2.9
					c0-10.3,0-20.5,0.1-30.8c0-1.7-0.7-2.8-1.7-2.8c0-0.5,0-0.7,0-1.2c7.4,0.2,11,0.4,18.4,0.7c0.9,0,1.9-0.1,2.3-0.3
					c0.6,3.9,0.9,5.9,1.5,9.8C186.3,42.1,186.2,42.1,185.8,42.3z"/>
				<path class="st0" d="M209.5,71.3c-0.7-0.3-2-0.6-2.8-0.6c-7.2,0-10.8,0-18,0c0-0.5,0-0.7,0-1.2c1.1,0,1.7-1,1.7-2.8
					c0-10,0.1-19.9,0.1-29.9c0-1.6-0.7-2.9-1.7-2.9c0-0.5,0-0.7,0-1.1c7.3,0.4,11,0.7,18.3,1.2c0.6,0,2-0.1,2.4-0.2
					c0.6,3.8,0.9,5.6,1.4,9.4c-0.4,0.1-0.5,0.2-0.9,0.3c-0.7-1.6-1.2-2-2.6-2.1c-3.8-0.2-5.7-0.4-9.4-0.6c0,2.6,0,3.9,0,6.5
					c3.4,0.1,5.2,0.2,8.6,0.4c0.9,0,1.4-0.3,1.4-1.5c0.4,0,0.6,0,1,0.1c0,4.2,0,6.4,0,10.6c-0.4,0-0.6,0-1,0c0-1.1-0.5-1.5-1.4-1.6
					c-3.4-0.1-5.2-0.2-8.6-0.3c0,3.2,0,4.8,0,8c3.8,0.1,5.7,0.1,9.6,0.2c1.5,0,2-0.5,2.7-2.2c0.4,0.2,0.6,0.3,1,0.4
					C210.5,65.3,210.2,67.3,209.5,71.3z"/>
				<path class="st0" d="M224,71.8c-2.6,0-6.3-1.2-7.6-1.2c-0.7,0-1.3,0.2-1.5,0.4c-0.6-4.7-0.9-7.1-1.5-11.9
					c0.6-0.2,0.9-0.3,1.5-0.5c0.3,1,0.6,2.1,1.3,3c1.2,1.6,3,2.7,6.8,2.7c3.5,0.1,4.9-1.2,4.9-3.1c0-1.3-0.8-2.3-6.6-5.6
					c-4.9-2.8-7.3-6.1-7.3-10.7c0-6.6,4.1-11.1,11.9-10.4c2,0.2,4.6,1.3,5.8,1.4c0.7,0.1,1.3,0,1.5-0.1c0.3,4,0.5,6.1,0.8,10.1
					c-0.5,0.1-0.7,0.1-1.2,0.2c-0.2-0.9-0.7-1.8-1.5-2.5c-1-0.9-2.2-1.5-5.1-1.8c-3.2-0.3-4.3,1.1-4.4,2.4c0,1.4,1.2,2.5,5.9,5.2
					c4.2,2.5,7.6,5.4,7.6,11.1C235.2,67.2,232,71.8,224,71.8z"/>
				<path class="st0" d="M261.3,48c-0.3-1.2-1-2-1.9-2.1c-2.6-0.3-3.9-0.4-6.5-0.7c0,7.3,0,14.6-0.1,21.9c0,1.9,0.5,2.7,1.6,2.7
					c0,0.4,0,0.6,0,1c-4.3,0-6.5,0-10.8,0c0-0.4,0-0.6,0-1c1.1,0,1.7-0.8,1.7-2.8c0-7.5,0.1-15,0.1-22.5c-2.5-0.2-3.8-0.4-6.3-0.6
					c-0.9-0.1-1.6,0.6-2,1.9c-0.5-0.2-0.7-0.3-1.2-0.5c0.6-3.5,0.9-5.2,1.6-8.6c0.3,0.2,1,0.4,2.1,0.5c6.5,0.7,13,1.6,19.5,2.5
					c0.6,0.1,1.4,0.1,1.7,0c0.6,3.3,0.9,4.9,1.5,8.2C262,47.9,261.8,47.9,261.3,48z"/>
			</g>
		</g>
		<g>
			<path d="M2.1,69.7c0-0.4,0-0.6,0-0.9c1.1,0,1.7-0.6,1.7-2.4c0-7.7,0-15.4,0-23.1c0-1.3-0.7-2-1.7-1.9c0-0.4,0-0.6,0-0.9
				c4.3-0.7,6.5-1,10.8-1.6c0,0.4,0,0.6,0,1c-1,0.1-1.7,0.8-1.7,2.6c0,7.9,0,15.8,0,23.7c0,1.8,0.5,2.5,1.7,2.5c0,0.4,0,0.6,0,1
				C8.7,69.7,6.5,69.7,2.1,69.7z"/>
			<path d="M31.9,69.6c-1.2-2.3-2.3-6.8-3-10c-0.5,0.1-1.3,0.1-2,0.2c-0.7,0-1.5,0-2,0c0,2.5,0,3.8,0,6.3c0,1.9,0.6,2.5,1.7,2.5
				c0,0.4,0,0.6,0,1c-4.3,0-6.5,0-10.9,0c0-0.4,0-0.6,0-1c1,0,1.7-0.6,1.7-2.5c0-8.2,0-16.5-0.1-24.7c0-1.3-0.6-2.2-1.7-2
				c0-0.4,0-0.6,0-1c1.9-0.4,6.3-1.1,10.4-1.8c7.1-1.2,15.7,1.1,15.4,10.1c-0.2,4.9-2.8,8.9-5.9,10.5c0.7,2.8,2.4,7.2,4.1,9.9
				c0.5,0.9,1,1.3,2.1,1.3c0,0.4,0,0.6,0,1.1C37.7,69.5,35.8,69.6,31.9,69.6z M27,43.3c-0.9,0.1-1.7,0.2-2.2,0.3c0,3.9,0,5.9,0,9.8
				c0.8,0,1.7,0,2.5,0c4.4-0.3,6.5-2,6.4-5.7C33.7,44.3,31.6,42.8,27,43.3z"/>
			<path d="M44,69.5c0-0.4,0-0.7,0-1.1c1.1,0,1.7-0.8,1.7-2.8c0-9.1-0.1-18.1-0.1-27.2c0-1.5-0.7-2.4-1.7-2.3c0-0.4,0-0.7,0-1.1
				c4.3-0.5,6.5-0.7,10.8-1.1c0,0.4,0,0.7,0,1.1c-1,0.1-1.7,0.8-1.7,2.9c0,9.2,0.1,18.3,0.1,27.5c0,2.1,0.6,2.9,1.7,2.9
				c0,0.4,0,0.7,0,1.1C50.5,69.5,48.3,69.5,44,69.5z"/>
			<path d="M68,70.6c-2.6,0-6.3-1.2-7.6-1.2c-0.7,0-1.3,0.2-1.5,0.4c-0.6-4.7-1-7-1.6-11.7c0.6-0.2,0.9-0.4,1.5-0.6
				c0.3,1,0.6,2.1,1.3,2.9c1.3,1.5,3,2.6,6.8,2.5c3.5-0.1,4.9-1.5,4.9-3.5c0-1.4-0.8-2.4-6.6-5.4c-4.9-2.5-7.3-5.5-7.4-10
				c-0.1-6.8,5.1-11.9,11.8-12.4c2-0.1,4.6,0.5,5.8,0.5c0.7-0.1,1.3-0.2,1.5-0.4c0.4,4.3,0.6,6.5,0.9,10.8c-0.5,0.2-0.7,0.2-1.2,0.4
				c-0.3-0.9-0.7-1.8-1.5-2.5c-1-0.8-2.3-1.3-5.1-1.1c-3.2,0.2-4.3,1.7-4.3,3.2c0,1.4,1.2,2.3,6,4.7c4.3,2.1,7.7,5.1,7.7,11.3
				C79.2,65.5,76,70.6,68,70.6z"/>
			<path d="M99.1,69.4c0-0.5,0-0.7,0-1.2c1.1,0,1.7-0.9,1.7-3.2c0-4.6,0-6.9,0-11.5c-3.9,0.1-5.9,0.1-9.9,0.2c0,4.6,0,6.8,0,11.4
				c0,2.2,0.6,3.2,1.7,3.2c0,0.5,0,0.7,0,1.2c-4.3,0-6.5,0-10.9,0c0-0.5,0-0.7,0-1.2c1.1,0,1.7-0.9,1.7-3.1c0-9.9-0.1-19.8-0.1-29.7
				c0-1.6-0.8-2.4-1.7-2.4c0-0.5,0-0.7,0-1.2c4.3-0.3,6.5-0.4,10.9-0.6c0,0.5,0,0.7,0,1.2c-1.1,0.1-1.7,0.9-1.7,3.2c0,4,0,5.9,0,9.9
				c3.9-0.1,5.9-0.2,9.9-0.3c0-4.3,0-6.4,0-10.6c0-1.7-0.6-2.5-1.7-2.5c0-0.5,0-0.7,0-1.2c4.3-0.2,6.5-0.3,10.8-0.4
				c0,0.5,0,0.7,0,1.2c-1.1,0-1.6,0.9-1.6,3.2c0,10,0,20,0.1,30c0,2.3,0.4,3.2,1.6,3.2c0,0.5,0,0.7,0,1.2
				C105.6,69.4,103.4,69.4,99.1,69.4z"/>
			<path d="M187,41c-0.6-1.4-1.1-2.1-2.2-2.1c-3.9-0.2-5.9-0.2-9.9-0.4c0,3.1,0,4.6,0,7.7c3.4,0.1,5.1,0.1,8.5,0.2
				c1,0,1.5-0.4,1.5-1.6c0.4,0,0.6,0,1,0c0,4.4,0,6.7,0,11.1c-0.4,0-0.6,0-0.9,0c0-1.1-0.6-1.7-1.5-1.7c-3.4-0.1-5.1-0.1-8.5-0.2
				c0,4.5,0,6.7,0,11.2c0,2,0.5,2.9,1.7,2.9c0,0.5,0,0.7,0,1.2c-4.3,0-6.5,0-10.9,0c0-0.5,0-0.7,0-1.2c1,0,1.7-0.8,1.7-2.9
				c0-10.3,0-20.5,0.1-30.8c0-1.7-0.7-2.8-1.7-2.8c0-0.5,0-0.7,0-1.2c7.4,0.2,11,0.4,18.4,0.7c0.9,0,1.9-0.1,2.3-0.3
				c0.6,3.9,0.9,5.9,1.5,9.8C187.6,40.8,187.4,40.9,187,41z"/>
			<path d="M210.7,70c-0.7-0.3-2-0.6-2.8-0.6c-7.2,0-10.8,0-18,0c0-0.5,0-0.7,0-1.2c1.1,0,1.7-1,1.7-2.8c0-10,0.1-19.9,0.1-29.9
				c0-1.6-0.7-2.9-1.7-2.9c0-0.5,0-0.7,0-1.1c7.3,0.4,11,0.7,18.3,1.2c0.6,0,2-0.1,2.4-0.2c0.6,3.8,0.9,5.6,1.4,9.4
				c-0.4,0.1-0.5,0.2-0.9,0.3c-0.7-1.6-1.2-2-2.6-2.1c-3.8-0.2-5.7-0.4-9.4-0.6c0,2.6,0,3.9,0,6.5c3.4,0.1,5.2,0.2,8.6,0.4
				c0.9,0,1.4-0.3,1.4-1.5c0.4,0,0.6,0,1,0.1c0,4.2,0,6.4,0,10.6c-0.4,0-0.6,0-1,0c0-1.1-0.5-1.5-1.4-1.6c-3.4-0.1-5.2-0.2-8.6-0.3
				c0,3.2,0,4.8,0,8c3.8,0.1,5.7,0.1,9.6,0.2c1.5,0,2-0.5,2.7-2.2c0.4,0.2,0.6,0.3,1,0.4C211.7,64.1,211.4,66.1,210.7,70z"/>
			<path d="M225.2,70.6c-2.6,0-6.3-1.2-7.6-1.2c-0.7,0-1.3,0.2-1.5,0.4c-0.6-4.7-0.9-7.1-1.5-11.9c0.6-0.2,0.9-0.3,1.5-0.5
				c0.3,1,0.6,2.1,1.3,3c1.2,1.6,3,2.7,6.8,2.7c3.5,0.1,4.9-1.2,4.9-3.1c0-1.3-0.8-2.3-6.6-5.6c-4.9-2.8-7.3-6.1-7.3-10.7
				c0-6.6,4.1-11.1,11.9-10.4c2,0.2,4.6,1.3,5.8,1.4c0.7,0.1,1.3,0,1.5-0.1c0.3,4,0.5,6.1,0.8,10.1c-0.5,0.1-0.7,0.1-1.2,0.2
				c-0.2-0.9-0.7-1.8-1.5-2.5c-1-0.9-2.2-1.5-5.1-1.8c-3.2-0.3-4.3,1.1-4.4,2.4c0,1.4,1.2,2.5,5.9,5.2c4.2,2.5,7.6,5.4,7.6,11.1
				C236.5,66,233.2,70.6,225.2,70.6z"/>
			<path d="M262.5,46.8c-0.3-1.2-1-2-1.9-2.1c-2.6-0.3-3.9-0.4-6.5-0.7c0,7.3,0,14.6-0.1,21.9c0,1.9,0.5,2.7,1.6,2.7
				c0,0.4,0,0.6,0,1c-4.3,0-6.5,0-10.8,0c0-0.4,0-0.6,0-1c1.1,0,1.7-0.8,1.7-2.8c0-7.5,0.1-15,0.1-22.5c-2.5-0.2-3.8-0.4-6.3-0.6
				c-0.9-0.1-1.6,0.6-2,1.9c-0.5-0.2-0.7-0.3-1.2-0.5c0.6-3.5,0.9-5.2,1.6-8.6c0.3,0.2,1,0.4,2.1,0.5c6.5,0.7,13,1.6,19.5,2.5
				c0.6,0.1,1.4,0.1,1.7,0c0.6,3.3,0.9,4.9,1.5,8.2C263.2,46.6,263,46.7,262.5,46.8z"/>
		</g>
	</g>
	<g>
		<path class="st1" d="M30.3,24.5h-3.8l2.9,5.8c1.2-0.1,2.4-0.3,3.5-0.4L30.3,24.5z"/>
		<path class="st1" d="M35.3,24.5h-3.8l2.6,5.2c1.2-0.1,2.4-0.3,3.6-0.4L35.3,24.5z"/>
		<path class="st1" d="M50.5,24.5h-3.8l1.9,3.7c1.2-0.1,2.4-0.2,3.6-0.3L50.5,24.5z"/>
		<path class="st1" d="M45.4,24.5h-3.8l2.1,4.2c1.2-0.1,2.4-0.2,3.6-0.4L45.4,24.5z"/>
		<path class="st1" d="M55.6,24.5h-3.8l1.7,3.3c1.2-0.1,2.4-0.2,3.6-0.3L55.6,24.5z"/>
		<path class="st1" d="M40.4,24.5h-3.8l2.4,4.7c1.2-0.1,2.4-0.3,3.6-0.4L40.4,24.5z"/>
		<path class="st1" d="M10,24.5H6.3l4.2,8.3c1.2-0.2,2.3-0.3,3.5-0.5L10,24.5z"/>
		<path class="st1" d="M20.2,24.5h-3.8l3.5,7c1.2-0.2,2.4-0.3,3.5-0.5L20.2,24.5z"/>
		<path class="st1" d="M5.7,33.5C6.9,33.3,8,33.2,9.2,33L5,24.5H1.2L5.7,33.5z"/>
		<path class="st1" d="M15.1,24.5h-3.8l3.8,7.6c1.2-0.2,2.3-0.3,3.5-0.5L15.1,24.5z"/>
		<path class="st1" d="M25.2,24.5h-3.8l3.2,6.4c1.2-0.1,2.4-0.3,3.5-0.4L25.2,24.5z"/>
		<path class="st1" d="M101.1,24.5h-3.8l0.2,0.4c1.4-0.1,2.6-0.1,3.7-0.1L101.1,24.5z"/>
		<path class="st1" d="M96,24.5h-3.8l0.3,0.6c1.3-0.1,2.5-0.1,3.7-0.2L96,24.5z"/>
		<path class="st1" d="M0,24.7v9.7c1.5-0.2,3-0.5,4.5-0.7L0,24.7z"/>
		<path class="st1" d="M102.4,24.5l0.1,0.2c3.3-0.1,5.1-0.2,5.1-0.2H102.4z"/>
		<path class="st1" d="M91,24.5h-3.8l0.4,0.8c1.3-0.1,2.5-0.1,3.7-0.2L91,24.5z"/>
		<path class="st1" d="M70.7,24.5H67l1.1,2.1c1.2-0.1,2.4-0.2,3.6-0.3L70.7,24.5z"/>
		<path class="st1" d="M85.9,24.5h-3.8l0.6,1.1c1.3-0.1,2.5-0.1,3.6-0.2L85.9,24.5z"/>
		<path class="st1" d="M60.6,24.5h-3.8l1.4,2.9c1.2-0.1,2.4-0.2,3.6-0.3L60.6,24.5z"/>
		<path class="st1" d="M65.7,24.5h-3.8l1.2,2.5c1.2-0.1,2.4-0.2,3.6-0.3L65.7,24.5z"/>
		<path class="st1" d="M80.9,24.5h-3.8l0.7,1.4c1.2-0.1,2.5-0.2,3.6-0.2L80.9,24.5z"/>
		<path class="st1" d="M75.8,24.5H72l0.9,1.7c1.2-0.1,2.4-0.2,3.6-0.2L75.8,24.5z"/>
	</g>
	<g>
		<path class="st1" d="M237,24.6h3.8l-2.9,5.8c-1.2-0.1-2.4-0.3-3.5-0.4L237,24.6z"/>
		<path class="st1" d="M232,24.6h3.8l-2.6,5.2c-1.2-0.1-2.4-0.3-3.6-0.4L232,24.6z"/>
		<path class="st1" d="M216.8,24.6h3.8l-1.9,3.7c-1.2-0.1-2.4-0.2-3.6-0.3L216.8,24.6z"/>
		<path class="st1" d="M221.9,24.6h3.8l-2.1,4.2c-1.2-0.1-2.4-0.2-3.6-0.4L221.9,24.6z"/>
		<path class="st1" d="M211.7,24.6h3.8l-1.7,3.3c-1.2-0.1-2.4-0.2-3.6-0.3L211.7,24.6z"/>
		<path class="st1" d="M226.9,24.6h3.8l-2.4,4.7c-1.2-0.1-2.4-0.3-3.6-0.4L226.9,24.6z"/>
		<path class="st1" d="M257.3,24.6h3.8l-4.2,8.3c-1.2-0.2-2.3-0.3-3.5-0.5L257.3,24.6z"/>
		<path class="st1" d="M247.2,24.6h3.8l-3.5,7c-1.2-0.2-2.4-0.3-3.5-0.5L247.2,24.6z"/>
		<path class="st1" d="M261.6,33.6c-1.2-0.2-2.3-0.4-3.5-0.5l4.2-8.5h3.8L261.6,33.6z"/>
		<path class="st1" d="M252.2,24.6h3.8l-3.8,7.6c-1.2-0.2-2.3-0.3-3.5-0.5L252.2,24.6z"/>
		<path class="st1" d="M242.1,24.6h3.8l-3.2,6.4c-1.2-0.1-2.4-0.3-3.5-0.4L242.1,24.6z"/>
		<path class="st1" d="M166.2,24.6h3.8l-0.2,0.4c-1.4-0.1-2.6-0.1-3.7-0.1L166.2,24.6z"/>
		<path class="st1" d="M171.3,24.6h3.8l-0.3,0.6c-1.3-0.1-2.5-0.1-3.7-0.2L171.3,24.6z"/>
		<path class="st1" d="M267.3,24.8v9.7c-1.5-0.2-3-0.5-4.5-0.7L267.3,24.8z"/>
		<path class="st1" d="M164.9,24.6l-0.1,0.2c-3.3-0.1-5.1-0.2-5.1-0.2H164.9z"/>
		<path class="st1" d="M176.3,24.6h3.8l-0.4,0.8c-1.3-0.1-2.5-0.1-3.7-0.2L176.3,24.6z"/>
		<path class="st1" d="M196.6,24.6h3.8l-1.1,2.1c-1.2-0.1-2.4-0.2-3.6-0.3L196.6,24.6z"/>
		<path class="st1" d="M181.4,24.6h3.8l-0.6,1.1c-1.3-0.1-2.5-0.1-3.6-0.2L181.4,24.6z"/>
		<path class="st1" d="M206.7,24.6h3.8l-1.4,2.9c-1.2-0.1-2.4-0.2-3.6-0.3L206.7,24.6z"/>
		<path class="st1" d="M201.6,24.6h3.8l-1.2,2.5c-1.2-0.1-2.4-0.2-3.6-0.3L201.6,24.6z"/>
		<path class="st1" d="M186.4,24.6h3.8l-0.7,1.4c-1.2-0.1-2.5-0.2-3.6-0.2L186.4,24.6z"/>
		<path class="st1" d="M191.5,24.6h3.8l-0.9,1.7c-1.2-0.1-2.4-0.2-3.6-0.2L191.5,24.6z"/>
	</g>
	<g>
		<g>
			<path class="st1" d="M151,45.4C151,45.4,151,45.4,151,45.4C151,45.4,151,45.4,151,45.4c0,0.1,0.1,0.2,0.1,0.2
				C151.1,45.6,151.1,45.5,151,45.4z M148.5,54.6v0.2c0,0.6-0.2,1.2-0.5,1.7c0.4-0.5,0.5-1.1,0.6-1.7
				C148.5,54.7,148.5,54.7,148.5,54.6z M148.2,52.9c-0.2-0.6-0.4-1.2-0.5-1.8c0-0.1-0.1-0.2-0.1-0.3c0,0.1,0,0.2,0.1,0.3
				C147.8,51.7,148,52.3,148.2,52.9c0,0.1,0.1,0.3,0.1,0.4C148.3,53.2,148.2,53,148.2,52.9z M147.2,48.8c0-0.2-0.1-0.4-0.1-0.6
				C147.1,48.5,147.1,48.7,147.2,48.8c0,0.2,0.1,0.4,0.1,0.6C147.2,49.2,147.2,49,147.2,48.8z M138.6,41.1c0.2,1.5,0.5,2.9,0.8,4.4
				C139.1,44.1,138.8,42.6,138.6,41.1z M137.9,61.1c-0.1,0.3-0.2,0.7-0.3,1c0,0.1-0.1,0.2-0.1,0.3c0-0.1,0.1-0.2,0.1-0.3
				C137.7,61.8,137.9,61.5,137.9,61.1c0,0,0-0.1,0.1-0.1C138,61,138,61.1,137.9,61.1z M137,63.2L137,63.2c0.2-0.1,0.3-0.3,0.4-0.5
				C137.3,62.9,137.1,63.1,137,63.2z M126.4,52.4c0,0.2-0.1,0.4-0.1,0.6C126.3,52.7,126.3,52.6,126.4,52.4L126.4,52.4z M125.8,54.9
				c0,0.1,0,0.1-0.1,0.2C125.8,55.1,125.8,55,125.8,54.9c0.1-0.2,0.1-0.5,0.2-0.7C125.9,54.5,125.9,54.7,125.8,54.9z"/>
			<path class="st1" d="M137.6,24.2c-13.8,0-25.1,11.3-25.1,25.1s11.2,25.1,25.1,25.1c13.8,0,25.1-11.2,25.1-25.1
				S151.4,24.2,137.6,24.2z M126.8,28.5c1.9-1.1,3.8-1.9,5.9-2.3c0.7-0.1,1.5-0.2,2.2-0.3c1.2-0.1,2.5-0.1,3.8-0.1
				c0.3,0,0.5,0,0.8,0.1c0.2,0,0.4,0.1,0.4,0.3c0.1,0.3,0.2,0.6,0.3,0.8c0.4,1,0.7,2.1,1,3.1c0.8,2.6,1.7,5.2,2.5,7.8
				c0,0.1,0.1,0.2,0.1,0.3c-1.5-0.1-3-0.4-4.5-0.3c-0.1-0.2-0.1-0.4-0.2-0.7c-0.1-0.5-0.3-1-0.4-1.5c-0.1-0.2-0.2-0.3-0.4-0.3
				c-0.4,0-0.8,0-1.3,0c-0.4,0-0.8,0.1-1.1,0.1c-0.7,0-1.3,0.2-1.9,0.4c-0.7,0.2-1.4,0.5-2.1,0.7c-0.1,0-0.1,0.1-0.2,0.1v2
				c0,0.1,0,0.2-0.2,0.3c-0.6,0.2-1.2,0.5-1.8,0.8c-0.8,0.4-1.6,0.8-2.3,1.4c0,0-0.1,0-0.1,0.1c0,0,0,0,0,0c0-0.1,0-0.3-0.1-0.4
				c0-0.8-0.1-1.5-0.1-2.3c-0.1-1-0.1-2-0.2-3c0-0.7-0.1-1.3-0.1-2c-0.1-1.1-0.1-2.2-0.2-3.4c0-0.2,0-0.3,0-0.5c0-0.3,0-0.6-0.1-0.9
				C126.6,28.7,126.6,28.6,126.8,28.5z M151.6,44.2c-0.2-0.2-0.3-0.3-0.6-0.1c-0.4,0.2-0.7,0.4-0.9,0.8c-0.5,0.7-1,1.3-1.4,1.9
				c-0.1,0.1-0.2,0.1-0.3,0.1c-0.7,0-1.3,0-1.9,0c-0.8,0-1.5,0.1-2.3,0.1c-0.6,0-1.1,0.1-1.7,0.1c-0.6,0.1-1.2,0.1-1.9,0.2
				c-0.6,0.1-1.1,0.1-1.7,0.2c-1.2,0.2-2.4,0.4-3.6,0.7c-2.6,0.6-5.2,1.5-7.8,2.4c-0.4,0.1-0.7,0.3-1.1,0.4
				c-0.2,0.1-0.4,0.1-0.5-0.1c-0.3-0.2-0.6-0.4-0.9-0.7c-0.5-0.4-1-0.7-1.5-1c-0.1-0.1-0.2-0.1-0.3-0.1c-0.2-0.1-0.4,0-0.5,0.3
				c0,0.3,0,0.6,0,0.9c0,0.2,0,0.3,0,0.5c0,0,0,0-0.1,0c-0.3-0.2-0.7-0.5-1-0.8c-0.4-0.4-0.8-0.7-1.2-1.1c-0.1-0.1-0.2-0.2-0.3-0.4
				c-0.1-0.2-0.1-0.3,0.1-0.3c0.1,0,0.2-0.1,0.4-0.1c0.4,0,0.8-0.1,1.2-0.1c0.7,0,1.5-0.1,2.2-0.1c0.9,0,1.8,0,2.7,0
				c1.1,0,2.1-0.1,3.2-0.1c0.8,0,1.6-0.1,2.4-0.1c0.9,0,1.9-0.1,2.8-0.1c0.4,0,0.8-0.1,1.2-0.1c0.6,0,1.2-0.1,1.8-0.3
				c2.1-0.7,4.3-1.3,6.4-2c1.9-0.6,3.7-1.1,5.6-1.5c0.7-0.2,1.4-0.3,2.1-0.4c0.2,0,0.3-0.1,0.5-0.1c0.1,0,0.2,0,0.3,0
				c0,0.1,0,0.2,0,0.4c-0.2,0.7-0.5,1.3-0.7,1.9c0,0,0,0-0.1,0c-0.1-0.1-0.1-0.3-0.1-0.4C151.9,44.7,151.8,44.4,151.6,44.2z
				 M151.7,50.4c0,0.3-0.1,0.6-0.1,1c-1-1-1.9-2-2.8-3c0.7-1,1.4-2.1,2.2-3c0,0,0,0.1,0,0.1c0,0,0,0,0,0c0,0,0,0,0,0
				c0,0.1,0.1,0.2,0.1,0.2c0,0.1,0.1,0.2,0.1,0.2c0.1,0.2,0.1,0.3,0.2,0.5c0.1,0.3,0.2,0.7,0.2,1C151.8,48.4,151.8,49.4,151.7,50.4z
				 M147.6,51.1c0.2,0.6,0.4,1.2,0.5,1.8c0,0.1,0.1,0.3,0.1,0.4c0.1,0.3,0.1,0.6,0.1,0.9c0,0.2,0,0.3,0,0.4c0,0.1,0,0.1,0,0.2
				c0,0.6-0.2,1.2-0.6,1.7c-1.2,1.6-2.3,3.2-3.4,4.8c-0.3,0.5-1,0.6-1.4,0.2c-0.2-0.2-0.4-0.4-0.6-0.7c-0.1-0.1-0.2-0.2-0.3-0.3
				c-0.1-0.1-0.2-0.2-0.3-0.3c-0.1-0.1-0.2-0.1-0.4-0.1c-1,0.2-2.1,0.5-3.1,0.7c-0.1,0-0.2,0.1-0.3,0.2c0,0,0,0.1,0,0.1
				c-0.1,0.3-0.2,0.7-0.3,1c0,0.1-0.1,0.2-0.1,0.3c-0.1,0.1-0.1,0.2-0.1,0.3c-0.1,0.2-0.2,0.4-0.4,0.5h0c-0.1,0.1-0.2,0.2-0.4,0.2
				c-0.5,0.2-1,0.3-1.6,0.5c-0.3,0.1-0.6,0.1-1,0.1c-0.4,0-0.8-0.2-1.1-0.5c-0.2-0.2-0.3-0.4-0.5-0.5c-0.1-0.1-0.2-0.2-0.3-0.4
				c-0.1-0.1-0.1-0.2-0.2-0.3c0,0-0.1-0.1-0.1-0.1c0,0-0.1-0.1-0.1-0.1c-0.3-0.5-0.5-0.9-0.8-1.4c-0.1-0.2-0.2-0.5-0.3-0.7
				c-0.1-0.2-0.2-0.5-0.3-0.7c-0.1-0.3-0.2-0.5-0.4-0.8c-0.1-0.3-0.2-0.5-0.4-0.8c0-0.1-0.1-0.2-0.1-0.2c-0.1-0.2-0.1-0.3-0.1-0.5
				c0-0.1,0-0.2-0.1-0.2c-0.3-1.5-0.7-3-1-4.5c-0.1-0.3-0.2-0.5-0.2-0.8h0c3.4-1.3,6.9-2.2,10.4-2.8c2.7-0.5,5.5-0.8,8.2-0.9
				c0,0.2,0.1,0.4,0.1,0.6c0.1,0.2,0.1,0.4,0.1,0.6c0,0.2,0.1,0.4,0.1,0.6c0.1,0.4,0.1,0.7,0.2,1.1c0,0.1,0.1,0.2,0.1,0.3
				C147.6,50.9,147.6,51,147.6,51.1z M126.4,52.4c0,0.2-0.1,0.4-0.1,0.6c0,0.2-0.1,0.4-0.1,0.6c-0.1,0.2-0.1,0.5-0.2,0.7
				c0,0.2-0.1,0.5-0.1,0.7c0,0.1,0,0.1-0.1,0.2c0,0.1-0.1,0.1-0.1,0.2c-0.1,0.2-0.2,0.2-0.4,0.1c-0.2-0.1-0.3-0.3-0.4-0.5
				c-0.6-1.2-1-2.4-1.2-3.7c0-0.2,0-0.4-0.1-0.6v-0.2C124.6,51.1,125.5,51.7,126.4,52.4L126.4,52.4z M132.9,37.7
				c1.5-0.7,3.1-0.9,4.8-0.9c0.2,0.7,0.4,1.4,0.5,2.2c0.2,0.7,0.3,1.5,0.4,2.2c0.3,1.5,0.5,2.9,0.8,4.4c-1.5,0.7-3.1,0.8-4.8,0.9h0
				c-0.3-1.5-0.6-2.9-0.8-4.4S133.2,39.2,132.9,37.7z M137.6,73.2c-13.2,0-23.9-10.7-23.9-23.9c0-8.8,4.8-16.6,11.9-20.7
				c0,0.6,0,1.2,0.1,1.8c-6.3,4-10.5,11-10.5,18.9c0,9.8,6.3,18.1,15,21.1c0.1,0.1,0.1,0.1,0.2,0.2c0.2,0.3,0.4,0.5,0.7,0.7
				c0.4,0.3,0.9,0.4,1.4,0.5c2.2,0.5,4.4,0.9,6.6,1.3C138.6,73.2,138.1,73.2,137.6,73.2z M143.9,71.4c-0.4,0.3-0.8,0.5-1.1,0.7
				c-0.3,0.2-0.6,0.2-0.9,0.2c-1.6-0.1-3.1-0.4-4.6-0.7c0,0,0,0,0,0c-1.9-0.4-3.7-0.7-5.6-1.1c-0.1,0-0.2-0.1-0.3-0.2
				c-1.6-2.4-3.1-4.9-4.7-7.3c-0.5-0.8-0.4-0.5-0.4-1.4c0-1.6,0.1-3.2,0.1-4.7c0-0.1,0-0.2,0.1-0.3c0.4-1.1,0.7-2.1,1.1-3.2
				c0.1-0.1,0.1-0.3,0.2-0.4c0,0,0,0,0.1,0l0,0.3c0.1,1.5,0.3,3,0.8,4.5c0.1,0.3,0.3,0.6,0.4,0.9c1.1,2.2,2.1,4.4,3.2,6.5
				c0,0.1,0.1,0.1,0.1,0.2c0.1,0,0.1,0,0.2,0c1.8-0.5,3.6-1,5.3-1.4c0.2,0,0.2-0.1,0.3-0.3c0.2-0.6,0.5-1.2,0.7-1.8
				c0.1-0.2,0.2-0.3,0.4-0.3c0.6-0.1,1.2-0.3,1.9-0.4c0.2,0,0.2,0,0.4,0.1c0.8,0.8,1.6,1.5,2.4,2.3c0.1,0.1,0.2,0.2,0.3,0.3
				c0.1-0.1,0.1-0.1,0.1-0.2c1.7-2.7,3.5-5.5,5.2-8.2c0.1-0.1,0.1-0.3,0.1-0.4c-0.6-2.1-1.1-4.1-1.7-6.2c0,0,0-0.1,0-0.2
				c0.1,0.1,0.1,0.2,0.2,0.2c1.8,2.4,3.6,4.8,5.4,7.2c0.1,0.1,0.1,0.2,0.1,0.4c-0.7,2.5-1.3,5-2,7.4c-0.1,0.5-0.3,1-0.5,1.5
				c-0.1,0.2-0.2,0.3-0.3,0.4c-0.6,0.4-1.2,0.9-1.8,1.4c-1.2,0.9-2.3,1.9-3.5,2.8C145.1,70.6,144.5,71,143.9,71.4z M145.8,71.7
				c2-1.5,3.8-3.1,5.7-4.8c0.3-0.3,0.6-0.5,0.8-0.9c4.7-4.1,7.6-10.1,7.6-16.8c0-10.9-7.9-20.1-18.2-22c-0.2-0.6-0.4-1.1-0.5-1.7
				c11.5,1.7,20.3,11.7,20.3,23.7C161.5,59.6,154.9,68.4,145.8,71.7z"/>
			<path class="st1" d="M146.6,50c-0.1,0.3-0.2,0.5-0.2,0.8c0,0.1,0,0.1-0.1,0.2c0,0.1,0,0.2,0,0.2c-0.1,0.2-0.1,0.5-0.1,0.7
				c-0.2,1.5-0.4,3.1-0.5,4.7c0,0,0,0,0,0.1c-0.7,0.1-1.2,0.4-1.8,0.8c-0.8,0.5-1.6,1.1-2.4,1.6c-0.1,0.1-0.3,0.2-0.4,0.3
				c-0.1,0.1-0.3,0.3-0.4,0.4c-0.5,0.5-1.1,0.5-1.8,0.2c-0.1-0.1-0.3-0.2-0.4-0.3c-0.1-0.1-0.2-0.1-0.3-0.1
				c-1.6-0.2-3.2-0.5-4.7-0.8c-0.3-0.1-0.5-0.1-0.6-0.2c0,0-0.1-0.1-0.1-0.1c0,0-0.1-0.1-0.1-0.1c-0.1-0.1-0.1-0.2-0.2-0.3
				c-0.8-1.2-1.5-2.5-2.2-3.9c-0.1-0.2-0.2-0.4-0.2-0.5c-0.1,0-0.2-0.1-0.3-0.1c-0.1,0-0.1-0.1-0.2-0.1c-0.1,0-0.1-0.1-0.1-0.1
				c-0.1-0.1-0.2-0.3-0.1-0.5c0-0.1,0.1-0.1,0.1-0.2c0-0.1,0.1-0.1,0.1-0.1c0-0.1,0.1-0.2,0.2-0.2c0.1-0.1,0.2-0.2,0.3-0.3
				c0.2-0.2,0.5-0.4,0.8-0.5c0.2-0.1,0.3-0.1,0.5-0.2c0.1,0,0.2,0,0.3,0c0.2,0,0.4,0,0.4,0.2c0.1,0.1,0.1,0.2,0,0.3
				c0,0.1,0,0.1-0.1,0.2c0,0,0,0.1-0.1,0.1c-0.1,0.1-0.2,0.2-0.3,0.3c-0.2,0.1-0.3,0.2-0.3,0.3s-0.1,0.2-0.1,0.3
				c0,0.1,0,0.2,0.1,0.4c0.1,0.6,0.3,1.1,0.6,1.7c0.4,0.6,0.8,1.1,1.2,1.6c0.2,0.2,0.4,0.5,0.7,0.8c0.1,0.1,0.1,0.1,0.2,0.1
				c1.1,0.3,2.2,0.5,3.3,0.8c0.9,0.2,1.8,0.4,2.7,0.5c0.1,0,0.2,0,0.2-0.1c0.8-0.5,1.7-1,2.5-1.5c0.6-0.4,1.2-0.8,1.8-1.3
				c0.1-0.1,0.1-0.1,0.1-0.2c0-0.1,0.1-0.1,0.1-0.2c0.2-1.3,0.5-2.7,0.8-4c0,0,0,0,0,0c0.1-0.3,0.1-0.5,0-0.7c0-0.1-0.1-0.2-0.1-0.2
				c-0.1-0.1-0.2-0.3-0.4-0.4c-0.2-0.1-0.4-0.2-0.5-0.4c-0.1-0.1-0.2-0.2-0.3-0.3c0,0-0.1-0.1-0.1-0.1c0-0.1,0-0.1-0.1-0.1
				c0.3-0.3,0.7-0.4,1.1-0.4c0.4,0.1,0.8,0.2,1.2,0.4c0.1,0,0.2,0.1,0.2,0.1C146.7,49.6,146.7,49.6,146.6,50z"/>
			<path class="st1" d="M129.3,52.6c0-0.1,0.1-0.1,0.1-0.1C129.3,52.5,129.3,52.6,129.3,52.6c0,0.1,0,0.1-0.1,0.2
				C129.2,52.7,129.2,52.7,129.3,52.6z"/>
			<path class="st1" d="M143.9,49.2c0,0.1,0,0.1,0.1,0.1C143.9,49.3,143.9,49.3,143.9,49.2L143.9,49.2z"/>
			<path class="st1" d="M145.4,51.4C145.4,51.4,145.4,51.4,145.4,51.4c-0.3,1.4-0.5,2.7-0.8,4c0,0.1,0,0.1-0.1,0.2
				c0-0.1,0.1-0.1,0.1-0.2C144.9,54.1,145.1,52.8,145.4,51.4C145.4,51.4,145.4,51.4,145.4,51.4c0.1-0.3,0.1-0.5,0-0.7
				C145.5,50.9,145.5,51.1,145.4,51.4z"/>
			<path class="st1" d="M140.7,54.5c0,0.4,0,0.8-0.1,1.2c0,0.1-0.1,0.2-0.1,0.3c-0.1,0.2-0.2,0.4-0.3,0.5c-0.2,0.2-0.4,0.4-0.7,0.4
				c-0.1,0-0.1,0.1-0.2,0.1c-0.1,0-0.2,0-0.3,0c-0.5,0-1-0.2-1.3-0.5c-0.2-0.2-0.4-0.5-0.6-0.7c-0.1-0.3-0.2-0.5-0.3-0.9
				c0-0.1-0.1-0.3-0.1-0.4c0-0.3,0-0.5,0-0.8c0-0.1,0.1-0.3,0.1-0.4c0-0.1,0.1-0.1,0.1-0.2c0-0.1,0.1-0.2,0.2-0.4
				c0.1-0.1,0.1-0.2,0.2-0.3c0.1-0.1,0.2-0.1,0.3,0c-0.1,0.2-0.1,0.3-0.2,0.5c0,0.1-0.1,0.2-0.1,0.4c-0.1,0.3-0.1,0.5-0.1,0.8
				c0,0.1,0,0.2,0,0.3c0,0.1,0,0.1,0,0.1c0,0,0,0.1,0,0.1c0,0.1,0.1,0.2,0.1,0.3c0.1,0.3,0.3,0.5,0.5,0.8c0.2,0.2,0.4,0.4,0.6,0.5
				c0.4,0.2,0.8,0.2,1.2-0.2c0.1-0.1,0.2-0.2,0.3-0.3c0.2-0.3,0.3-0.7,0.3-1.1c0-0.1,0-0.3,0-0.4c0-0.2-0.1-0.4-0.2-0.6
				c-0.1-0.1-0.1-0.2-0.2-0.3c0-0.1-0.1-0.1-0.1-0.2c-0.1-0.1-0.1-0.2-0.2-0.3c-0.1-0.1-0.2-0.2-0.3-0.2c-0.1,0-0.1-0.1-0.2-0.2
				c-0.1-0.1-0.1-0.2,0-0.4c0.4,0.1,0.7,0.3,0.9,0.6c0.1,0.1,0.2,0.3,0.3,0.4c0.1,0.1,0.2,0.3,0.2,0.5
				C140.6,53.8,140.7,54.1,140.7,54.5z"/>
			<path class="st1" d="M136.8,53.3c-0.1,0.1-0.1,0.3-0.1,0.4C136.7,53.5,136.7,53.4,136.8,53.3c0-0.1,0-0.1,0.1-0.2
				C136.8,53.1,136.8,53.2,136.8,53.3z"/>
			<path class="st1" d="M136.7,54.9c0.1,0.3,0.2,0.6,0.3,0.9C136.9,55.5,136.8,55.2,136.7,54.9c-0.1-0.1-0.1-0.3-0.1-0.4
				C136.7,54.6,136.7,54.8,136.7,54.9z"/>
			<path class="st1" d="M139.7,53c0,0.1,0.1,0.1,0.1,0.2C139.8,53.2,139.7,53.1,139.7,53c-0.1-0.1-0.1-0.2-0.2-0.3
				C139.6,52.8,139.6,52.9,139.7,53z"/>
			<path class="st1" d="M140.1,54.6c0,0.4-0.1,0.7-0.3,1.1C140,55.3,140.1,55,140.1,54.6z"/>
			<path class="st1" d="M139.9,49.9c0,0.5-0.4,0.9-0.9,0.9c-0.1,0-0.2,0-0.3-0.1c-0.1,0-0.1-0.1-0.2-0.1c-0.1,0-0.1-0.1-0.1-0.1
				c-0.1-0.1-0.1-0.2-0.2-0.3c0-0.1-0.1-0.2-0.1-0.4c0-0.1,0-0.2,0.1-0.4c0-0.1,0.1-0.2,0.2-0.3c0.2-0.2,0.4-0.2,0.6-0.2
				c0,0,0,0,0,0c0.1,0,0.2,0,0.2,0c0.2,0.1,0.3,0.2,0.4,0.3c0.1,0.1,0.1,0.1,0.1,0.2c0,0.1,0,0.1,0.1,0.2
				C139.9,49.8,139.9,49.8,139.9,49.9z"/>
			<path class="st1" d="M138.2,49.9c0,0.1,0,0.2,0.1,0.4C138.2,50.2,138.1,50,138.2,49.9c0-0.1,0-0.2,0.1-0.4
				C138.2,49.7,138.2,49.8,138.2,49.9z"/>
			<path class="st1" d="M139.3,49.1c0.2,0.1,0.3,0.2,0.4,0.3C139.6,49.2,139.5,49.1,139.3,49.1z"/>
			<path class="st1" d="M137.5,50.3c0,0.5-0.4,0.9-0.9,0.9c-0.1,0-0.1,0-0.2,0c-0.1,0-0.2-0.1-0.2-0.1c0,0-0.1,0-0.1-0.1
				c0,0-0.1,0-0.1-0.1c-0.2-0.2-0.2-0.4-0.2-0.6c0-0.1,0-0.2,0.1-0.4c0-0.1,0.1-0.1,0.1-0.2c0.1-0.1,0.1-0.1,0.2-0.2
				c0.1,0,0.1-0.1,0.2-0.1c0.1,0,0.2,0,0.3,0c0.1,0,0.1,0,0.2,0c0.1,0,0.1,0,0.2,0.1c0.1,0,0.1,0.1,0.2,0.1c0,0,0.1,0.1,0.1,0.1
				c0,0,0,0.1,0.1,0.1c0,0,0,0.1,0.1,0.1C137.5,50,137.5,50.2,137.5,50.3z"/>
			<path class="st1" d="M135.8,50.3c0,0.2,0.1,0.5,0.2,0.6C135.9,50.8,135.8,50.6,135.8,50.3c0-0.1,0-0.2,0.1-0.4
				C135.8,50.1,135.8,50.2,135.8,50.3z"/>
			<path class="st1" d="M137.8,44.6c-0.8,0.1-1.5,0.3-2.3,0.4c-0.4-2.1-0.8-4.2-1.2-6.4c0.5-0.1,1-0.3,1.5-0.4c0.2,0,0.4,0,0.7-0.1
				C137,40.4,137.5,42.5,137.8,44.6z"/>
			<path class="st1" d="M155.9,74.1C155.8,74.1,155.8,74.1,155.9,74.1C155.8,74.1,155.8,74.1,155.9,74.1
				C155.8,74.1,155.8,74.1,155.9,74.1z"/>
		</g>
	</g>
	<g>
		<path d="M33.1,20L27.3,3.4h-0.1c0.2,2.5,0.2,4.8,0.2,7V20h-3v-20h4.6L34.6,16h0.1l5.7-15.9H45v20h-3.1v-9.9c0-1,0-2.3,0.1-3.9
			C42,4.7,42,3.7,42.1,3.4h-0.1L36,20H33.1z"/>
		<path d="M57.2,20v-20h3.3v20H57.2z"/>
		<path d="M72.7,20v-20H76v17.2h8.4V20H72.7z"/>
		<path d="M113.3,20h-3.5l-3.4-11.9c-0.1-0.5-0.3-1.3-0.5-2.2c-0.2-1-0.4-1.7-0.4-2c-0.1,0.6-0.2,1.3-0.4,2.3
			c-0.2,0.9-0.4,1.6-0.5,2.1L101.2,20h-3.5L95,10l-2.6-10h3.3l2.9,11.6c0.4,1.9,0.8,3.5,1,4.9c0.1-0.8,0.3-1.6,0.5-2.6
			c0.2-1,0.4-1.7,0.5-2.3l3.2-11.7h3.2l3.3,11.7c0.3,1.1,0.7,2.7,1,4.9c0.1-1.3,0.5-3,1-5l2.8-11.6h3.3L113.3,20z"/>
		<path d="M140.7,20l-2-5.5h-7.6l-2,5.5h-3.4l7.5-20h3.5l7.5,20H140.7z M137.8,11.7L136,6.2c-0.1-0.4-0.3-0.9-0.6-1.7
			c-0.2-0.8-0.4-1.4-0.5-1.7c-0.2,1.1-0.6,2.3-1.1,3.7l-1.8,5.2H137.8z"/>
		<path d="M169.4,0.1V13c0,1.5-0.3,2.8-0.9,3.9c-0.6,1.1-1.5,2-2.7,2.6c-1.2,0.6-2.6,0.9-4.3,0.9c-2.5,0-4.4-0.7-5.8-2
			c-1.4-1.3-2.1-3.1-2.1-5.4V0.1h3.3v12.6c0,1.6,0.4,2.9,1.1,3.6c0.8,0.8,1.9,1.2,3.5,1.2c3.1,0,4.6-1.6,4.6-4.8V0.1H169.4z"/>
		<path d="M196.7,20h-3.8l-6.3-9l-1.9,1.6V20h-3.3v-20h3.3v9.5c0.9-1.1,1.8-2.1,2.7-3.2l5.4-6.4h3.7c-3.5,4.1-6,7-7.5,8.7L196.7,20z
			"/>
		<path d="M217.6,20h-11.3v-20h11.3v2.8h-8v5.4h7.5V11h-7.5v6.3h8V20z"/>
		<path d="M240.2,20h-11.3v-20h11.3v2.8h-8v5.4h7.5V11h-7.5v6.3h8V20z"/>
	</g>
</g>
</svg>
