<?xml version="1.0" encoding="utf-8"?>
<!-- Generator: Adobe Illustrator 26.2.1, SVG Export Plug-In . SVG Version: 6.00 Build 0)  -->
<svg version="1.1" id="Layer_1" xmlns="http://www.w3.org/2000/svg" xmlns:xlink="http://www.w3.org/1999/xlink" x="0px" y="0px"
	 viewBox="0 0 143.5 144.9" style="enable-background:new 0 0 143.5 144.9;" xml:space="preserve">
<style type="text/css">
	.st0{fill-rule:evenodd;clip-rule:evenodd;}
	.st1{fill-rule:evenodd;clip-rule:evenodd;fill:#037682;}
	.st2{fill-rule:evenodd;clip-rule:evenodd;fill:#BA9F30;}
	.st3{fill-rule:evenodd;clip-rule:evenodd;fill:#FDDD00;}
	.st4{fill-rule:evenodd;clip-rule:evenodd;fill:#FFFFFF;}
	.st5{fill-rule:evenodd;clip-rule:evenodd;fill:#C0C1C2;stroke:#000000;stroke-width:0.534;stroke-linejoin:round;}
	.st6{fill-rule:evenodd;clip-rule:evenodd;fill:#BDBDC0;stroke:#000000;stroke-width:0.534;stroke-linejoin:round;}
	.st7{fill-rule:evenodd;clip-rule:evenodd;fill:#50B849;}
	.st8{fill-rule:evenodd;clip-rule:evenodd;fill:#BDBDC0;}
	.st9{fill-rule:evenodd;clip-rule:evenodd;fill:#B5B5B5;stroke:#000000;stroke-width:0.534;stroke-linejoin:round;}
	.st10{fill:none;}
	.st11{fill:#9DDCF9;}
</style>
<path class="st0" d="M31.7,72.2c0-1.3,0.1-2.5,0.2-3.8l0,0l-11-1l0,0c3.8-1.3,7.7-2.3,11.5-2.8c0.2-1.1,0.5-2.1,0.7-3.1
	c-3.2-2.2-6.2-4.7-9.1-7.4l0,0l10.3,3.8l0,0c0.5-1.1,0.9-2.3,1.5-3.4l0,0l-12.8-6.1l0,0c-1.2,2.6-2.3,5.2-3.1,8
	c2.6,2,5.2,3.9,7.9,5.6c-3.2,0.3-6.4,0.9-9.7,1.7c-0.4,2.8-0.6,5.7-0.6,8.6l0,0L31.7,72.2L31.7,72.2 M36.6,52.4L36.6,52.4l-12.5-6.8
	l0,0c0.9-1.5,1.8-3.1,2.8-4.6l0,0l11.8,8l0,0C38,50.1,37.3,51.2,36.6,52.4 M40,47.3L40,47.3l-11.3-8.7l0,0c1.1-1.4,2.3-2.8,3.5-4.1
	l0,0l8,7.4l0,0c1.5-1.6,3.1-3.1,4.8-4.4l0,0l2,2.5l0,0C44.4,42.1,42,44.6,40,47.3 M49.3,38.4L49.3,38.4c-3.5-3.3-7.4-6.4-11.5-9.2
	c1.4-1.1,2.8-2.2,4.4-3.2c2.9,2.6,5.6,5.3,8.2,8.1c-1-3.7-1.8-7.6-2.3-11.4c1.6-0.8,3.3-1.5,4.9-2.2c2.5,3.1,4.8,6.3,6.8,9.6
	c-0.2-3.8-0.3-7.7-0.2-11.5c1.8-0.4,3.5-0.7,5.3-1c-0.9,4.9-1.3,9.8-1.4,14.6c-1.8,0.4-3.6,1-5.4,1.6c-1.8-2.6-3.6-5.1-5.6-7.5
	c0.3,3.1,0.9,6.2,1.5,9.3C52.5,36.3,50.9,37.3,49.3,38.4 M72.2,26.1c0.7-2,1.4-4,2.2-6c0.7,2,1.3,4.2,1.8,6.2
	C74.9,26.2,73.6,26.1,72.2,26.1L72.2,26.1 M66.7,31.7L66.7,31.7c1.3-4.9,4-14.6,4-14.6l7.9,0.4c0,0,1.9,9.9,2.7,14.8
	c-1.3-0.3-2.7-0.5-4-0.7c-0.1-0.9-0.2-1.7-0.4-2.5c-1.8-0.2-3.7-0.2-5.5-0.2c-0.2,0.8-0.5,1.6-0.7,2.4C69.3,31.3,68,31.4,66.7,31.7
	 M85.8,18.8L85.8,18.8c1.7,0.4,3.4,1,5.1,1.5l0,0l-3.3,9.1l0,0c-0.3,1-0.2,1.6,1.8,2.5c2.2,1,2.5,0.7,3.1-0.4l0,0l4.4-8.6l0,0
	c1.7,0.8,3.2,1.7,4.7,2.7l0,0l-5,8l0,0c-2,3.1-3.8,3.4-8,1.5c-2.8-1.2-3.6-1.7-3.9-2c-1.2-1-1.9-2.2-1.2-5.2l0,0L85.8,18.8
	 M95.7,38.8L95.7,38.8l8.2-11.6l0,0c1.5,1.1,2.9,2.2,4.3,3.3l0,0l-3.6,4.2l0,0c0.4,0.3,0.7,0.6,1.1,1c2.3-0.3,4.8-0.4,7.3-0.4
	c1.4,1.5,2.7,3.2,3.9,4.9c-3.2-0.5-6.4-0.7-9.4-0.6c-0.3,3.2-1,6.3-1.9,9.2c-0.9-1.3-1.9-2.5-2.9-3.6c0.5-2.3,0.8-4.7,0.9-7.1
	c-0.3-0.3-0.7-0.6-1-0.9l0,0l-3.6,4.2l0,0C97.8,40.4,96.7,39.6,95.7,38.8 M106.3,50.1L106.3,50.1l12-7.6l0,0c2.5,4,4.6,8.4,6,12.9
	l0,0l-2.9,1l0,0c-0.9-2.7-1.9-5.3-3.2-7.8l0,0l-2.3,1.2l0,0c1.1,2.2,2,4.5,2.8,6.8l0,0l-2.4,0.8l0,0c-0.7-2.2-1.6-4.4-2.7-6.5l0,0
	l-2.4,1.2l0,0c1.1,2.1,2,4.4,2.7,6.7l0,0l-3.1,1l0,0C109.8,56.4,108.3,53.1,106.3,50.1 M111.4,61.9L111.4,61.9l13.7-3.5l0,0
	c1.2,4.6,1.8,9.4,1.7,14.2l0,0l-3.1-0.1l0,0c0-2.8-0.2-5.6-0.6-8.4l0,0l-2.6,0.4l0,0c0.3,2.4,0.6,4.9,0.6,7.4l0,0h-2.6l0,0
	c0-2.3-0.2-4.7-0.5-7l0,0l-2.7,0.4l0,0c0.3,2.4,0.5,4.8,0.5,7.2l0,0l-3.2-0.1l0,0C112.7,68.9,112.3,65.3,111.4,61.9"/>
<path class="st1" d="M35.8,106.1l-0.4,0.4l0,0c-0.6,0.6-1.7,0.6-3-1.2c-1.5-2-1.2-2.5-0.4-3.3c0,0,0.5-0.4,2.3-1.7
	c0.1-0.1,0.4-0.2,0.5-0.3c1.5-1.1,2.3-0.9,3.5,0.7c1.2,1.4,1,2.4,0.1,3c0.9,1,1.9,2,2.9,3c0.1-0.2,0.2-0.3,0.4-0.4
	c0.8-0.9,1.2-1.6,1.3-1.7c0.4-1.1,0.4-2.2-1-4.3c-0.3-0.3-0.6-0.7-1.3-1.7c-2-2.4-3.1-3-4.2-3.2c-0.6-0.1-1.2-0.1-1.8,0.1
	c-0.6,0-1.6,0.3-3.3,1.3c-4.9,2.7-5.7,5-1.8,10.2c2.5,3.2,4.9,5.1,7,4.3c0.3-0.1,1-0.5,2.4-2C37.8,108.2,36.7,107.2,35.8,106.1
	L35.8,106.1 M45.7,117.1c-2.9-1.8-2.3-2.6-0.6-5.1c1.4-2.2,1.9-2.2,2.1-2.2c0.5-0.1,1-0.1,2.4,0.8c1.8,1,2,1.6,1.9,2.4
	c-0.1,0.1,0,0.4-0.9,2.2c-1.2,2.2-1.5,2.4-1.5,2.4C48.4,118.1,47.8,118.3,45.7,117.1L45.7,117.1 M44.6,120.1L44.6,120.1
	c-3-1.8-3.8-2.7-4.1-3c-1.5-1.6-2-3.2-1.2-4.9c0-0.1,0.5-1,2-2.8c1.7-2,2.4-2.5,2.5-2.7c1.4-1,2.8-1.1,4.4-0.5
	c0.2,0.1,1.2,0.6,2.9,1.7c2,1.2,3.5,2,4.2,3.7c0.6,1.5,0.2,3-0.9,5.7c-0.8,2-1.4,3-1.5,3.2c-1.1,1.4-2.8,1.8-4.9,1.3
	C47.9,121.6,46.8,121.3,44.6,120.1 M58.7,111.6L58.7,111.6c1.2,0.4,2.5,0.7,3.6,1l0,0l-2.2,9l0,0c-0.2,0.9-0.1,1.7,2.4,2.2
	c2.7,0.4,3-0.1,3.1-1.2l0,0l1.2-9.2l0,0c1.2,0.1,2.5,0.3,3.8,0.3l0,0l-0.3,9.1l0,0c-0.1,3.3-1.7,5.1-7.8,4.1
	c-3.9-0.7-4.9-1.4-5.4-1.7c-1.7-1.1-2.5-2.3-1.5-5.1l0,0L58.7,111.6 M72.9,127.4L72.9,127.4l-0.2-13.6l0,0c2.1-0.1,4.3-0.3,6.4-0.7
	c1.9,3.3,4.1,6.4,6.7,9.4l0,0l-2.8-10.2l0,0c1.2-0.4,2.3-0.7,3.5-1.2l0,0l4.9,12.7l0,0c-2.7,1-5.4,1.8-8.2,2.4
	c-2.5-3.1-4.7-6.3-6.5-9.7l0,0l1.2,10.6l0,0C76,127.2,74.5,127.3,72.9,127.4 M96.9,121.2L96.9,121.2l-4.9-9.2l0,0
	c-1.2,0.6-2.4,1.2-3.5,1.6l0,0l-1.2-2.9l0,0c3.4-1.4,6.7-3.3,9.6-5.7l0,0l2,2.5l0,0c-1,0.8-2.1,1.6-3.3,2.3l0,0l5.7,8.8l0,0
	C99.8,119.6,98.4,120.4,96.9,121.2 M111.1,110.4L111.1,110.4l-3.5-3.2l0,0c-3.5-0.6-6.9-1.5-10-2.8c1.1-0.9,2.2-1.9,3.1-3
	c1.9,0.7,3.8,1.2,5.7,1.5c-0.7-1.9-1.5-3.6-2.3-5.4c0.9-1.2,1.7-2.4,2.5-3.6c1.7,2.9,3,6.1,4.1,9.5l0,0l3.8,2.9l0,0
	C113.4,107.8,112.3,109.2,111.1,110.4"/>
<path class="st1" d="M71.8,34.3c21,0,38,17,38,38c0,21-17,38-38,38c-21,0-38-17-38-38C33.7,51.4,50.8,34.3,71.8,34.3L71.8,34.3"/>
<path class="st2" d="M8.7,72.2c0-1.1,0-2.3,0.1-3.4l0,0L2,68.6l0,0c2.3-1.2,4.6-2.2,7-3.2c0.1-0.9,0.2-1.9,0.4-2.9
	c-2-1.5-4-3.1-5.9-4.8l0,0l6.5,1.4l0,0c0.2-1.1,0.5-2.2,0.7-3.3l0,0l-8.3-2.2l0,0c-0.6,2.1-1,4.3-1.3,6.4c1.7,1.2,3.4,2.5,5.1,3.6
	c-2,0.6-3.9,1.3-5.9,2.1C0.1,67.9,0,70.1,0,72.3l0,0L8.7,72.2L8.7,72.2"/>
<path class="st3" d="M10.7,55.8c0.3-1.1,0.6-2.1,1-3.2l0,0l-6.4-2l0,0c2.5-0.6,5.1-1,7.6-1.3c0.3-0.9,0.7-1.8,1.1-2.7
	c-1.6-1.9-3.1-4-4.5-6.2l0,0l6,3l0,0c0.5-1,1-2,1.6-3l0,0l-7.5-4.3l0,0C8.5,38,7.5,40,6.5,42c1.3,1.7,2.7,3.2,4.1,4.8
	c-2.1,0.1-4.2,0.2-6.2,0.5c-0.7,2-1.4,4.2-2,6.3l0,0L10.7,55.8L10.7,55.8"/>
<path class="st2" d="M17,40.4c0.6-1,1.1-1.9,1.8-2.9l0,0l-5.7-3.7l0,0c2.6,0.1,5.1,0.4,7.6,0.8c0.6-0.8,1.1-1.6,1.8-2.3
	c-1-2.3-1.9-4.7-2.8-7.1l0,0l5,4.5l0,0c0.7-0.8,1.5-1.7,2.3-2.5l0,0l-6.1-6.1l0,0c-1.5,1.6-3,3.2-4.4,4.9c0.8,1.9,1.7,3.8,2.7,5.7
	c-2-0.4-4-0.8-6.1-1.1c-1.3,1.8-2.4,3.7-3.6,5.6l0,0L17,40.4L17,40.4"/>
<path class="st3" d="M27.1,27.2c0.8-0.8,1.6-1.6,2.4-2.3l0,0l-4.5-5l0,0c2.4,0.8,4.8,1.7,7.2,2.7c0.7-0.6,1.5-1.2,2.3-1.8
	c-0.4-2.5-0.6-5-0.8-7.6l0,0l3.6,5.6l0,0c0.9-0.6,1.9-1.2,2.9-1.8l0,0l-4.3-7.4l0,0c-1.9,1.1-3.7,2.2-5.5,3.5c0.3,2,0.7,4.1,1.1,6.1
	c-1.8-1-3.7-1.8-5.7-2.7c-1.7,1.4-3.3,2.9-4.9,4.4l0,0L27.1,27.2L27.1,27.2"/>
<path class="st2" d="M40.3,17.1c0.9-0.6,1.9-1.1,3-1.6l0,0l-3.1-6l0,0c2.2,1.4,4.2,2.9,6.2,4.5c0.9-0.4,1.8-0.8,2.7-1.1
	c0.2-2.5,0.7-5,1.2-7.5l0,0l2.1,6.3l0,0c1.1-0.3,2.2-0.7,3.2-0.9l0,0l-2.2-8.4l0,0c-2.1,0.6-4.2,1.2-6.2,2c-0.3,2.1-0.5,4.2-0.6,6.2
	c-1.6-1.4-3.1-2.7-4.8-4.1c-2,0.9-3.9,1.9-5.9,3l0,0L40.3,17.1L40.3,17.1"/>
<path class="st3" d="M55.5,10.8c1.1-0.3,2.2-0.6,3.3-0.8l0,0l-1.4-6.6l0,0c1.7,1.9,3.3,3.9,4.8,6c0.9-0.1,1.9-0.3,2.9-0.3
	c0.9-2.4,2-4.7,3.2-7l0,0l0.3,6.7l0,0c1.1-0.1,2.2-0.1,3.4-0.1l0,0L72.1,0l0,0c-2.2,0-4.4,0.1-6.5,0.2c-0.8,1.9-1.6,3.9-2.2,5.9
	C62.2,4.4,61,2.7,59.8,1c-2.2,0.4-4.3,0.9-6.4,1.4l0,0L55.5,10.8L55.5,10.8"/>
<path class="st2" d="M72,8.7c1.1,0,2.2,0,3.4,0.1l0,0l0.4-6.7l0,0c1.2,2.3,2.2,4.6,3.1,7c0.9,0.1,1.9,0.2,2.9,0.4
	c1.5-2,3.1-4,4.8-5.9l0,0l-1.4,6.6l0,0c1.1,0.2,2.2,0.5,3.3,0.8l0,0l2.3-8.3l0,0c-2.1-0.6-4.3-1-6.4-1.4c-1.3,1.6-2.5,3.3-3.6,5.1
	c-0.6-2-1.3-4-2-5.9C76.5,0.1,74.3,0,72.1,0l0,0L72,8.7L72,8.7"/>
<path class="st3" d="M88.4,10.9c1.1,0.3,2.2,0.6,3.2,1l0,0l2.1-6.4l0,0c0.5,2.5,0.9,5,1.1,7.6c0.9,0.3,1.8,0.7,2.7,1.1
	c2-1.6,4.1-3,6.2-4.4l0,0l-3.1,5.9l0,0c1,0.5,2,1.1,3,1.6l0,0l4.4-7.4l0,0c-1.9-1.1-3.8-2.2-5.8-3.1c-1.7,1.3-3.3,2.6-4.8,4
	c0-2.1-0.2-4.2-0.5-6.2c-2-0.8-4.2-1.4-6.3-2l0,0L88.4,10.9L88.4,10.9"/>
<path class="st2" d="M103.7,17.3c1,0.6,1.9,1.2,2.9,1.8l0,0l3.7-5.6l0,0c-0.2,2.6-0.5,5.1-0.9,7.6c0.8,0.6,1.6,1.2,2.3,1.8
	c2.3-1,4.7-1.9,7.2-2.7l0,0l-4.5,4.9l0,0c0.8,0.8,1.6,1.6,2.4,2.4l0,0l6.2-6l0,0c-1.5-1.6-3.1-3-4.8-4.5c-2,0.8-3.9,1.6-5.7,2.6
	c0.5-2,0.9-4.1,1.2-6.1c-1.8-1.3-3.6-2.5-5.5-3.6l0,0L103.7,17.3L103.7,17.3"/>
<path class="st3" d="M116.7,27.6c0.8,0.8,1.6,1.6,2.3,2.5l0,0l5-4.4l0,0c-0.8,2.5-1.8,4.8-2.8,7.1c0.6,0.8,1.1,1.5,1.7,2.3
	c2.5-0.3,5-0.6,7.6-0.7l0,0l-5.6,3.6l0,0c0.6,1,1.1,1.9,1.7,2.9l0,0l7.5-4.2l0,0c-1.1-1.9-2.2-3.8-3.5-5.6c-2.1,0.3-4.2,0.6-6.1,1
	c0.9-1.8,1.9-3.7,2.7-5.6c-1.3-1.7-2.9-3.4-4.4-4.9l0,0L116.7,27.6L116.7,27.6"/>
<path class="st2" d="M126.7,40.8c0.6,1,1.1,2,1.6,3l0,0l6-3l0,0c-1.4,2.2-3,4.2-4.6,6.1c0.4,0.9,0.7,1.8,1.1,2.7
	c2.5,0.3,5,0.8,7.5,1.3l0,0l-6.4,2l0,0c0.3,1.1,0.6,2.2,0.9,3.3l0,0l8.4-2.1l0,0c-0.5-2.1-1.1-4.2-1.9-6.3c-2.1-0.3-4.2-0.5-6.2-0.7
	c1.5-1.5,2.8-3,4.1-4.7c-0.9-2-1.9-4-3-5.9l0,0L126.7,40.8L126.7,40.8"/>
<path class="st3" d="M132.9,56.3c0.3,1.1,0.5,2.2,0.8,3.3l0,0l6.6-1.3l0,0c-1.9,1.7-4,3.3-6,4.7c0.1,1,0.2,1.9,0.3,2.9
	c2.3,0.9,4.6,2,6.9,3.2l0,0l-6.7,0.2l0,0c0,1.1,0,2.3,0,3.4l0,0l8.6,0.1l0,0c0-2.2,0-4.4-0.2-6.5c-1.9-0.8-3.9-1.6-5.8-2.2
	c1.8-1.1,3.5-2.3,5.2-3.5c-0.3-2.2-0.8-4.4-1.3-6.5l0,0L132.9,56.3L132.9,56.3"/>
<path class="st2" d="M134.9,72.7c0,1.1,0,2.3-0.1,3.4l0,0l6.7,0.3l0,0c-2.3,1.2-4.6,2.2-7,3.2c-0.1,0.9-0.2,1.9-0.4,2.9
	c2,1.5,4,3.1,5.9,4.8l0,0l-6.5-1.4l0,0c-0.2,1.1-0.5,2.2-0.7,3.3l0,0l8.3,2.2l0,0c0.6-2.1,1-4.3,1.3-6.4c-1.7-1.2-3.4-2.5-5.1-3.6
	c2-0.6,3.9-1.3,5.9-2.1c0.2-2.2,0.3-4.4,0.3-6.6l0,0L134.9,72.7L134.9,72.7"/>
<path class="st3" d="M132.8,89.1c-0.3,1.1-0.6,2.1-1,3.2l0,0l6.4,2l0,0c-2.5,0.6-5.1,1-7.6,1.3c-0.3,0.9-0.7,1.8-1.1,2.7
	c1.6,1.9,3.1,4,4.5,6.2l0,0l-6-3l0,0c-0.5,1-1,2-1.6,3l0,0l7.5,4.3l0,0c1.1-1.9,2.1-3.8,3-5.8c-1.3-1.7-2.7-3.2-4.1-4.8
	c2.1-0.1,4.2-0.2,6.2-0.5c0.7-2,1.4-4.2,2-6.3l0,0L132.8,89.1L132.8,89.1"/>
<path class="st2" d="M126.5,104.5c-0.6,1-1.1,1.9-1.8,2.9l0,0l5.7,3.7l0,0c-2.6-0.1-5.1-0.4-7.6-0.8c-0.6,0.8-1.1,1.6-1.8,2.3
	c1,2.3,1.9,4.7,2.8,7.1l0,0l-5-4.5l0,0c-0.7,0.8-1.5,1.7-2.3,2.5l0,0l6.1,6.1l0,0c1.6-1.6,3-3.2,4.4-4.9c-0.8-1.9-1.7-3.8-2.7-5.7
	c2,0.4,4,0.8,6.1,1.1c1.3-1.8,2.5-3.7,3.6-5.6l0,0L126.5,104.5L126.5,104.5"/>
<path class="st3" d="M116.4,117.7c-0.8,0.8-1.6,1.6-2.4,2.3l0,0l4.5,5l0,0c-2.4-0.8-4.8-1.7-7.2-2.7c-0.7,0.6-1.5,1.2-2.3,1.8
	c0.4,2.5,0.6,5,0.8,7.6l0,0l-3.6-5.6l0,0c-0.9,0.6-1.9,1.2-2.9,1.8l0,0l4.3,7.4l0,0c1.9-1.1,3.7-2.2,5.5-3.5c-0.3-2-0.7-4.1-1.1-6.1
	c1.8,1,3.7,1.8,5.7,2.7c1.7-1.4,3.3-2.9,4.9-4.4l0,0L116.4,117.7L116.4,117.7"/>
<path class="st2" d="M103.3,127.8c-0.9,0.6-1.9,1.1-3,1.6l0,0l3.1,6l0,0c-2.2-1.4-4.2-2.9-6.2-4.5c-0.9,0.4-1.8,0.8-2.7,1.1
	c-0.2,2.5-0.7,5-1.2,7.5l0,0l-2.1-6.3l0,0c-1.1,0.3-2.2,0.7-3.2,0.9l0,0l2.2,8.4l0,0c2.1-0.5,4.2-1.2,6.2-2c0.3-2.1,0.5-4.2,0.6-6.2
	c1.6,1.4,3.1,2.7,4.8,4.1c2-0.9,3.9-1.9,5.9-3l0,0L103.3,127.8L103.3,127.8"/>
<path class="st3" d="M88,134.1c-1.1,0.3-2.2,0.6-3.3,0.8l0,0l1.4,6.6l0,0c-1.7-1.9-3.3-3.9-4.8-6c-0.9,0.1-1.9,0.3-2.9,0.3
	c-0.9,2.4-2,4.7-3.2,7l0,0l-0.3-6.7l0,0c-1.1,0.1-2.2,0.1-3.4,0.1l0,0l-0.1,8.6l0,0c2.2,0,4.4-0.1,6.5-0.2c0.8-1.9,1.6-3.9,2.2-5.9
	c1.1,1.7,2.3,3.5,3.5,5.2c2.2-0.4,4.3-0.9,6.4-1.4l0,0L88,134.1L88,134.1"/>
<path class="st2" d="M71.5,136.2c-1.1,0-2.2,0-3.4-0.1l0,0l-0.4,6.7l0,0c-1.2-2.3-2.2-4.6-3.1-7c-0.9-0.1-1.9-0.2-2.9-0.4
	c-1.5,2-3.1,4-4.8,5.9l0,0l1.4-6.6l0,0c-1.1-0.2-2.2-0.5-3.3-0.8l0,0l-2.3,8.3l0,0c2.1,0.6,4.3,1,6.4,1.4c1.3-1.6,2.5-3.3,3.6-5.1
	c0.6,2,1.3,4,2,5.9c2.2,0.2,4.4,0.3,6.6,0.3l0,0L71.5,136.2L71.5,136.2"/>
<path class="st3" d="M55.1,134c-1.1-0.3-2.2-0.6-3.2-1l0,0l-2.1,6.4l0,0c-0.5-2.5-0.9-5-1.1-7.6c-0.9-0.3-1.8-0.7-2.7-1.1
	c-2,1.6-4.1,3-6.2,4.4l0,0l3.1-5.9l0,0c-1-0.5-2-1.1-3-1.6l0,0l-4.4,7.4l0,0c1.9,1.1,3.8,2.2,5.8,3.1c1.7-1.3,3.3-2.6,4.8-4
	c0,2.1,0.2,4.2,0.5,6.2c2,0.8,4.2,1.4,6.3,2l0,0L55.1,134L55.1,134"/>
<path class="st2" d="M39.9,127.6c-1-0.6-1.9-1.2-2.9-1.8l0,0l-3.7,5.6l0,0c0.2-2.6,0.5-5.1,0.9-7.6c-0.8-0.6-1.6-1.2-2.3-1.8
	c-2.3,1-4.7,1.9-7.2,2.7l0,0l4.5-4.9l0,0c-0.8-0.8-1.6-1.6-2.4-2.4l0,0l-6.2,6l0,0c1.5,1.6,3.1,3,4.8,4.5c2-0.8,3.9-1.6,5.7-2.6
	c-0.5,2-0.9,4.1-1.2,6.1c1.8,1.3,3.6,2.5,5.5,3.6l0,0L39.9,127.6L39.9,127.6"/>
<path class="st3" d="M26.8,117.3c-0.8-0.8-1.6-1.6-2.3-2.5l0,0l-5,4.4l0,0c0.8-2.5,1.8-4.8,2.8-7.1c-0.6-0.8-1.1-1.5-1.7-2.3
	c-2.5,0.3-5,0.6-7.6,0.7l0,0l5.6-3.6l0,0c-0.6-1-1.1-1.9-1.7-2.9l0,0l-7.5,4.2l0,0c1.1,1.9,2.2,3.8,3.5,5.6c2.1-0.3,4.2-0.6,6.1-1
	c-0.9,1.8-1.9,3.7-2.7,5.6c1.3,1.7,2.9,3.4,4.4,4.9l0,0L26.8,117.3L26.8,117.3"/>
<path class="st2" d="M16.8,104.1c-0.6-1-1.1-2-1.6-3l0,0l-6,3l0,0c1.4-2.2,3-4.2,4.6-6.1c-0.4-0.9-0.7-1.8-1.1-2.7
	c-2.5-0.3-5-0.8-7.5-1.3l0,0l6.4-2l0,0c-0.3-1.1-0.6-2.2-0.9-3.3l0,0l-8.4,2.1l0,0C2.8,92.9,3.4,95,4.2,97c2.1,0.3,4.2,0.5,6.2,0.7
	c-1.5,1.5-2.8,3-4.1,4.7c0.9,2,1.9,4,3,5.9l0,0L16.8,104.1L16.8,104.1"/>
<path class="st3" d="M10.6,88.7c-0.3-1.1-0.5-2.2-0.8-3.3l0,0l-6.5,1.3l0,0c1.9-1.7,4-3.3,6-4.7C9.2,81,9.1,80,9,79
	c-2.3-0.9-4.6-2-6.9-3.2l0,0l6.7-0.2l0,0c0-1.1,0-2.3,0-3.4l0,0L0.1,72l0,0c0,2.2,0,4.4,0.2,6.5c1.9,0.8,3.9,1.6,5.8,2.2
	c-1.8,1.1-3.5,2.3-5.2,3.5c0.3,2.2,0.8,4.4,1.3,6.5l0,0L10.6,88.7L10.6,88.7"/>
<polyline class="st4" points="40.5,50.9 103.4,50.9 103.4,92.8 40.5,92.8 40.5,50.9 "/>
<polygon class="st5" points="79.2,61.2 79.2,57.8 64.5,57.8 64.5,61.5 60.5,61.5 60.5,69 83.2,69 83.2,61.5 79.2,61.5 "/>
<polyline class="st6" points="43.5,85.9 63.6,85.9 63.6,91 43.5,91 43.5,85.9 "/>
<path class="st7" d="M92.1,72.3c2.6,0,4.7,2.1,4.7,4.7c0,2.6-2.1,4.7-4.7,4.7c-2.6,0-4.7-2.1-4.7-4.7C87.4,74.4,89.5,72.3,92.1,72.3
	L92.1,72.3"/>
<polyline class="st0" points="45.2,85.9 49,85.9 49,83.6 45.2,85.9 "/>
<polyline class="st0" points="49,85.9 52.7,85.9 52.7,83.6 49,85.9 "/>
<polyline class="st0" points="52.7,85.9 56.5,85.9 56.5,83.6 52.7,85.9 "/>
<polyline class="st0" points="56.5,85.9 60.3,85.9 60.3,83.6 56.5,85.9 "/>
<polyline class="st8" points="53.6,73.9 54.8,73.9 54.8,84.3 53.6,85 53.6,73.9 "/>
<polyline class="st8" points="55.4,73.9 56.6,73.9 56.6,83.2 55.4,83.9 55.4,73.9 "/>
<polyline class="st5" points="78,63.4 78,59.5 65.8,59.5 65.8,63.4 "/>
<line class="st9" x1="63.6" y1="58.7" x2="80.4" y2="58.7"/>
<line class="st9" x1="59.8" y1="62.5" x2="64.6" y2="62.5"/>
<line class="st9" x1="79.2" y1="62.5" x2="83.9" y2="62.5"/>
<polyline class="st7" points="65.3,79.7 71.9,69.2 58.6,69.2 65.3,79.7 "/>
<polyline class="st7" points="78.4,79.7 71.8,69.2 85,69.2 78.4,79.7 "/>
<polyline class="st7" points="42.9,88.9 100.6,88.9 100.6,93.3 42.9,93.3 42.9,88.9 "/>
<path class="st8" d="M48.8,82.9v0.7h-0.2v-0.7l-1.5-1.7L47,83.7h-0.2l0.4-8.5h-0.5v-2.4h-0.8l2.9-1.7l2.9,1.7h-0.8v2.4h-0.6l0.4,8.5
	h-0.2l-0.1-2.5L48.8,82.9 M48.6,79h-1.4l-0.1,1.8L48.6,79L48.6,79 M48.6,78.6l-1.3-1.2l-0.1,1.5h1.4V78.6 M47.3,77.1l1.3,1.2v-1.3
	L47.3,77.1L47.3,77.1 M48.6,80.9v-1.6l-1.3,1.6H48.6 M48.6,75.1h-1.2l-0.1,1.5l1.3-1.3V75.1 M48.8,78.8h1.4l-0.1-1.4L48.8,78.8
	L48.8,78.8 M48.8,75.4l1.3,1.2L50,75.1h-1.2V75.4 M47.3,76.9h1.3v-1.3L47.3,76.9L47.3,76.9 M50.1,77.1h-1.3v1.4L50.1,77.1L50.1,77.1
	 M50.1,76.8l-1.3-1.2v1.3L50.1,76.8L50.1,76.8 M48.8,79.1l1.4,1.6L50.2,79h-1.4V79.1 M47.2,81.1l1.3,1.5v-1.5H47.2 M48.8,81.1v1.6
	l1.3-1.6H48.8 M50.2,80.9l-1.4-1.6v1.6H50.2"/>
<g>
	<path class="st0" d="M72,71c0,0-0.1,0-0.1,0c-0.1,0-0.1,0-0.1,0l0,0l0.1,16.3L72,71L72,71"/>
	<path class="st0" d="M63.7,76l6.9-5.5l0,0c-0.1-0.1-0.1-0.2-0.2-0.2l0,0L63.7,76l-2.3-3.4l8.8-2.7l0,0c0-0.1,0-0.2-0.1-0.3l0,0
		l-8.8,2.9L46.8,50.8l-6.3,0v42H44V53l27.7,41.2l28.2-41.9v40.6h3.6v-42l-6.9,0L82.1,72.4l-8.6-2.9l0,0c0,0.1,0,0.2-0.1,0.3l0,0
		l8.6,2.6l-2.2,3.2l-6.6-5.6l0,0c-0.1,0.1-0.1,0.2-0.2,0.3l0,0l6.7,5.4l-2,3l-4.9-8.2l0,0c-0.1,0.1-0.1,0.1-0.2,0.2l0,0l5.1,8.1
		l-2.3,3.4l-3-11.4l0,0c-0.1,0-0.2,0.1-0.3,0.1l0,0l3.2,11.4l-3.7,5.4l-3.5-5.2L71.5,71l0,0c-0.1,0-0.2,0-0.3-0.1l0,0l-3.1,11.7
		l-2.3-3.5l5.2-8.3l0,0c-0.1-0.1-0.2-0.1-0.2-0.2l0,0l-5,8.3L63.7,76L63.7,76"/>
</g>
<path class="st0" d="M39.7,92.9c6.8,10.6,18.6,17.6,32.1,17.6c13.5,0,25.3-7,32.1-17.6l0,0H39.7L39.7,92.9"/>
<polyline class="st0" points="59.5,68.8 84.3,68.8 84.3,69.2 59.5,69.2 59.5,68.8 "/>
<path class="st0" d="M70.9,68.8h1.8v-2.2l0,0c0-1.2-1.8-1.2-1.8,0l0,0V68.8L70.9,68.8"/>
<path class="st0" d="M73.3,68.8h1.8v-2.2l0,0c0-1.2-1.8-1.2-1.8,0l0,0V68.8L73.3,68.8"/>
<path class="st0" d="M68.5,68.8h1.8v-2.2l0,0c0-1.2-1.8-1.2-1.8,0l0,0V68.8L68.5,68.8"/>
<path class="st0" d="M77.7,68.8h1v-1.2l0,0c0-0.6-1-0.6-1,0l0,0V68.8L77.7,68.8"/>
<path class="st0" d="M79.4,68.8h1v-1.2l0,0c0-0.6-1-0.6-1,0l0,0V68.8L79.4,68.8"/>
<path class="st0" d="M76.1,68.8h1v-1.2l0,0c0-0.6-1-0.6-1,0l0,0V68.8L76.1,68.8"/>
<path class="st0" d="M81,68.8h1v-1.2l0,0c0-0.6-1-0.6-1,0l0,0V68.8L81,68.8"/>
<path class="st0" d="M63,68.8h1v-1.2l0,0c0-0.6-1-0.6-1,0l0,0V68.8L63,68.8"/>
<path class="st0" d="M64.7,68.8h1v-1.2l0,0c0-0.6-1-0.6-1,0l0,0V68.8L64.7,68.8"/>
<path class="st0" d="M61.4,68.8h1v-1.2l0,0c0-0.6-1-0.6-1,0l0,0V68.8L61.4,68.8"/>
<path class="st0" d="M66.3,68.8h1v-1.2l0,0c0-0.6-1-0.6-1,0l0,0V68.8L66.3,68.8"/>
<polyline class="st0" points="67.3,60.7 66.9,60.7 66.9,65.1 67.3,65.1 67.3,60.7 "/>
<polyline class="st0" points="68.9,60.7 68.5,60.7 68.5,65.1 68.9,65.1 68.9,60.7 "/>
<polyline class="st0" points="70.5,60.7 70.2,60.7 70.2,65.1 70.5,65.1 70.5,60.7 "/>
<polyline class="st0" points="72.2,60.7 71.8,60.7 71.8,65.1 72.2,65.1 72.2,60.7 "/>
<polyline class="st0" points="73.8,60.7 73.4,60.7 73.4,65.1 73.8,65.1 73.8,60.7 "/>
<polyline class="st0" points="75.4,60.7 75.1,60.7 75.1,65.1 75.4,65.1 75.4,60.7 "/>
<polyline class="st0" points="77.1,60.7 76.7,60.7 76.7,65.1 77.1,65.1 77.1,60.7 "/>
<polyline class="st0" points="61.6,63.6 61.4,63.6 61.4,66.1 61.6,66.1 61.6,63.6 "/>
<polyline class="st0" points="62.5,63.6 62.3,63.6 62.3,66.1 62.5,66.1 62.5,63.6 "/>
<polyline class="st0" points="63.5,63.6 63.3,63.6 63.3,66.1 63.5,66.1 63.5,63.6 "/>
<polyline class="st0" points="64.4,63.6 64.2,63.6 64.2,66.1 64.4,66.1 64.4,63.6 "/>
<polyline class="st0" points="65.3,63.6 65.1,63.6 65.1,66.1 65.3,66.1 65.3,63.6 "/>
<polyline class="st0" points="78.6,63.6 78.4,63.6 78.4,66.1 78.6,66.1 78.6,63.6 "/>
<polyline class="st0" points="79.6,63.6 79.3,63.6 79.3,66.1 79.6,66.1 79.6,63.6 "/>
<polyline class="st0" points="80.5,63.6 80.3,63.6 80.3,66.1 80.5,66.1 80.5,63.6 "/>
<polyline class="st0" points="81.4,63.6 81.2,63.6 81.2,66.1 81.4,66.1 81.4,63.6 "/>
<polyline class="st0" points="82.3,63.6 82.1,63.6 82.1,66.1 82.3,66.1 82.3,63.6 "/>
<path class="st4" d="M47.9,99h0.4v-3.2h-0.4V99L47.9,99 M48.8,99h0.4v-2.8h0.1l2.9,2.8h0.7v-3.2h-0.4v2.8h-0.1l-2.9-2.8h-0.7V99
	L48.8,99 M56.8,97.9V98l0,0c0,0.3,0,0.5-0.3,0.6c0,0-0.2,0.1-1.2,0.1c-1,0-1.2-0.1-1.3-0.2c-0.1-0.1-0.2-0.3-0.2-1.3
	c0-0.6,0-0.9,0.3-1c0,0,0.2-0.1,1.3-0.1c0.1,0,0.3,0,0.4,0c0.7,0,0.9,0.1,0.9,0.6l0,0v0.1h0.4v-0.2l0,0c0-0.6-0.2-0.8-0.7-0.9
	c-0.1,0-0.3-0.1-1.2-0.1c-0.1,0-0.6,0-0.9,0c-0.9,0.1-1.1,0.2-1.1,1.5c0,1.7,0.2,1.7,1.8,1.7c1.4,0,1.5-0.1,1.6-0.1
	c0.3-0.1,0.4-0.3,0.4-0.8c0,0,0-0.1,0-0.1l0,0v-0.1H56.8L56.8,97.9 M61.4,97.4c0,0.8-0.1,1-0.3,1.1c-0.1,0.1-0.4,0.1-1.4,0.1
	c-0.1,0-0.2,0-0.6,0c-1,0-1,0-1-1.2c0-0.9,0-1.1,0.3-1.2c0,0,0.2-0.1,1.2-0.1c1.5,0,1.6,0,1.7,0.6C61.4,96.8,61.4,97.1,61.4,97.4
	L61.4,97.4 M59.6,99c0.4,0,1,0,1.2,0c0.6,0,0.8-0.2,0.9-0.4c0.1-0.2,0.1-0.5,0.1-1.2c0-0.8,0-1.3-0.5-1.5c-0.1,0-0.2-0.1-1.4-0.1
	c-1.7,0-1.8,0.1-1.9,0.2c-0.3,0.2-0.4,0.5-0.4,1.5c0,0.8,0.1,1,0.1,1c0.1,0.2,0.2,0.4,0.4,0.4C58.2,98.9,58.4,99,59.6,99L59.6,99
	 M62.8,97.4v-1.2h2l0,0c0.6,0,0.7,0.1,0.7,0.1c0.1,0.1,0.2,0.2,0.2,0.5c0,0.6-0.2,0.6-1,0.6l0,0H62.8L62.8,97.4 M62.3,99h0.4v-1.2h2
	l0,0c0.6,0,0.6,0,0.6,0.1c0.2,0.1,0.2,0.3,0.2,0.6l0,0V99H66v-0.6l0,0c0-0.4-0.1-0.5-0.1-0.6c-0.1-0.1-0.2-0.2-0.4-0.2
	c0.3,0,0.4-0.2,0.5-0.4c0,0,0.1-0.2,0.1-0.5c0-0.9-0.4-1-1.3-1l0,0h-2.5V99L62.3,99 M67,97.4v-1.2h1.9l0,0c0.6,0,0.6,0,0.7,0.1
	c0.2,0.1,0.3,0.1,0.3,0.5c0,0.7-0.1,0.7-0.9,0.7l0,0H67L67,97.4 M66.5,99H67v-1.2h2l0,0c0.9,0,1.2-0.1,1.2-1c0-0.7-0.2-0.9-0.8-1
	c0,0-0.1,0-0.4,0l0,0h-2.5V99L66.5,99 M74.2,97.4c0,0.8-0.1,1-0.3,1.1c-0.1,0.1-0.4,0.1-1.4,0.1c-0.1,0-0.2,0-0.6,0c-1,0-1,0-1-1.2
	c0-0.9,0-1.1,0.3-1.2c0,0,0.2-0.1,1.2-0.1c1.5,0,1.6,0,1.7,0.6C74.2,96.8,74.2,97.1,74.2,97.4L74.2,97.4 M72.4,99c0.4,0,1,0,1.2,0
	c0.6,0,0.8-0.2,0.9-0.4c0.1-0.2,0.1-0.5,0.1-1.2c0-0.8,0-1.3-0.5-1.5c-0.1,0-0.2-0.1-1.4-0.1c-1.7,0-1.7,0.1-1.8,0.2
	c-0.3,0.2-0.4,0.5-0.4,1.5c0,0.8,0.1,1,0.1,1c0.1,0.2,0.2,0.4,0.4,0.4C71.1,98.9,71.3,99,72.4,99L72.4,99 M75.6,97.4v-1.2h1.9l0,0
	c0.6,0,0.7,0.1,0.7,0.1c0.1,0.1,0.2,0.2,0.2,0.5c0,0.6-0.2,0.6-1,0.6l0,0H75.6L75.6,97.4 M75.2,99h0.4v-1.2h2l0,0
	c0.6,0,0.6,0,0.6,0.1c0.2,0.1,0.2,0.3,0.2,0.6l0,0V99h0.4v-0.6l0,0c0-0.4-0.1-0.5-0.1-0.6c-0.1-0.1-0.2-0.2-0.4-0.2
	c0.3,0,0.4-0.2,0.5-0.4c0,0,0.1-0.2,0.1-0.5c0-0.9-0.4-1-1.3-1l0,0h-2.5V99L75.2,99 M80.2,98l1-1.8h0.2l1,1.8H80.2L80.2,98 M79.2,99
	h0.5l0.4-0.6h2.7L83,99h0.5l-1.8-3.2H81L79.2,99L79.2,99 M84.7,99h0.4v-2.8h1.6v-0.4h-3.7v0.4h1.6V99L84.7,99 M87,99h3.2v-0.4h-2.8
	v-1.1h2.7v-0.4h-2.7v-1h2.8v-0.4H87V99L87,99 M91.2,98.6v-2.5h2.1l0,0c0.8,0,1.1,0.1,1.1,1.2c0,1.1-0.3,1.2-1.1,1.2l0,0H91.2
	L91.2,98.6 M90.7,99h2.6l0,0c0.5,0,1.1,0,1.3-0.7c0-0.1,0.1-0.4,0.1-1c0-0.9-0.2-1.1-0.4-1.3c-0.2-0.1-0.3-0.2-1-0.2l0,0h-2.6V99
	L90.7,99 M63.3,105.2h0.6v-4.4h-1.1l-1.6,1.4l0.4,0.4l1.5-1.4h0.2V105.2L63.3,105.2 M67.5,102.7c-0.2,0-0.4,0-0.7,0
	c-1.4,0-1.6,0-1.6-0.7c0-0.5,0.1-0.6,0.3-0.7c0.2-0.1,0.7-0.1,1.9-0.1c1.4,0,1.6,0,1.6,0.7c0,0.7-0.2,0.7-1,0.7
	C67.9,102.7,67.7,102.7,67.5,102.7L67.5,102.7 M67,104.7c-0.9,0-1.3,0-1.4-0.1c-0.3,0-0.5-0.2-0.5-0.6c0-0.6,0.2-0.7,0.4-0.8
	c0,0,0.1-0.1,1.4-0.1c0.1,0,0.3,0,0.5,0c1,0,1.2,0.1,1.3,0.1c0.3,0.1,0.4,0.2,0.4,0.7c0,0.6-0.1,0.7-0.6,0.7
	C68.4,104.7,68.2,104.7,67,104.7L67,104.7 M65.3,102.9c-0.7,0.1-0.7,0.5-0.7,1.1c0,1.1,0.4,1.2,2.6,1.2c2.2,0,2.6-0.1,2.6-1.3
	c0-0.5-0.1-0.6-0.1-0.7c-0.1-0.2-0.3-0.3-0.6-0.3c0.2,0,0.4-0.2,0.5-0.4c0-0.1,0.1-0.2,0.1-0.6c0-1.2-0.6-1.2-2.2-1.2
	c-1.9,0-2,0-2.1,0.1c-0.5,0.1-0.8,0.3-0.8,1.1C64.7,102.6,64.9,102.8,65.3,102.9L65.3,102.9 M70.4,103.8c0,0.9,0.2,1.1,0.5,1.3
	c0.3,0.1,0.7,0.1,2.1,0.1c1.4,0,1.9,0,2.2-0.2c0.3-0.2,0.5-0.3,0.5-1.2c0-0.3-0.1-0.4-0.1-0.5c-0.1-0.2-0.3-0.3-0.6-0.3
	c0.4-0.1,0.6-0.3,0.6-1c0-0.8-0.1-1.2-2-1.2c-1.2,0-1.3,0-1.4,0c-1.2,0-1.8,0-1.7,1.4l0,0h0.6l0,0c0-0.6,0-0.8,0.4-0.9
	c0.1,0,0.1,0,1.4,0c1.7,0,2,0,2,0.7c0,0.5-0.2,0.7-0.8,0.7c0,0,0,0-0.3,0l0,0h-1.5v0.5h1.5l0,0c0.9,0,1.1,0.2,1.1,0.8
	c0,0.7-0.3,0.8-1.4,0.8c-0.2,0-0.3,0-0.5,0c-0.4,0-0.8,0-1.2,0c-0.7,0-0.9-0.1-0.9-0.8c0,0,0-0.1,0-0.2l0,0H70.4L70.4,103.8
	 M76.3,103.9c0,0.7,0.2,1,0.5,1.2c0.1,0.1,0.3,0.2,1.7,0.2c0.4,0,0.9,0,1.3,0c0.9,0,1.2-0.1,1.4-0.4c0.1-0.2,0.2-0.4,0.2-1.1
	c0-1.3-0.5-1.5-2.5-1.5c-1.1,0-1.1,0-1.2,0c-0.4,0-0.6,0.2-0.8,0.3l0,0v-1.3h4.3v-0.5h-4.9v2.3H77l0,0c0.1-0.4,0.5-0.4,1.8-0.4
	c1.4,0,1.5,0,1.6,0.1c0.3,0.1,0.5,0.3,0.5,0.9c0,1.1-0.1,1.1-1.7,1.1c-0.2,0-0.4,0-0.6,0c-1.2,0-1.7-0.1-1.7-0.7l0,0v-0.2H76.3
	L76.3,103.9"/>
<polyline class="st0" points="79.2,87.3 95.8,87.3 95.8,89.4 79.2,89.4 79.2,87.3 "/>
<polyline class="st0" points="83.4,84.6 82.9,84.6 82.9,84.1 82.4,84.1 82.4,84.6 82,84.6 82,85.7 79.3,85.7 78.3,87.3 96.6,87.3 
	95.6,85.7 84.3,85.7 84.3,84.6 83.9,84.6 83.9,84.1 83.4,84.1 83.4,84.6 "/>
<polyline class="st3" points="85.5,87.5 95.5,87.5 95.5,88.2 85.5,88.2 85.5,87.5 "/>
<polyline class="st3" points="85.5,88.4 95.5,88.4 95.5,89.2 85.5,89.2 85.5,88.4 "/>
<polyline class="st3" points="79.4,87.5 80.3,87.5 80.3,88.2 79.4,88.2 79.4,87.5 "/>
<polyline class="st3" points="79.4,88.4 80.3,88.4 80.3,89.2 79.4,89.2 79.4,88.4 "/>
<polyline class="st3" points="80.5,87.5 81.4,87.5 81.4,88.2 80.5,88.2 80.5,87.5 "/>
<polyline class="st3" points="80.5,88.4 85.3,88.4 85.3,89.2 80.5,89.2 80.5,88.4 "/>
<polyline class="st3" points="81.6,87.5 85.3,87.5 85.3,88.2 81.6,88.2 81.6,87.5 "/>
<path class="st0" d="M94.7,79c-0.1,0.5-0.4,1-0.9,1.3c-0.2,0.1-0.5,0.2-0.8,0.1l0,0l0.3-0.3l0.1-0.2c0.1-0.1,0.1-0.2,0.1-0.4l0-0.1
	c-0.1-0.4,0-0.5,0.5-0.7l-0.1-0.3c-0.2,0.1-0.4,0.2-0.5,0.3c-0.5-0.7-0.5-2.2,0.1-2.8l-0.2-0.1c-0.7,0.7-0.7,2.4-0.1,3.1
	c0,0.1-0.1,0.2-0.1,0.3c0,0.1,0,0.2,0,0.3l0,0.1c0,0,0,0.1,0,0.1c0,0,0,0,0,0l-0.1,0.2L92.9,80l-0.3,0.3c-0.2,0.3-0.4,0.6-0.5,0.9
	l-0.1-0.1l-0.5-0.4h0l0,0c0-0.6-0.2-1.1-0.6-1.7l-0.4-0.5c-0.1-0.1-0.1-0.2-0.2-0.2c0.3-0.3,0.9-1.2,1.3-1.6
	c0.3-0.4,0.3-0.4,0.3-0.4l-0.2,0l-0.3,0.3c-0.4,0.4-1,1.2-1.2,1.6c-0.5-0.7-0.8-1.3-0.4-2.2l-0.2-0.1c-0.5,1.2,0.1,2,0.7,2.8
	l0.4,0.5c0.3,0.5,0.5,1,0.6,1.5l-0.6-0.3c-0.9-0.4-1.8-0.8-1.8-1.6l-0.2,0c0,1,1.1,1.4,1.9,1.8l0.8,0.4l0.5,0.3l0.2,0.1
	c0,0.1-0.1,0.2-0.1,0.2c-0.1,0.4,0,0.7,0,1l0,0.5c0,0.6,0,1.2-0.1,1.7c-0.1,0.8-0.2,1.7,0,2.5c0.2,1,0.2,2.3-0.2,2.8
	c0,0,1.8,0.8,0.5-2.8c-0.1-0.8-0.1-1.6,0-2.4c0.1-0.6,0.1-1.2,0.1-1.8l-0.1-0.5c0-0.3-0.1-0.6,0-0.9c0.1-0.5,0.3-0.9,0.6-1.2l0,0v0
	c0.3,0.2,0.7,0.1,1-0.1c0.5-0.3,0.9-0.8,1-1.4L94.7,79z"/>
<path class="st8" d="M53.8,73.1c-0.1-0.1-0.6-0.4-0.7-0.6c0.4-0.3,0.8-0.4,1.2-0.1c0.6-1.1,0.7,0.1,1,0.2c0.4,0.1,1.2-0.7,1.2,0.3
	c-0.5-0.2-0.8,0.4-1.2,0.4c-0.3,0-0.5-0.6-1.1-0.2"/>
<path class="st4" d="M57,55.5c0.8,0,1.6-0.6,2.5-0.7c1.5-0.1,3-0.1,4.5-0.1c2.9,0,5.8,0,8.7,0c2.4,0,4.6-0.6,7-0.4
	c2.1,0.1,4.2,0.3,6.4,0.6"/>
<path class="st10" d="M57,55.5c0.8,0,1.6-0.6,2.5-0.7c1.5-0.1,3-0.1,4.5-0.1c2.9,0,5.8,0,8.7,0c2.4,0,4.6-0.6,7-0.4
	c2.1,0.1,4.2,0.3,6.4,0.6"/>
<path class="st11" d="M56.7,56.8c1-0.1,1.9-0.6,3-0.7c1.3-0.1,2.5,0,3.8,0c2.5,0,5,0,7.5,0c2.4,0,4.7-0.4,7.1-0.4
	c2.5-0.1,5,0.2,7.5,0.7c1,0.2,2.1-2.3,0.9-2.5c-2.3-0.4-4.7-0.6-7.1-0.7c-2.5,0-5,0.4-7.4,0.4c-2.6,0-5.3,0-7.9,0
	c-1.3,0-2.5-0.1-3.8,0c-1.1,0.1-2,0.6-3.1,0.7C56.2,54.4,55.3,56.9,56.7,56.8L56.7,56.8z"/>
<path class="st4" d="M57.1,58.4c1,0.4,2.7,0.1,3.8,0.1"/>
<path class="st10" d="M57.1,58.4c1,0.4,2.7,0.1,3.8,0.1"/>
<path class="st11" d="M56.4,59.6c1.3,0.4,2.6,0.2,4,0.1c0.6,0,1.1-0.6,1.3-1.2c0.1-0.4,0.3-1.3-0.4-1.3c-1.1,0-2.5,0.4-3.5,0
	C56.7,56.9,55.5,59.3,56.4,59.6L56.4,59.6z"/>
<path class="st4" d="M56.2,53.9c0.8,0.3,2.2-0.1,3.1-0.2c1.4-0.2,2.7-0.5,4.1-0.7c1.5-0.1,2.9,0.2,4.4,0.2"/>
<path class="st10" d="M56.2,53.9c0.8,0.3,2.2-0.1,3.1-0.2c1.4-0.2,2.7-0.5,4.1-0.7c1.5-0.1,2.9,0.2,4.4,0.2"/>
<path class="st11" d="M55.8,55.1c0.7,0.2,1.5,0.1,2.2,0c1-0.2,2-0.3,3-0.5c1-0.2,2-0.4,3.1-0.4c1.1,0,2.2,0.2,3.3,0.2
	c1.1,0,2.1-2.5,0.9-2.5c-2.1,0-4-0.3-6.1,0.1c-1,0.2-1.9,0.4-2.9,0.5c-0.9,0.1-1.7,0.4-2.6,0.2C55.7,52.4,54.6,54.8,55.8,55.1
	L55.8,55.1z"/>
<path class="st4" d="M77.9,55.8c2.9,0.3,6.2,0.6,9,1.8"/>
<path class="st10" d="M77.9,55.8c2.9,0.3,6.2,0.6,9,1.8"/>
<path class="st11" d="M77.4,57.1c3,0.3,6,0.6,8.8,1.7c1.1,0.4,2.3-1.9,1.4-2.3c-2.9-1.2-6.1-1.6-9.2-1.9
	C77.3,54.5,76.2,57,77.4,57.1L77.4,57.1z"/>
<path class="st4" d="M80.4,53.3c0.9,0,1.8,0,2.7,0"/>
<path class="st10" d="M80.4,53.3c0.9,0,1.8,0,2.7,0"/>
<path class="st11" d="M79.9,54.5c0.9,0,1.8,0,2.7,0c0.6,0,1.1-0.6,1.3-1.2c0.1-0.4,0.3-1.3-0.4-1.3c-0.9,0-1.8,0-2.7,0
	c-0.6,0-1.1,0.6-1.3,1.2C79.4,53.6,79.3,54.5,79.9,54.5L79.9,54.5z"/>
</svg>
