<?xml version="1.0" encoding="utf-8"?>
<!-- Generator: Adobe Illustrator 26.2.1, SVG Export Plug-In . SVG Version: 6.00 Build 0)  -->
<svg version="1.1" id="Layer_1" xmlns="http://www.w3.org/2000/svg" xmlns:xlink="http://www.w3.org/1999/xlink" x="0px" y="0px"
	 viewBox="0 0 2500 1131" style="enable-background:new 0 0 2500 1131;" xml:space="preserve">
<style type="text/css">
	.st0{fill:#FFFFFF;}
	.st1{fill:#CC2229;}
</style>
<path d="M179.1,384.9h2142.3c48.8,0,93.6,20.1,126.3,53.4c32.2,32.7,52.3,76.9,52.3,126.9c0,50-20.1,94.7-52.3,127.5
	c-32.7,33.3-77.5,53.4-126.3,53.4H179.1c-49.4,0-94.2-20.1-126.9-53.4C20.1,660,0,615.2,0,565.2c0-50,20.1-94.2,52.3-126.9
	C85,405,129.8,384.9,179.1,384.9L179.1,384.9z"/>
<path class="st0" d="M179.1,424.5c-38.5,0-72.9,16.1-98.2,41.3c-25.3,25.8-40.8,60.3-40.8,99.3c0,39,15.5,74.1,40.8,99.9
	c25.3,25.3,59.7,41.3,98.2,41.3h2142.3c37.9,0,72.3-16.1,97.6-41.3c25.3-25.8,40.8-60.9,40.8-99.9c0-39-15.5-73.5-40.8-99.3
	c-25.3-25.3-59.7-41.3-97.6-41.3H179.1z"/>
<path class="st1" d="M786.6,648.5l-2.9-19.5c-5.2,7.4-12.1,13.5-20.1,17.8c-8,3.5-16.7,5.7-27,5.7c-9.8,0-18.9-1.7-27-5.2
	c-8-4-15.5-8.6-21.8-15.5c-6.3-7.5-11.5-15.5-14.4-24.7c-3.4-9.8-5.2-20.1-5.2-31.6c0-24.1,6.9-43.6,20.7-58.6
	c13.8-13.8,32.7-21.2,55.7-21.2c17.2,0,31.6,4.6,43.1,13.2c11.5,8,18.4,20.7,21.8,36.2h-36.7c-2.3-6.3-6.3-11.5-10.9-14.4
	c-5.2-3.4-11.5-5.2-18.4-5.2c-10.9,0-20.1,4.6-26.4,13.2c-6.9,9.2-10.3,20.7-10.3,35.6c0,14.3,3.4,25.8,9.8,34.4
	c6.9,8.6,15.5,12.6,27,12.6c8.6,0,16.1-2.3,21.8-6.9c6.3-4.6,9.8-10.9,10.9-18.9h-32.7v-28.7h66.6v81.5L786.6,648.5L786.6,648.5z
	 M137.8,648.5V500.3h72.3c17.2,0,29.9,2.9,37.9,9.2c8.6,5.7,12.6,14.9,12.6,28.1c0,8-1.7,14.4-5.7,19.5c-3.5,5.7-9.2,9.8-16.7,12.6
	c8.6,1.7,15.5,5.7,20.1,11.5c4.6,5.7,6.9,13.2,6.9,21.8c-0.1,7.8-2,15.5-5.7,22.4c-3.8,6.7-9.4,12.3-16.1,16.1
	c-4.6,2.3-10.3,4-17.2,5.2c-6.3,1.2-16.7,1.7-30.4,1.7L137.8,648.5L137.8,648.5L137.8,648.5z M288.2,648.5V500.3h71.2
	c18.9,0,32.7,2.9,41.9,9.8c9.2,6.3,13.2,16.6,13.2,31c0,8-1.7,15.5-5.7,21.2c-3.5,5.7-9.8,10.9-17.8,14.9
	c6.9,2.9,11.5,6.3,14.4,10.3c2.3,4,4,12.1,4.6,22.4c0,3.4,0,7.5,0.6,12.6c0.6,12.1,2.3,18.9,6.3,20.7v5.2h-40.2
	c-1.7-5.2-2.9-12.6-3.4-21.8c0-9.2-0.6-14.9-0.6-17.2c-0.6-5.7-2.9-9.8-6.3-12.6c-2.9-2.9-8-4-14.4-4h-25.8v55.7L288.2,648.5
	L288.2,648.5z M441.5,648.5V500.3h37.9v148.1H441.5z M621.8,648.5l-2.9-19.5c-5.2,7.4-12.1,13.5-20.1,17.8c-8,3.5-16.7,5.7-27,5.7
	c-9.8,0-18.9-1.7-27-5.2c-8-4-15.5-8.6-21.8-15.5c-6.3-7.5-11.5-15.5-14.9-24.7c-3.1-10.2-4.6-20.9-4.6-31.6
	c0-24.1,6.9-43.6,20.7-58.6c13.8-13.8,32.2-21.2,55.7-21.2c17.2,0,31.6,4.6,43.1,13.2c11.5,8,18.4,20.7,21.8,36.2h-36.7
	c-2.3-6.3-6.3-11.5-10.9-14.4c-5.2-3.4-11.5-5.2-18.4-5.2c-10.9,0-20.1,4.6-26.4,13.2c-6.9,9.2-10.3,20.7-10.3,35.6
	c0,14.3,3.4,25.8,9.8,34.4c6.9,8.6,15.5,12.6,27,12.6c8.6,0,16.1-2.3,21.8-6.9c6-4.6,9.9-11.4,10.9-18.9h-33.3v-28.7h67.2v81.5
	L621.8,648.5L621.8,648.5z M829.7,599.1h36.7c0,8.6,2.9,14.9,7.5,18.9c4.6,4.6,11.5,6.3,20.7,6.3c7.5,0,13.8-1.1,17.8-3.4
	c4.6-2.9,6.3-6.3,6.3-10.9c0-2.3-0.6-4.6-1.1-6.3c-1.2-1.8-2.8-3.4-4.6-4.6c-2.9-1.1-9.2-3.4-20.1-6.9c-10.9-2.9-20.1-6.3-27.6-9.2
	c-10.3-4-18.4-9.8-24.1-16.7c-5.7-6.9-8.6-14.9-8.6-24.7c0-13.8,5.7-25.3,16.1-33.3c10.9-8,25.3-12.6,43.6-12.6
	c17.8,0,32.2,4.6,42.5,13.2c10.3,8.6,16.1,20.7,16.1,35.6h-36.2c-0.6-6.9-3.4-12.1-7.5-15.5c-4-3.4-9.8-5.2-17.2-5.2
	c-6.3,0-11.5,1.7-14.9,4c-4,2.3-5.7,5.7-5.7,9.8c0,6.3,8.6,12.6,27,18.4c3.4,1.2-0.7,0.2,9.2,3.4c9.9,3.2,30.4,10.9,35.6,14.4
	c4.4,3.9,8.1,8.6,10.9,13.8c2.3,5.7,3.5,11.7,3.4,17.8c0,14.9-5.7,26.4-16.6,35c-11.5,8-27.6,12.1-48.2,12.1
	c-18.9,0-33.9-4.6-44.2-13.2C836.6,630.1,830.8,616.9,829.7,599.1L829.7,599.1z M1066.3,563.5c-3.9-5-7.2-10.4-9.8-16.1
	c-2.3-5.2-3.4-10.3-3.4-14.9c0-10.3,4-18.9,11.5-25.3c8-6.9,17.8-9.8,29.3-9.8c12.1,0,21.8,2.9,28.7,9.2
	c7.5,5.2,10.9,13.8,10.9,23.5c0,8.6-2.3,16.1-6.3,22.4c-4,6.3-10.3,12.1-18.9,16.7l17.8,22.4c1.7-2.3,2.9-5.7,4-9.2
	c1.1-2.9,2.3-6.9,2.9-11.5h29.3c-0.6,8.1-2.3,16-5.2,23.5c-3.4,7.5-7.5,14.4-12.6,20.7l25.3,33.3h-37.3l-8.6-11.5
	c-6,5.5-13,9.8-20.7,12.6c-8,2.9-15.5,4.6-24.1,4.6c-13.8,0-24.7-4.6-33.9-12.6c-8.6-8.6-13.2-18.9-13.2-32.2
	c0-9.2,2.9-17.8,8.6-25.3C1045.6,576.7,1054.2,569.8,1066.3,563.5L1066.3,563.5z M1240.8,599.1h36.2c0.6,8.6,2.9,14.9,7.5,18.9
	c5.2,4.6,12.1,6.3,21.2,6.3c7.5,0,13.2-1.1,17.8-3.4c4-2.9,6.3-6.3,6.3-10.9c0-2.3-0.6-4.6-1.7-6.3c-0.6-1.7-2.3-3.5-4-4.6
	c-2.9-1.1-9.8-3.4-20.7-6.9c-10.3-2.9-19.5-6.3-27-9.2c-10.9-4-18.9-9.8-24.7-16.7c-5.2-6.9-8-14.9-8-24.7
	c0-13.8,5.2-25.3,16.1-33.3c10.3-8,25.3-12.6,43.1-12.6c18.4,0,32.2,4.6,43.1,13.2c10.3,8.6,15.5,20.7,15.5,35.6h-35.6
	c-1.2-6.9-3.4-12.1-7.5-15.5c-4-3.4-9.8-5.2-17.8-5.2c-5.7,0-10.9,1.7-14.9,4c-4,2.3-5.7,5.7-5.7,9.8c0,6.3,9.2,12.6,27.6,18.4
	c3.5,1.2,5.7,2.3,7.5,2.9c0.6,0,1.2,0,1.7,0.6c19,5.7,30.4,10.9,35,14.4c4.7,3.6,8.5,8.3,10.9,13.8c2.9,5.7,4,11.5,4,17.8
	c0,14.9-5.7,26.4-17.2,35c-11.5,8-27,12.1-47.7,12.1c-19.5,0-33.9-4.6-44.2-13.2C1247.1,630.1,1242,616.9,1240.8,599.1L1240.8,599.1
	z M1418.8,648.5V529.6h-42.5v-29.3h123.4v29.3h-43.1v118.9H1418.8z M1516.4,648.5V500.3h71.2c18.9,0,32.7,2.9,41.3,9.8
	c9.2,6.3,13.8,16.6,13.8,31c0,7.5-2,14.8-5.7,21.2c-4,5.7-9.8,10.9-17.8,14.9c6.3,2.9,10.9,6.3,13.8,10.3c2.9,4,4,12.1,4.6,22.4
	c0,3.4,0.6,7.5,0.6,12.6c0.6,12.1,2.9,18.9,6.3,20.7v5.2h-40.2c-1.7-5.2-2.9-12.6-3.4-21.8c0-9.2,0-14.9-0.6-17.2
	c-0.6-5.7-2.3-9.8-5.7-12.6c-3.5-2.9-8-4-14.9-4h-25.3v55.7L1516.4,648.5L1516.4,648.5z M1707.1,500.3h41.9l52.8,148.1h-41.3
	l-9.2-27.6h-49.4l-8.6,27.6h-39.6L1707.1,500.3L1707.1,500.3z M1838.5,648.5V529.6H1796v-29.3h123.4v29.3H1877v118.9H1838.5
	L1838.5,648.5z M1970.6,648.5V529.6h-42.5v-29.3h123.4v29.3h-42.5v118.9H1970.6z M2061.9,573.8c0-24.1,6.9-43.1,20.1-56.8
	c13.8-13.8,31.6-20.7,54.5-20.7c23,0,41.3,6.9,55.1,20.7c13.2,13.8,20.1,32.7,20.1,56.8s-6.9,43.6-20.1,57.4
	c-13.8,14.4-32.2,21.2-55.1,21.2c-23,0-40.8-6.9-54.5-21.2C2068.8,617.5,2061.9,598.5,2061.9,573.8z M2234.7,648.5V500.3h40.8
	l28.1,48.2c4.6,8,9.2,15.5,13.2,23.5c4,8,8,15.5,11.5,23c-0.6-10.9-0.6-21.8-1.1-31.6c0-9.8-0.6-18.4-0.6-25.8v-37.3h37.3v148.1
	h-41.3l-29.3-50.5c-3.4-5.7-6.9-12.6-11.5-20.1c-4-6.9-8-14.9-12.6-23.5c0.6,9.8,1.1,18.4,1.7,27c0,8.6,0.6,15.5,0.6,22.4v44.8
	L2234.7,648.5L2234.7,648.5z"/>
<path d="M2045.8,769L1250,1130.8L454.2,769L2045.8,769L2045.8,769z"/>
<path class="st1" d="M454.2,362L1250,0.2L2045.8,362H454.2z"/>
<path d="M2158.9,802.4c-1.8-5.2-4.7-9.9-8.6-13.8c-4.6-4-9.2-7.5-14.4-9.8c-5-2.3-10.5-3.5-16.1-3.5h-1.2c-6.3,0-11.5,1.2-16.7,2.9
	c-5.2,2.3-9.8,5.2-13.8,9.8c-4.6,3.9-8.1,8.8-10.3,14.4c-2.3,5.2-3.4,10.9-3.4,17.2c0,5.2,1.1,10.9,3.4,16.1
	c2.3,5.2,5.4,10.1,9.2,14.4c4.6,4,9.2,7.5,14.3,9.8c5.2,2.3,10.9,3.4,17.2,3.4h1.2c5.2,0,10.3-1.2,14.9-3.4
	c5.7-2.3,10.3-5.2,14.4-9.2c4.6-4,7.5-8.6,9.8-14.4c2.3-5.3,3.5-10.9,3.4-16.7C2162.4,813.3,2161.2,808.1,2158.9,802.4L2158.9,802.4
	z M2151.5,833.4c-1.6,4.3-4.1,8.3-7.5,11.5c-3.4,3.4-7.6,5.7-12.1,7.5c-4.5,1.7-12.1,2.9-12.1,2.9h-1.7c-4.6,0-9.2-1.1-13.8-2.9
	c-4-1.7-8-4.6-11.5-8c-3.5-3.5-5.7-7.5-7.5-11.5c-1.8-4.2-2.8-8.7-2.9-13.2c0-5.2,1.2-9.8,2.9-14.4c1.7-4,4.6-8,8-11.5
	c3.5-3.5,6.9-5.7,11.5-7.5c4.3-1.9,9-2.9,13.8-2.9h1.2c4.6,0,8.6,1.2,12.6,2.9c4.6,1.7,8,4.6,12.1,8c2.9,3.4,5.7,6.9,7.5,11.5
	c1.7,4,2.3,8.6,2.3,13.8C2154.3,824.2,2153.8,828.8,2151.5,833.4L2151.5,833.4z"/>
<path d="M2137.7,816.1c1.7-2.3,2.3-4.6,2.3-8c0-4.6-1.7-8-5.2-10.3c-3.5-2.3-8.6-3.4-14.9-3.4h-20.1v48.2h13.2V823h4l2.9,6.3
	l6.3,13.2h14.4l-10.9-21.2C2133.1,820.1,2135.4,818.4,2137.7,816.1L2137.7,816.1z M2124.5,813.8c-1.2,0.6-2.2,1.6-4.6,1.7h-6.9
	v-13.2h4c1.2,0,2,0.1,3.9,0.5c1.9,0.4,2.4,0.7,3.6,1.3c1.4,1.3,2.2,3.2,2.3,5.2C2126.8,811.5,2125.6,812.7,2124.5,813.8
	L2124.5,813.8z"/>
<path class="st0" d="M174,557.7h31c6.3,0,10.9-1.1,14.4-3.4c2.9-2.3,4.6-6.3,4.6-10.9c0-4.6-1.7-8-4.6-10.3
	c-2.9-2.3-7.5-3.4-13.2-3.4H174V557.7z M174,618.6h28.7c9.2,0,15.5-1.2,19.5-3.5c3.4-2.9,5.2-6.9,5.2-13.2c0-5.2-1.7-9.2-5.2-12.1
	c-3.4-2.9-8.6-4-15.5-4H174V618.6L174,618.6z M326.1,563.5h28.7c7.5,0,13.2-1.7,16.7-4.6c4-2.9,5.7-7.5,5.7-13.2
	c0-5.7-1.7-9.8-5.7-12.6c-3.4-2.3-8.6-4-16.1-4h-29.3V563.5L326.1,563.5z M1093.8,550.3c4.6-3.4,8-6.3,9.8-9.2
	c2.3-3.4,3.4-6.3,3.4-9.8s-1.1-6.3-3.4-8.6c-2.3-2.3-5.4-3.5-8.6-3.4c-4,0-6.9,1.1-9.2,2.9c-2.3,2.3-2.9,5.2-2.9,8.6
	c0,1.7,0,3.4,1.1,5.2c0.6,1.7,1.7,3.4,3.4,5.7L1093.8,550.3L1093.8,550.3z M1106.5,615.2l-23-29.3c-5.7,3.4-10.3,6.9-12.6,10.3
	c-2.9,3.5-4,6.9-4,10.9c0,5.2,1.7,9.2,5.2,13.2c4,3.4,8,5.2,13.2,5.2c3.5,0,6.9-1.1,10.3-2.3C1099,621.5,1102.4,618.6,1106.5,615.2
	L1106.5,615.2z M1554.3,563.5h28.1c7.5,0,13.2-1.7,17.2-4.6c3.5-2.9,5.2-7.5,5.2-13.2c0-5.7-1.7-9.8-5.2-12.6c-3.4-2.3-9.2-4-16.1-4
	h-29.3L1554.3,563.5L1554.3,563.5L1554.3,563.5z M1711.1,590.5h32.2l-16.7-51.7L1711.1,590.5z M2100.9,573.8c0,15.5,2.9,27,9.2,35
	c6.3,8,14.9,12.1,26.4,12.1s20.7-4,27-12.1c6.3-8,9.2-19.5,9.2-35c0-14.9-2.9-26.4-9.2-34.5c-6.3-8-15.5-12.1-27-12.1
	s-20.1,4-26.4,12.1C2103.8,547.4,2100.9,558.9,2100.9,573.8z"/>
</svg>
