<?xml version="1.0" encoding="utf-8"?>
<!-- Generator: Adobe Illustrator 26.2.1, SVG Export Plug-In . SVG Version: 6.00 Build 0)  -->
<svg version="1.1" id="Layer_1" xmlns="http://www.w3.org/2000/svg" xmlns:xlink="http://www.w3.org/1999/xlink" x="0px" y="0px"
	 viewBox="0 0 555.2 200.6" style="enable-background:new 0 0 555.2 200.6;" xml:space="preserve">
<style type="text/css">
	.st0{fill:#FFC229;}
	.st1{fill:#FFFFFF;}
</style>
<path d="M532.7,114.1c-0.1-0.2-0.3-0.3-0.4-0.5c-1.1-1.2-1.2-2.1-0.7-3.6c4-11.8,7.8-23.6,11.7-35.4c0.3-1,0.7-1.8-0.6-2.5
	c-11.5-5.8-23-11.4-35.7-14c-13.1-2.6-26.3-3-39.8-1c0.1-9.1-3-16.7-10-22.5c-7-5.8-15.1-7.3-24.2-5.1c0-9.9,0-19.6,0-29.4
	c-0.2,0-0.3,0-0.5,0c-3.7,2.1-7.3,4.3-11,6.3c-22.8,12.6-45.5,25.2-68.4,37.8c-1.6,0.9-2.1,1.8-2,3.6c0.1,4.6,0,9.3,0,13.9
	c0,0.8,0,1.5,0,2.8c-13.4-8.3-27.5-10-42.7-6.7c0-19,0-37.8,0-57c-6.2,3.4-11.9,6.5-17.6,9.6c-20.6,11.3-41.3,22.7-62,34
	c-1.8,1-2.4,2-2.4,4.1c0.2,4.8,0.1,9.6,0.1,14.8c-1-0.4-1.8-0.6-2.6-0.9c-13.9-5.6-28.3-7.1-43-3.8c-1.3,0.3-2.3,0.5-3.2-1
	c-14.1-21-34-33.4-58.6-38.4c-1.7-0.3-3.4-0.7-5.1-0.9c-6.5-1.4-13.3-2.2-20.3-2.2C41.9,15.9,0,57.2,0,108.2s41.9,92.4,93.7,92.4
	c11.6,0,22.7-2.1,33-5.9c8.4-2.4,16.3-5.9,23.8-10.5c1.1-0.7,1.8-1,3.1-0.1c22.6,15.4,46.5,17.5,71.7,7.1c0.2-0.1,0.4-0.1,0.9-0.3
	c0.1,0.4,0.2,0.7,0.2,1.1c0.1,0.4,0.1,0.8,0.1,1.2c68.7,0,137.4,0,206.2,0c0.1-1,0.1-2,0.2-3.4c2.9,0.8,5.6,1.5,8.3,2.3
	c8.8,2.5,17.6,4.4,26.6,5.3c4.3,0.7,8.8,1.1,13.3,1.1c35.8,0,64.9-23.5,64.9-52.5C546.1,134,541.1,123,532.7,114.1z"/>
<g>
	<polygon class="st0" points="195,140.2 219,140.2 243.7,128.9 243.7,116.6 	"/>
	<polygon class="st0" points="193.3,143.5 228.2,170.1 240.5,159.1 219.1,143.5 	"/>
</g>
<g>
	<path class="st1" d="M430.4,72.7l8.1,4.1c0.9-0.8,1.8-1.7,2.7-2.7c11.6-12.4,12.4-21.8,6.6-27.6c-4.1-4.1-10.4-4-14.3-0.1
		c-2,2-3.1,4.7-3,7.5c0.1,3.9,2.2,7.4,5.7,9.1c0.5,0.2,1.1,0.4,1.7,0.6C435.8,67.1,433.3,70.1,430.4,72.7z"/>
	<polygon class="st1" points="367.2,176.5 417.1,176.5 417.1,26.3 367.2,53.9 	"/>
	<path class="st1" d="M510.7,116.7c-1.6-0.6-3.1-1.2-4.5-1.6c-4.1-1.2-5.5-1.6-6.5-1.8l-3.7-0.6l-3.3-0.6l-2-0.4l-3.3-0.8
		c-2.4-0.6-3.9-2-4.5-3.4c-1.2-3.4,0.8-6.4,6.7-6.6c3.9,0,9.8,1.6,21,7.4c1.4,0.6,2.6,1.4,3.9,2l10-30.2c-1.2-0.6-2.6-1.2-3.9-1.8
		c-9.2-3.8-17.9-6-26.7-6.9c-29.5-2.6-48.1,6-56.2,20.5c-10.6,18.3-1.8,38.7,16.9,43.9c2,0.6,4.3,1.2,6.5,1.6l3.9,0.8l2.2,0.4
		l1.6,0.2l3.7,0.6c3.1,0.6,4.3,1.8,3.9,4.8c-0.4,3.8-6.7,6.6-20.8,1.2c-5.5-2-20.1-8.7-20.1-8.7l-10.8,32.8c0,0,29.1,9.5,42.7,10.9
		c25.7,2.6,42.6-3.2,51.5-13.5C535.2,149,529.5,124.4,510.7,116.7z"/>
	<path class="st1" d="M306.4,74.2c-4.5,1.6-7.7,3.6-11,6.4l-1.6,1.4l-1.2,1.4V26.9l-49.9,27.4v41.7c-8-11.8-20-19.9-34.9-23
		c-7.1-1.6-14.5-1.6-21.6-0.2c-14.4,2.6-26.5,10.3-34.5,21.3H97.3l-0.2,31.8h22.6c-1,4.4-3.8,8.2-8.4,11c-3.2,2-7.2,2.8-12.8,2.4
		c-14-1.2-24.8-12.2-25.8-30.4c-0.2-2.2,0-4.6,0.2-6.8c2.8-20.4,21.2-30.4,37.1-22.6c4,1.8,7.4,4.8,9.8,8.6L167.4,70
		C156.2,50.2,136.8,37,111.7,33c-43.1-6.8-81.1,17.8-90.9,55.1c-11.2,43.7,15.4,84.7,62.7,92.5c10.8,1.8,21.8,1.6,32.2-0.4
		c15.1-3.2,27.8-9.6,37.7-18.8c4,4.6,8.9,8.6,14.7,11.9c11.2,6.6,24.6,8.9,38.1,6.4c7.3-1.3,13.5-3.8,18.8-7.3l-40.3-31.1l57.9-28.3
		v63.4h49.9v-52c0-6.6,2-9.5,6.3-10.3c6.1-0.8,9,2.2,9,10.1v52.2h49.9v-69.5C357.7,81.1,334.5,64,306.4,74.2z M184.3,125
		c-1.4-4.2-0.8-9.1,2-13.3c1.8-2.8,4.9-5,9-6.2c1.6-0.6,3.7-0.8,5.5-0.6c5.1,0.6,9.2,2.8,11.6,6L184.3,125z"/>
</g>
<g>
	<path d="M555.2,76.3c0,0.9-0.1,1.8-0.4,2.5c-0.2,0.8-0.6,1.4-1.1,1.9c-0.5,0.5-1,1-1.6,1.2c-0.6,0.3-1.4,0.4-2.1,0.4
		c-0.8,0-1.5-0.1-2.1-0.4c-0.6-0.3-1.2-0.7-1.7-1.2c-0.5-0.5-0.8-1.2-1.1-1.9s-0.4-1.6-0.4-2.5s0.1-1.8,0.4-2.5s0.6-1.4,1.1-1.9
		c0.5-0.5,1-1,1.7-1.2c0.6-0.3,1.4-0.4,2.1-0.4c0.8,0,1.5,0.1,2.1,0.4c0.6,0.3,1.2,0.7,1.6,1.2c0.5,0.5,0.8,1.2,1.1,1.9
		C555.1,74.6,555.2,75.4,555.2,76.3z M546.6,76.3c0,0.7,0.1,1.3,0.2,1.8s0.4,1,0.7,1.4s0.7,0.7,1.1,0.9c0.4,0.2,0.9,0.3,1.4,0.3
		c0.5,0,1-0.1,1.4-0.3s0.8-0.5,1.1-0.9c0.3-0.4,0.5-0.9,0.7-1.4c0.2-0.5,0.2-1.2,0.2-1.8c0-0.7-0.1-1.3-0.2-1.8
		c-0.2-0.5-0.4-1-0.7-1.4c-0.3-0.4-0.7-0.7-1.1-0.9c-0.4-0.2-0.9-0.3-1.4-0.3c-0.5,0-1,0.1-1.4,0.3c-0.4,0.2-0.8,0.5-1.1,0.9
		s-0.5,0.9-0.7,1.4S546.6,75.7,546.6,76.3z M550.7,79l-0.6-1.7h-0.4V79h-1.5v-5.5h2c0.6,0,1.1,0.2,1.5,0.5c0.4,0.4,0.5,0.8,0.5,1.4
		c0,0.3-0.1,0.6-0.2,0.9c-0.1,0.2-0.3,0.4-0.6,0.6l0.8,1.9V79H550.7z M550.1,76c0.1,0,0.3,0,0.4-0.1c0.1-0.1,0.1-0.2,0.1-0.4
		c0-0.1,0-0.2-0.1-0.3s-0.2-0.1-0.4-0.1h-0.4v1H550.1z"/>
</g>
</svg>
