<?xml version="1.0" encoding="utf-8"?>
<!-- Generator: Adobe Illustrator 26.2.1, SVG Export Plug-In . SVG Version: 6.00 Build 0)  -->
<svg version="1.1" id="Layer_1" xmlns="http://www.w3.org/2000/svg" xmlns:xlink="http://www.w3.org/1999/xlink" x="0px" y="0px"
	 viewBox="0 0 300 600" style="enable-background:new 0 0 300 600;" xml:space="preserve">
<style type="text/css">
	.st0{fill:#CDB381;}
</style>
<g>
	<path class="st0" d="M300,595c-1.5-6.4-4.1-13.1-11.8-20.8c-1.1-1.1-2.2-2.1-3.3-3.1c1.7-4.5,4.4-9.1,9.6-14.2
		c1.9-1.9,3.7-3.5,5.5-4.8c0,0,0-2.5,0-2.5c-6.7-4.5-12.7-5.7-18.5-6.9c-2.7-0.5-5.4-1.1-8.1-1.9c0.7-0.8,1.5-1.7,2.4-2.6
		c9.1-9.1,16.4-10.6,24.2-12.2c0,0,0-2.1,0-2.1c-7.8-1.6-15.2-3.1-24.3-12.2c-0.9-0.9-1.7-1.7-2.4-2.6c2.7-0.9,5.4-1.4,8.1-1.9
		c5.9-1.2,11.9-2.4,18.5-6.9c0,0,0-2.5,0-2.5c-1.8-1.3-3.6-2.9-5.5-4.8c-5.2-5.2-7.9-9.8-9.6-14.2c1.1-0.9,2.2-1.9,3.3-3.1
		c7.7-7.7,10.2-14.3,11.8-20.7v-10c-1.5-6.4-4.1-13.1-11.8-20.7c-1.1-1.1-2.2-2.1-3.3-3.1c1.7-4.5,4.4-9.1,9.6-14.2
		c1.9-1.9,3.7-3.5,5.5-4.8c0,0,0-2.5,0-2.5c-6.7-4.5-12.7-5.7-18.5-6.9c-2.7-0.5-5.4-1.1-8.1-1.9c0.7-0.8,1.5-1.7,2.4-2.6
		c9.1-9.1,16.4-10.6,24.2-12.2c0,0,0-2.1,0-2.1c-7.8-1.6-15.2-3.1-24.3-12.2c-0.9-0.9-1.7-1.7-2.4-2.6c2.7-0.9,5.4-1.4,8.1-1.9
		c5.9-1.2,11.9-2.4,18.5-6.9c0,0,0-2.5,0-2.5c-1.8-1.3-3.6-2.9-5.5-4.8c-5.2-5.2-7.9-9.8-9.6-14.2c1.1-0.9,2.2-1.9,3.3-3.1
		c7.7-7.7,10.2-14.4,11.8-20.7v-10c-1.5-6.4-4.1-13.1-11.8-20.7c-1.1-1.1-2.2-2.1-3.3-3.1c1.7-4.5,4.4-9.1,9.6-14.2
		c1.9-1.9,3.7-3.5,5.5-4.8c0,0,0-2.5,0-2.5c-6.7-4.5-12.7-5.7-18.5-6.9c-2.7-0.5-5.4-1.1-8.1-1.9c0.7-0.8,1.5-1.7,2.4-2.6
		c9.1-9.1,16.4-10.6,24.2-12.2c0,0,0-2.1,0-2.1c-7.8-1.6-15.2-3.1-24.3-12.2c-0.9-0.9-1.7-1.7-2.4-2.6c2.7-0.9,5.4-1.4,8.1-1.9
		c5.9-1.2,11.9-2.4,18.5-6.9c0,0,0-2.5,0-2.5c-1.8-1.3-3.6-2.9-5.5-4.8c-5.2-5.2-7.9-9.8-9.6-14.2c1.1-0.9,2.2-1.9,3.3-3.1
		c7.7-7.7,10.2-14.4,11.8-20.7v-10c-1.5-6.4-4.1-13.1-11.8-20.7c-1.1-1.1-2.2-2.1-3.3-3.1c1.7-4.5,4.4-9.1,9.6-14.2
		c1.9-1.9,3.7-3.5,5.5-4.8c0,0,0-2.5,0-2.5c-6.7-4.5-12.7-5.7-18.5-6.9c-2.7-0.5-5.4-1.1-8.1-1.9c0.7-0.8,1.5-1.7,2.4-2.6
		c9.1-9.1,16.5-10.6,24.2-12.2c0,0,0-2.1,0-2.1c-7.8-1.6-15.2-3.1-24.3-12.2c-0.9-0.9-1.7-1.7-2.4-2.6c2.7-0.8,5.4-1.4,8.1-1.9
		c5.9-1.2,11.9-2.4,18.5-6.9c0,0,0-2.5,0-2.5c-1.8-1.3-3.6-2.9-5.5-4.8c-5.2-5.2-7.9-9.8-9.6-14.2c1.1-0.9,2.2-1.9,3.3-3.1
		c7.7-7.7,10.2-14.4,11.8-20.8V0h-1.1c-1.6,7.8-3.1,15.2-12.2,24.3c-0.9,0.9-1.7,1.7-2.6,2.4c-0.8-2.7-1.4-5.4-1.9-8.1
		c-1.2-5.9-2.4-11.9-6.9-18.6c0,0-2.5,0-2.5,0c-1.3,1.8-2.9,3.6-4.8,5.5c-5.2,5.2-9.8,7.9-14.2,9.6c-0.9-1.1-1.9-2.2-3-3.3
		C243.1,4.1,236.4,1.5,230,0c0,0-10,0-10,0c-6.3,1.5-13,4.1-20.7,11.8c-1.1,1.1-2.1,2.2-3.1,3.3c-4.5-1.7-9.1-4.4-14.2-9.6
		c-1.9-1.9-3.5-3.7-4.8-5.5c0,0-2.5,0-2.5,0c-4.5,6.7-5.7,12.7-6.9,18.5c-0.5,2.7-1.1,5.4-1.9,8.1c-0.8-0.7-1.7-1.5-2.6-2.4
		c-9.1-9.1-10.6-16.5-12.2-24.3c0,0-2.1,0-2.1,0c-1.6,7.8-3.1,15.2-12.2,24.3c-0.9,0.9-1.7,1.7-2.6,2.4c-0.8-2.7-1.4-5.4-1.9-8.1
		c-1.2-5.9-2.4-11.9-6.9-18.6c0,0-2.5,0-2.5,0c-1.3,1.8-2.9,3.6-4.8,5.5c-5.2,5.2-9.8,7.9-14.2,9.6c-0.9-1.1-1.9-2.2-3-3.3
		C93.1,4.1,86.4,1.5,80,0c0,0-10,0-10,0c-6.4,1.5-13.1,4.1-20.7,11.8c-1.1,1.1-2.1,2.2-3.1,3.3c-4.5-1.7-9.1-4.4-14.2-9.6
		c-1.9-1.9-3.5-3.7-4.8-5.5c0,0-2.5,0-2.5,0c-4.5,6.7-5.7,12.7-6.9,18.5c-0.5,2.7-1.1,5.4-1.9,8.1c-0.8-0.7-1.7-1.5-2.6-2.4
		C4.2,15.2,2.6,7.8,1.1,0C1.1,0,0,0,0,0v5c1.5,6.4,4.1,13.1,11.8,20.7c1.1,1.1,2.2,2.1,3.3,3.1c-1.7,4.5-4.4,9.1-9.6,14.2
		c-1.9,1.9-3.7,3.5-5.5,4.8v2.5c6.7,4.6,12.7,5.8,18.6,6.9c2.7,0.5,5.4,1.1,8.1,1.9c-0.7,0.8-1.5,1.7-2.4,2.6
		C15.2,70.8,7.8,72.4,0,73.9v2.1c7.8,1.6,15.2,3.1,24.3,12.2c0.9,0.9,1.7,1.7,2.4,2.6c-2.7,0.8-5.4,1.4-8.1,1.9
		C12.7,93.9,6.7,95.1,0,99.7v2.5c1.8,1.3,3.6,2.9,5.5,4.8c5.2,5.2,7.9,9.8,9.6,14.2c-1.1,0.9-2.2,1.9-3.3,3
		C4.1,131.9,1.5,138.6,0,145c0,0,0,10,0,10c1.5,6.4,4.1,13.1,11.8,20.7c1.1,1.1,2.2,2.1,3.3,3.1c-1.7,4.5-4.4,9.1-9.6,14.2
		c-1.9,1.9-3.7,3.5-5.5,4.8v2.5c6.7,4.6,12.7,5.8,18.6,6.9c2.7,0.5,5.4,1.1,8.1,1.9c-0.7,0.8-1.5,1.7-2.4,2.6
		c-9.1,9.1-16.5,10.6-24.3,12.2v2.1c7.8,1.6,15.2,3.1,24.3,12.2c0.9,0.9,1.7,1.7,2.4,2.6c-2.7,0.8-5.4,1.4-8.1,1.9
		c-5.9,1.2-11.9,2.4-18.6,6.9v2.5c1.8,1.3,3.6,2.9,5.5,4.8c5.2,5.2,7.9,9.8,9.6,14.2c-1.1,0.9-2.2,1.9-3.3,3
		C4.1,281.9,1.5,288.6,0,295c0,0,0,10,0,10c1.5,6.4,4.1,13.1,11.8,20.7c1.1,1.1,2.2,2.1,3.3,3c-1.7,4.5-4.4,9.1-9.6,14.2
		c-1.9,1.9-3.7,3.5-5.5,4.8v2.5c6.7,4.6,12.7,5.8,18.6,6.9c2.7,0.5,5.4,1.1,8.1,1.9c-0.7,0.8-1.5,1.7-2.4,2.6
		c-9.1,9.1-16.5,10.6-24.3,12.2v2.1c7.8,1.6,15.2,3.1,24.3,12.2c0.9,0.9,1.7,1.7,2.4,2.6c-2.7,0.8-5.4,1.4-8.1,1.9
		c-5.9,1.2-11.9,2.4-18.6,6.9v2.5c1.8,1.3,3.6,2.9,5.5,4.8c5.2,5.2,7.9,9.8,9.6,14.2c-1.1,0.9-2.2,1.9-3.3,3.1
		C4.1,431.9,1.5,438.6,0,445c0,0,0,10,0,10c1.5,6.4,4.1,13.1,11.8,20.7c1.1,1.1,2.2,2.1,3.3,3c-1.7,4.5-4.4,9.1-9.6,14.2
		c-1.9,1.9-3.7,3.5-5.5,4.8v2.5c6.7,4.6,12.7,5.8,18.6,6.9c2.7,0.5,5.4,1.1,8.1,1.9c-0.7,0.8-1.5,1.7-2.4,2.6
		c-9.1,9.1-16.5,10.6-24.3,12.2v2.1c7.8,1.6,15.2,3.1,24.3,12.2c0.9,0.9,1.7,1.7,2.4,2.6c-2.7,0.8-5.4,1.4-8.1,1.9
		c-5.9,1.2-11.9,2.4-18.6,6.9v2.5c1.8,1.3,3.6,2.9,5.5,4.8c5.2,5.2,7.9,9.8,9.6,14.2c-1.1,0.9-2.2,1.9-3.3,3.1
		C4.1,581.9,1.5,588.6,0,595c0,0,0,5,0,5h1.1c1.6-7.8,3.1-15.2,12.2-24.3c0.9-0.9,1.7-1.7,2.6-2.4c0.9,2.7,1.4,5.4,1.9,8.1
		c1.2,5.9,2.4,11.9,6.9,18.5c0,0,2.6,0,2.6,0c1.3-1.8,2.9-3.6,4.8-5.5c5.2-5.2,9.8-7.9,14.2-9.6c0.9,1.1,1.9,2.2,3.1,3.3
		c7.7,7.7,14.4,10.2,20.7,11.8c0,0-0.1,0-0.1,0h10.2c0,0-0.1,0-0.1,0c6.4-1.5,13.1-4.1,20.8-11.8c1.1-1.1,2.1-2.2,3-3.3
		c4.5,1.7,9.1,4.4,14.2,9.6c1.9,1.9,3.5,3.7,4.8,5.5c0,0,2.6,0,2.6,0c4.5-6.7,5.7-12.7,6.9-18.6c0.5-2.7,1.1-5.4,1.9-8.1
		c0.8,0.7,1.7,1.5,2.6,2.4c9.1,9.1,10.6,16.5,12.2,24.3c0,0,2.1,0,2.1,0c1.6-7.8,3.1-15.2,12.2-24.3c0.9-0.9,1.7-1.7,2.6-2.4
		c0.8,2.7,1.4,5.4,1.9,8.1c1.2,5.9,2.4,11.9,6.9,18.5c0,0,2.6,0,2.6,0c1.3-1.8,2.9-3.6,4.8-5.6c5.2-5.2,9.8-7.9,14.2-9.6
		c0.9,1.1,1.9,2.2,3.1,3.3c7.7,7.7,14.4,10.2,20.7,11.8c0,0-0.1,0-0.1,0h10.2c0,0-0.1,0-0.1,0c6.4-1.5,13.1-4.1,20.8-11.8
		c1.1-1.1,2.1-2.2,3-3.3c4.5,1.7,9.1,4.4,14.2,9.6c1.9,1.9,3.5,3.7,4.8,5.5c0,0,2.6,0,2.6,0c4.5-6.7,5.7-12.7,6.9-18.6
		c0.5-2.7,1.1-5.4,1.9-8.1c0.8,0.7,1.7,1.5,2.6,2.4c9.1,9.1,10.6,16.5,12.2,24.3c0,0,1.1,0,1.1,0V595z M274.3,513.2
		c7.7,7.7,14.4,10.2,20.7,11.8c-6.4,1.5-13.1,4.1-20.7,11.8c-1.1,1.1-2.1,2.2-3.1,3.3c-4.5-1.7-9.1-4.4-14.2-9.6
		c-1.9-1.9-3.5-3.7-4.8-5.5c1.3-1.8,2.9-3.6,4.8-5.5c5.2-5.2,9.8-7.9,14.2-9.6C272.1,511,273.1,512.1,274.3,513.2z M161.8,325.7
		c1.1,1.1,2.2,2.1,3.3,3c-1.7,4.5-4.4,9.1-9.6,14.2c-1.9,1.9-3.7,3.5-5.5,4.8c-1.8-1.3-3.6-2.9-5.5-4.8c-5.2-5.2-7.9-9.8-9.6-14.2
		c1.1-0.9,2.2-1.9,3.3-3.1c7.7-7.7,10.2-14.4,11.8-20.7C151.5,311.4,154.1,318.1,161.8,325.7z M138.2,274.3
		c-1.1-1.1-2.2-2.1-3.3-3.1c1.7-4.5,4.4-9.1,9.6-14.2c1.9-1.9,3.7-3.5,5.5-4.8c1.8,1.3,3.6,2.9,5.5,4.8c5.2,5.2,7.9,9.8,9.6,14.2
		c-1.1,0.9-2.2,1.9-3.3,3c-7.7,7.7-10.2,14.4-11.8,20.8C148.5,288.6,145.9,281.9,138.2,274.3z M163.2,324.3
		c-9.1-9.1-10.6-16.5-12.2-24.3c1.6-7.8,3.1-15.2,12.2-24.3c0.9-0.9,1.7-1.7,2.6-2.4c0.9,2.7,1.4,5.4,1.9,8.1
		c1.2,5.9,2.4,11.9,6.9,18.5c-4.5,6.7-5.7,12.7-6.9,18.5c-0.5,2.7-1.1,5.4-1.9,8.1C165,325.9,164.1,325.1,163.2,324.3z M157,255.5
		c-1.8-1.8-3.5-3.3-5.2-4.6c6-4,11.5-5,17.2-6.2c3-0.6,6-1.2,9.1-2.3c5.5,6.9,6.9,12.9,8.2,19.2c-6.1,1.2-12.4,2.7-19.5,8.2
		C165,265.4,162.1,260.7,157,255.5z M168.6,242.7c-5.9,1.2-11.9,2.4-18.6,6.9c-6.7-4.5-12.7-5.7-18.5-6.9c-2.7-0.5-5.4-1.1-8.1-1.9
		c0.7-0.8,1.5-1.7,2.4-2.6c9.1-9.1,16.4-10.6,24.2-12.2c7.8,1.6,15.2,3.1,24.3,12.2c0.9,0.9,1.7,1.7,2.4,2.6
		C174,241.6,171.3,242.2,168.6,242.7z M131.1,244.8c5.7,1.1,11.1,2.2,17.2,6.2c-1.7,1.3-3.4,2.8-5.2,4.6c-5.1,5.1-8,9.9-9.8,14.3
		c-7.1-5.4-13.4-6.9-19.5-8.2c1.3-6.2,2.7-12.3,8.2-19.2C125,243.6,128.1,244.2,131.1,244.8z M134.2,273.3c0.8,0.7,1.7,1.5,2.6,2.4
		c9.1,9.1,10.6,16.5,12.2,24.3c-1.6,7.8-3.1,15.2-12.2,24.3c-0.9,0.9-1.7,1.7-2.6,2.4c-0.8-2.7-1.4-5.4-1.9-8.1
		c-1.2-5.9-2.4-11.9-6.9-18.6c4.6-6.7,5.8-12.7,6.9-18.6C132.8,278.7,133.4,276,134.2,273.3z M143,344.5c1.8,1.8,3.5,3.3,5.2,4.6
		c-6,3.9-11.5,5-17.2,6.2c-3,0.6-6,1.2-9.2,2.3c-5.5-6.9-6.9-12.9-8.2-19.2c6.1-1.2,12.4-2.7,19.5-8.2
		C135,334.6,137.9,339.3,143,344.5z M131.5,357.2c5.9-1.2,11.9-2.4,18.5-6.9c6.7,4.6,12.7,5.8,18.6,6.9c2.7,0.5,5.4,1.1,8.1,1.9
		c-0.7,0.8-1.5,1.7-2.4,2.6c-9.1,9.1-16.5,10.6-24.3,12.2c-7.8-1.6-15.2-3.1-24.2-12.2c-0.9-0.9-1.7-1.7-2.4-2.6
		C126,358.3,128.7,357.8,131.5,357.2z M169,355.2c-5.7-1.1-11.1-2.2-17.2-6.2c1.7-1.3,3.4-2.8,5.2-4.6c5.1-5.1,8-9.9,9.8-14.3
		c7.1,5.5,13.4,6.9,19.5,8.2c-1.3,6.2-2.7,12.3-8.2,19.2C175,356.4,171.9,355.8,169,355.2z M188.3,338.7c6.2,1.3,12.3,2.7,19.2,8.2
		c-1.1,3.1-1.7,6.2-2.3,9.1c-1.1,5.7-2.2,11.1-6.2,17.2c-1.3-1.7-2.8-3.4-4.6-5.2c-5.1-5.1-9.9-8-14.3-9.8
		C185.6,351.1,187.1,344.8,188.3,338.7z M186.7,336.3c-6.2-1.3-12.3-2.7-19.2-8.2c1.1-3.1,1.7-6.2,2.3-9.2
		c1.1-5.7,2.2-11.1,6.2-17.2c1.3,1.7,2.8,3.4,4.6,5.2c5.1,5.1,9.9,8,14.3,9.8C189.4,323.8,187.9,330.2,186.7,336.3z M169.8,281
		c-0.6-3-1.2-6-2.3-9.2c6.9-5.5,12.9-6.9,19.2-8.2c1.2,6.1,2.7,12.4,8.2,19.5c-4.5,1.8-9.2,4.6-14.3,9.8c-1.8,1.8-3.3,3.5-4.6,5.2
		C172,292.2,170.9,286.7,169.8,281z M180.2,241.8c4.5-1.8,9.2-4.6,14.3-9.8c1.8-1.8,3.3-3.5,4.6-5.2c4,6,5,11.5,6.2,17.2
		c0.6,3,1.2,6,2.3,9.1c-6.9,5.5-12.9,6.9-19.2,8.2C187.1,255.1,185.6,248.8,180.2,241.8z M194.5,218c-5.1-5.1-9.9-8-14.3-9.8
		c5.5-7.1,6.9-13.4,8.2-19.5c6.2,1.3,12.3,2.7,19.2,8.2c-1.1,3.1-1.7,6.2-2.3,9.1c-1.1,5.7-2.2,11.1-6.2,17.2
		C197.8,221.5,196.3,219.8,194.5,218z M193,219.5c1.9,1.9,3.5,3.7,4.8,5.5c-1.3,1.8-2.9,3.6-4.8,5.5c-5.2,5.2-9.8,7.9-14.2,9.6
		c-0.9-1.1-1.9-2.2-3-3.3c-7.7-7.7-14.4-10.2-20.8-11.8c6.4-1.5,13.1-4.1,20.8-11.8c1.1-1.1,2.1-2.2,3-3.3
		C183.2,211.6,187.9,214.3,193,219.5z M174.3,211.8c-9.1,9.1-16.5,10.6-24.3,12.2c-7.8-1.6-15.2-3.1-24.2-12.2
		c-0.9-0.9-1.7-1.7-2.4-2.6c2.7-0.9,5.4-1.4,8.1-1.9c5.9-1.2,11.9-2.4,18.5-6.9c6.7,4.6,12.7,5.8,18.6,6.9c2.7,0.5,5.4,1.1,8.1,1.9
		C175.9,210,175.1,210.9,174.3,211.8z M124.3,213.2c7.7,7.7,14.3,10.2,20.7,11.8c-6.4,1.5-13.1,4.1-20.7,11.8
		c-1.1,1.1-2.1,2.2-3.1,3.3c-4.5-1.7-9.1-4.4-14.2-9.6c-1.9-1.9-3.5-3.7-4.8-5.5c1.3-1.8,2.9-3.6,4.8-5.5c5.2-5.2,9.8-7.9,14.2-9.6
		C122.1,211,123.1,212.1,124.3,213.2z M105.5,218c-1.8,1.8-3.3,3.5-4.6,5.2c-3.9-6-5-11.5-6.2-17.2c-0.6-3-1.2-6-2.3-9.2
		c6.9-5.5,12.9-6.9,19.2-8.2c1.2,6.1,2.7,12.4,8.2,19.5C115.4,210,110.7,212.9,105.5,218z M100.9,226.8c1.3,1.7,2.8,3.4,4.6,5.2
		c5.1,5.1,9.9,8,14.3,9.8c-5.4,7.1-6.9,13.4-8.2,19.5c-6.2-1.3-12.3-2.7-19.2-8.2c1.1-3.1,1.7-6.2,2.3-9.2
		C95.9,238.3,97,232.8,100.9,226.8z M113.3,263.7c6.2,1.3,12.3,2.7,19.2,8.2c-1.1,3.1-1.7,6.2-2.3,9.1c-1.1,5.7-2.2,11.1-6.2,17.2
		c-1.3-1.7-2.8-3.4-4.6-5.2c-5.1-5.1-9.9-8-14.3-9.8C110.6,276.1,112.1,269.8,113.3,263.7z M130.2,318.9c0.6,3,1.2,6,2.3,9.1
		c-6.9,5.5-12.9,6.9-19.2,8.2c-1.2-6.1-2.7-12.4-8.2-19.5c4.5-1.8,9.2-4.6,14.3-9.8c1.8-1.8,3.3-3.5,4.6-5.2
		C128,307.8,129.1,313.3,130.2,318.9z M119.8,358.2c-4.5,1.8-9.2,4.6-14.3,9.8c-1.8,1.8-3.3,3.5-4.6,5.2c-3.9-6-5-11.5-6.2-17.2
		c-0.6-3-1.2-6-2.3-9.2c6.9-5.5,12.9-6.9,19.2-8.2C112.9,344.8,114.4,351.1,119.8,358.2z M105.5,382c5.1,5.1,9.9,8,14.3,9.8
		c-5.4,7.1-6.9,13.4-8.2,19.5c-6.2-1.3-12.3-2.7-19.2-8.2c1.1-3.1,1.7-6.2,2.3-9.2c1.1-5.7,2.2-11.1,6.2-17.2
		C102.2,378.5,103.7,380.2,105.5,382z M107,380.5c-1.9-1.9-3.5-3.7-4.8-5.5c1.3-1.8,2.9-3.6,4.8-5.5c5.2-5.2,9.8-7.9,14.2-9.6
		c0.9,1.1,1.9,2.2,3.1,3.3c7.6,7.7,14.3,10.2,20.7,11.8c-6.4,1.5-13.1,4.1-20.7,11.8c-1.1,1.1-2.1,2.2-3.1,3.3
		C116.8,388.4,112.1,385.7,107,380.5z M125.7,388.2c9.1-9.1,16.4-10.6,24.2-12.2c7.8,1.6,15.2,3.1,24.3,12.2
		c0.9,0.9,1.7,1.7,2.4,2.6c-2.7,0.8-5.4,1.4-8.1,1.9c-5.9,1.2-11.9,2.4-18.6,6.9c-6.7-4.5-12.7-5.7-18.5-6.9
		c-2.7-0.5-5.4-1.1-8.1-1.9C124.1,389.9,124.9,389.1,125.7,388.2z M175.7,386.8c-7.7-7.7-14.4-10.2-20.8-11.8
		c6.4-1.5,13.1-4.1,20.8-11.8c1.1-1.1,2.1-2.2,3-3.3c4.5,1.7,9.1,4.4,14.2,9.6c1.9,1.9,3.5,3.7,4.8,5.5c-1.3,1.8-2.9,3.6-4.8,5.5
		c-5.2,5.2-9.8,7.9-14.2,9.6C177.9,389,176.9,387.9,175.7,386.8z M194.5,382c1.8-1.8,3.3-3.5,4.6-5.2c4,6,5,11.5,6.2,17.2
		c0.6,3,1.2,6,2.3,9.1c-6.9,5.5-12.9,6.9-19.2,8.2c-1.2-6.1-2.7-12.4-8.2-19.5C184.6,390,189.3,387.1,194.5,382z M207.3,393.5
		c-1.2-5.9-2.4-11.9-6.9-18.6c4.6-6.7,5.8-12.7,6.9-18.6c0.5-2.7,1.1-5.4,1.9-8.1c0.8,0.7,1.7,1.5,2.6,2.4
		c9.1,9.1,10.6,16.5,12.2,24.3c-1.6,7.8-3.1,15.2-12.2,24.3c-0.9,0.9-1.7,1.7-2.6,2.4C208.4,398.9,207.8,396.3,207.3,393.5z
		 M208.2,344.8c-7.1-5.4-13.4-6.9-19.5-8.2c1.3-6.2,2.7-12.3,8.2-19.2c3.1,1.1,6.2,1.7,9.2,2.3c5.7,1.1,11.1,2.2,17.2,6.2
		c-1.7,1.3-3.4,2.8-5.2,4.6C212.9,335.6,210,340.4,208.2,344.8z M196.2,315.1c-4.5-1.7-9.1-4.4-14.2-9.6c-1.9-1.9-3.5-3.7-4.8-5.5
		c1.3-1.8,2.9-3.6,4.8-5.5c5.2-5.2,9.8-7.9,14.2-9.6c0.9,1.1,1.9,2.2,3.1,3.3c7.6,7.6,14.3,10.2,20.7,11.8
		c-6.4,1.5-13.1,4.1-20.7,11.8C198.1,312.9,197.1,314,196.2,315.1z M188.7,263.3c6.1-1.2,12.4-2.7,19.5-8.2
		c1.8,4.5,4.6,9.2,9.8,14.3c1.8,1.8,3.5,3.3,5.2,4.6c-6,3.9-11.5,5-17.2,6.2c-3,0.6-6,1.2-9.2,2.3
		C191.4,275.6,190,269.5,188.7,263.3z M207.3,243.5c-1.2-5.9-2.4-11.9-6.9-18.6c4.6-6.7,5.8-12.7,6.9-18.6c0.5-2.7,1.1-5.4,1.9-8.1
		c0.8,0.7,1.7,1.5,2.6,2.4c9.1,9.1,10.6,16.5,12.2,24.3c-1.6,7.8-3.1,15.2-12.2,24.3c-0.9,0.9-1.7,1.7-2.6,2.4
		C208.4,249,207.8,246.3,207.3,243.5z M208.2,194.8c-7.1-5.4-13.4-6.9-19.5-8.2c1.3-6.2,2.7-12.3,8.2-19.2c3.1,1.1,6.2,1.7,9.2,2.3
		c5.7,1.1,11.1,2.2,17.2,6.2c-1.7,1.3-3.4,2.8-5.2,4.6C212.9,185.6,210,190.4,208.2,194.8z M186.7,186.3c-6.2-1.3-12.3-2.7-19.2-8.2
		c1.1-3.1,1.7-6.2,2.3-9.2c1.1-5.7,2.2-11.1,6.2-17.2c1.3,1.7,2.8,3.4,4.6,5.2c5.1,5.1,9.9,8,14.3,9.8
		C189.4,173.8,187.9,180.2,186.7,186.3z M186.3,188.3c-1.3,6.2-2.7,12.3-8.2,19.2c-3.1-1.1-6.2-1.7-9.1-2.3
		c-5.7-1.1-11.1-2.2-17.2-6.2c1.7-1.3,3.4-2.8,5.2-4.6c5.1-5.1,8-9.9,9.8-14.3C173.9,185.6,180.2,187.1,186.3,188.3z M155.5,193
		c-1.9,1.9-3.7,3.5-5.5,4.8c-1.8-1.3-3.6-2.9-5.5-4.8c-5.2-5.2-7.9-9.8-9.6-14.2c1.1-0.9,2.2-1.9,3.3-3.1
		c7.7-7.7,10.2-14.4,11.8-20.7c1.5,6.4,4.1,13.1,11.8,20.8c1.1,1.1,2.2,2.1,3.3,3C163.4,183.2,160.7,187.9,155.5,193z M143,194.5
		c1.8,1.8,3.5,3.3,5.2,4.6c-6,3.9-11.5,5-17.2,6.2c-3,0.6-6,1.2-9.2,2.3c-5.5-6.9-6.9-12.9-8.2-19.2c6.1-1.2,12.4-2.7,19.5-8.2
		C135,184.6,137.9,189.3,143,194.5z M113.3,186.3c-1.2-6.1-2.7-12.4-8.2-19.5c4.5-1.8,9.2-4.6,14.3-9.8c1.8-1.8,3.3-3.5,4.6-5.2
		c4,6,5,11.5,6.2,17.2c0.6,3,1.2,6,2.3,9.1C125.6,183.6,119.6,185,113.3,186.3z M111.3,186.7c-6.1,1.2-12.4,2.7-19.5,8.2
		c-1.8-4.5-4.6-9.2-9.8-14.3c-1.8-1.8-3.5-3.3-5.2-4.6c6-4,11.5-5,17.2-6.2c3-0.6,6-1.2,9.1-2.3C108.6,174.4,110,180.4,111.3,186.7z
		 M92.7,206.5c1.2,5.9,2.4,11.9,6.9,18.5c-4.5,6.7-5.7,12.7-6.9,18.5c-0.5,2.7-1.1,5.4-1.9,8.1c-0.8-0.7-1.7-1.5-2.6-2.4
		c-9.1-9.1-10.6-16.5-12.2-24.3c1.6-7.8,3.1-15.2,12.2-24.3c0.9-0.9,1.7-1.7,2.6-2.4C91.7,201,92.2,203.7,92.7,206.5z M91.8,255.2
		c7.1,5.5,13.4,6.9,19.5,8.2c-1.3,6.2-2.7,12.3-8.2,19.2c-3.1-1.1-6.2-1.7-9.1-2.3c-5.7-1.1-11.1-2.2-17.2-6.2
		c1.7-1.3,3.4-2.8,5.2-4.6C87.1,264.3,90,259.6,91.8,255.2z M103.8,284.9c4.5,1.7,9.1,4.4,14.2,9.6c1.9,1.9,3.5,3.7,4.8,5.5
		c-1.3,1.8-2.9,3.6-4.8,5.5c-5.2,5.2-9.8,7.9-14.2,9.6c-0.9-1.1-1.9-2.2-3-3.3c-7.7-7.7-14.4-10.2-20.8-11.8
		c6.4-1.5,13.1-4.1,20.8-11.8C101.9,287.1,102.9,286,103.8,284.9z M111.3,336.7c-6.1,1.2-12.4,2.7-19.5,8.2
		c-1.8-4.5-4.6-9.2-9.8-14.3c-1.8-1.8-3.5-3.3-5.2-4.6c6-4,11.5-5,17.2-6.2c3-0.6,6-1.2,9.1-2.3C108.6,324.4,110,330.4,111.3,336.7z
		 M92.7,356.4c1.2,5.9,2.4,11.9,6.9,18.5c-4.5,6.7-5.7,12.7-6.9,18.5c-0.5,2.7-1.1,5.4-1.9,8.1c-0.8-0.7-1.7-1.5-2.6-2.4
		c-9.1-9.1-10.6-16.5-12.2-24.3c1.6-7.8,3.1-15.2,12.2-24.3c0.9-0.9,1.7-1.7,2.6-2.4C91.7,351,92.2,353.7,92.7,356.4z M91.8,405.1
		c7.1,5.5,13.4,6.9,19.5,8.2c-1.3,6.2-2.7,12.3-8.2,19.2c-3.1-1.1-6.2-1.7-9.1-2.3c-5.7-1.1-11.1-2.2-17.2-6.2
		c1.7-1.3,3.4-2.8,5.2-4.6C87.1,414.3,90,409.6,91.8,405.1z M113.3,413.7c6.2,1.3,12.3,2.7,19.2,8.2c-1.1,3.1-1.7,6.2-2.3,9.1
		c-1.1,5.7-2.2,11.1-6.2,17.2c-1.3-1.7-2.8-3.4-4.6-5.2c-5.1-5.1-9.9-8-14.3-9.8C110.6,426.1,112.1,419.8,113.3,413.7z M113.7,411.7
		c1.3-6.2,2.7-12.3,8.2-19.2c3.1,1.1,6.2,1.7,9.2,2.3c5.7,1.1,11.1,2.2,17.2,6.2c-1.7,1.3-3.4,2.8-5.2,4.6c-5.1,5.1-8,9.9-9.8,14.3
		C126.2,414.4,119.8,412.9,113.7,411.7z M144.5,407c1.9-1.9,3.7-3.5,5.5-4.8c1.8,1.3,3.6,2.9,5.5,4.8c5.2,5.2,7.9,9.8,9.6,14.2
		c-1.1,0.9-2.2,1.9-3.3,3c-7.7,7.7-10.2,14.4-11.8,20.8c-1.5-6.4-4.1-13.1-11.8-20.7c-1.1-1.1-2.2-2.1-3.3-3.1
		C136.6,416.7,139.3,412.1,144.5,407z M157,405.5c-1.8-1.8-3.5-3.3-5.2-4.6c6-4,11.5-5,17.2-6.2c3-0.6,6-1.2,9.1-2.3
		c5.5,6.9,6.9,12.9,8.2,19.2c-6.1,1.2-12.4,2.7-19.5,8.2C165,415.4,162.1,410.6,157,405.5z M186.7,413.7c1.2,6.1,2.7,12.4,8.2,19.5
		c-4.5,1.8-9.2,4.6-14.3,9.8c-1.8,1.8-3.3,3.5-4.6,5.2c-3.9-6-5-11.5-6.2-17.2c-0.6-3-1.2-6-2.3-9.2
		C174.4,416.4,180.4,415,186.7,413.7z M188.7,413.3c6.1-1.2,12.4-2.7,19.5-8.2c1.8,4.5,4.6,9.2,9.8,14.3c1.8,1.8,3.5,3.3,5.2,4.6
		c-6,3.9-11.5,5-17.2,6.2c-3,0.6-6,1.2-9.2,2.3C191.4,425.6,190,419.5,188.7,413.3z M206.5,432.2c5.9-1.2,11.9-2.4,18.5-6.9
		c6.7,4.6,12.7,5.8,18.6,6.9c2.7,0.5,5.4,1.1,8.1,1.9c-0.7,0.8-1.5,1.7-2.4,2.6c-9.1,9.1-16.5,10.6-24.3,12.2
		c-7.8-1.6-15.2-3.1-24.2-12.2c-0.9-0.9-1.7-1.7-2.4-2.6C201,433.3,203.7,432.8,206.5,432.2z M219.5,418c-5.2-5.2-7.9-9.8-9.6-14.2
		c1.1-0.9,2.2-1.9,3.3-3.1c7.7-7.7,10.2-14.4,11.8-20.7c1.5,6.4,4.1,13.1,11.8,20.8c1.1,1.1,2.2,2.1,3.3,3.1
		c-1.7,4.5-4.4,9.1-9.6,14.2c-1.9,1.9-3.7,3.5-5.5,4.8C223.2,421.5,221.4,419.9,219.5,418z M213.2,349.3c-1.1-1.1-2.2-2.1-3.3-3.1
		c1.7-4.5,4.4-9.1,9.6-14.2c1.9-1.9,3.7-3.5,5.5-4.8c1.8,1.3,3.6,2.9,5.5,4.8c5.2,5.2,7.9,9.8,9.6,14.2c-1.1,0.9-2.2,1.9-3.3,3
		c-7.7,7.7-10.2,14.4-11.8,20.8C223.5,363.6,220.9,356.9,213.2,349.3z M225,324.6c-6.7-4.5-12.7-5.7-18.5-6.9
		c-2.7-0.5-5.4-1.1-8.1-1.9c0.7-0.8,1.5-1.7,2.4-2.6c9.1-9.1,16.4-10.6,24.2-12.2c7.8,1.6,15.2,3.1,24.3,12.2
		c0.9,0.9,1.7,1.7,2.4,2.6c-2.7,0.8-5.4,1.4-8.1,1.9C237.7,318.9,231.7,320.1,225,324.6z M200.7,286.8c-0.9-0.9-1.7-1.7-2.4-2.6
		c2.7-0.9,5.4-1.4,8.1-1.9c5.9-1.2,11.9-2.4,18.5-6.9c6.7,4.6,12.7,5.8,18.6,6.9c2.7,0.5,5.4,1.1,8.1,1.9c-0.7,0.8-1.5,1.7-2.4,2.6
		c-9.1,9.1-16.5,10.6-24.3,12.2C217.2,297.4,209.8,295.8,200.7,286.8z M219.5,268c-5.2-5.2-7.9-9.8-9.6-14.2
		c1.1-0.9,2.2-1.9,3.3-3.1c7.7-7.7,10.2-14.4,11.8-20.7c1.5,6.4,4.1,13.1,11.8,20.8c1.1,1.1,2.2,2.1,3.3,3
		c-1.7,4.5-4.4,9.1-9.6,14.2c-1.9,1.9-3.7,3.5-5.5,4.8C223.2,271.5,221.4,269.9,219.5,268z M225,220c-1.5-6.4-4.1-13.1-11.8-20.7
		c-1.1-1.1-2.2-2.1-3.3-3.1c1.7-4.5,4.4-9.1,9.6-14.2c1.9-1.9,3.7-3.5,5.5-4.8c1.8,1.3,3.6,2.9,5.5,4.8c5.2,5.2,7.9,9.8,9.6,14.2
		c-1.1,0.9-2.2,1.9-3.3,3.1C229.1,206.9,226.5,213.6,225,220z M225,174.6c-6.7-4.5-12.7-5.7-18.5-6.9c-2.7-0.5-5.4-1.1-8.1-1.9
		c0.7-0.8,1.5-1.7,2.4-2.6c9.1-9.1,16.4-10.6,24.2-12.2c7.8,1.6,15.2,3.1,24.3,12.2c0.9,0.9,1.7,1.7,2.4,2.6
		c-2.7,0.8-5.4,1.4-8.1,1.9C237.7,168.9,231.7,170.1,225,174.6z M200.7,136.8c-0.9-0.9-1.7-1.7-2.4-2.6c2.7-0.9,5.4-1.4,8.1-1.9
		c5.9-1.2,11.9-2.4,18.5-6.9c6.7,4.6,12.7,5.8,18.6,6.9c2.7,0.5,5.4,1.1,8.1,1.9c-0.7,0.8-1.5,1.7-2.4,2.6
		c-9.1,9.1-16.5,10.6-24.3,12.2C217.2,147.4,209.8,145.8,200.7,136.8z M199.3,138.2c7.7,7.7,14.4,10.2,20.7,11.8
		c-6.4,1.5-13.1,4.1-20.7,11.8c-1.1,1.1-2.1,2.2-3.1,3.3c-4.5-1.7-9.1-4.4-14.2-9.6c-1.9-1.9-3.5-3.7-4.8-5.5
		c1.3-1.8,2.9-3.6,4.8-5.5c5.2-5.2,9.8-7.9,14.2-9.6C197.1,136,198.1,137.1,199.3,138.2z M180.5,143c-1.8,1.8-3.3,3.5-4.6,5.2
		c-3.9-6-5-11.5-6.2-17.2c-0.6-3-1.2-6-2.3-9.2c6.9-5.5,12.9-6.9,19.2-8.2c1.2,6.1,2.7,12.4,8.2,19.5
		C190.4,135,185.7,137.9,180.5,143z M167.7,131.5c1.2,5.9,2.4,11.9,6.9,18.5c-4.5,6.7-5.7,12.7-6.9,18.5c-0.5,2.7-1.1,5.4-1.9,8.1
		c-0.8-0.7-1.7-1.5-2.6-2.4c-9.1-9.1-10.6-16.5-12.2-24.3c1.6-7.8,3.1-15.2,12.2-24.3c0.9-0.9,1.7-1.7,2.6-2.4
		C166.7,126,167.2,128.7,167.7,131.5z M161.8,124.3c-7.7,7.7-10.2,14.4-11.8,20.8c-1.5-6.4-4.1-13.1-11.8-20.7
		c-1.1-1.1-2.2-2.1-3.3-3.1c1.7-4.5,4.4-9.1,9.6-14.2c1.9-1.9,3.7-3.5,5.5-4.8c1.8,1.3,3.6,2.9,5.5,4.8c5.2,5.2,7.9,9.8,9.6,14.2
		C164,122.1,162.9,123.1,161.8,124.3z M136.8,125.7c9.1,9.1,10.6,16.5,12.2,24.3c-1.6,7.8-3.1,15.2-12.2,24.3
		c-0.9,0.9-1.7,1.7-2.6,2.4c-0.8-2.7-1.4-5.4-1.9-8.1c-1.2-5.9-2.4-11.9-6.9-18.6c4.6-6.7,5.8-12.7,6.9-18.6
		c0.5-2.7,1.1-5.4,1.9-8.1C135,124.1,135.9,124.9,136.8,125.7z M130.2,131c-1.1,5.7-2.2,11.1-6.2,17.2c-1.3-1.7-2.8-3.4-4.6-5.2
		c-5.1-5.1-9.9-8-14.3-9.8c5.5-7.1,6.9-13.4,8.2-19.5c6.2,1.3,12.3,2.7,19.2,8.2C131.4,125,130.8,128.1,130.2,131z M118,144.5
		c1.9,1.9,3.5,3.7,4.8,5.5c-1.3,1.8-2.9,3.6-4.8,5.5c-5.2,5.2-9.8,7.9-14.2,9.6c-0.9-1.1-1.9-2.2-3-3.3
		c-7.7-7.7-14.4-10.2-20.8-11.8c6.4-1.5,13.1-4.1,20.8-11.8c1.1-1.1,2.1-2.2,3-3.3C108.2,136.6,112.9,139.3,118,144.5z M99.3,136.8
		c-9.1,9.1-16.5,10.6-24.3,12.2c-7.8-1.6-15.2-3.1-24.2-12.2c-0.9-0.9-1.7-1.7-2.4-2.6c2.7-0.9,5.4-1.4,8.1-1.9
		c5.9-1.2,11.9-2.4,18.5-6.9c6.7,4.6,12.7,5.8,18.6,6.9c2.7,0.5,5.4,1.1,8.1,1.9C100.9,135,100.1,135.9,99.3,136.8z M99.3,163.2
		c0.9,0.9,1.7,1.7,2.4,2.6c-2.7,0.8-5.4,1.4-8.1,1.9c-5.9,1.2-11.9,2.4-18.6,6.9c-6.7-4.5-12.7-5.7-18.5-6.9
		c-2.7-0.5-5.4-1.1-8.1-1.9c0.7-0.8,1.5-1.7,2.4-2.6c9.1-9.1,16.4-10.6,24.2-12.2C82.8,152.6,90.2,154.2,99.3,163.2z M75,177.2
		c1.8,1.3,3.6,2.9,5.5,4.8c5.2,5.2,7.9,9.8,9.6,14.2c-1.1,0.9-2.2,1.9-3.3,3c-7.7,7.7-10.2,14.4-11.8,20.8
		c-1.5-6.4-4.1-13.1-11.8-20.7c-1.1-1.1-2.2-2.1-3.3-3.1c1.7-4.5,4.4-9.1,9.6-14.2C71.4,180.1,73.2,178.5,75,177.2z M86.8,250.7
		c1.1,1.1,2.2,2.1,3.3,3c-1.7,4.5-4.4,9.1-9.6,14.2c-1.9,1.9-3.7,3.5-5.5,4.8c-1.8-1.3-3.6-2.9-5.5-4.8c-5.2-5.2-7.9-9.8-9.6-14.2
		c1.1-0.9,2.2-1.9,3.3-3.1c7.7-7.7,10.2-14.4,11.8-20.7C76.5,236.4,79.1,243.1,86.8,250.7z M93.6,282.3c2.7,0.5,5.4,1.1,8.1,1.9
		c-0.7,0.8-1.5,1.7-2.4,2.6c-9.1,9.1-16.5,10.6-24.3,12.2c-7.8-1.6-15.2-3.1-24.2-12.2c-0.9-0.9-1.7-1.7-2.4-2.6
		c2.7-0.9,5.4-1.4,8.1-1.9c5.9-1.2,11.9-2.4,18.5-6.9C81.7,279.9,87.7,281.1,93.6,282.3z M75,301.1c7.8,1.6,15.2,3.1,24.3,12.2
		c0.9,0.9,1.7,1.7,2.4,2.6c-2.7,0.8-5.4,1.4-8.1,1.9c-5.9,1.2-11.9,2.4-18.6,6.9c-6.7-4.5-12.7-5.7-18.5-6.9
		c-2.7-0.5-5.4-1.1-8.1-1.9c0.7-0.8,1.5-1.7,2.4-2.6C59.8,304.2,67.2,302.6,75,301.1z M75,327.2c1.8,1.3,3.6,2.9,5.5,4.8
		c5.2,5.2,7.9,9.8,9.6,14.2c-1.1,0.9-2.2,1.9-3.3,3c-7.7,7.7-10.2,14.4-11.8,20.8c-1.5-6.4-4.1-13.1-11.8-20.7
		c-1.1-1.1-2.2-2.1-3.3-3.1c1.7-4.5,4.4-9.1,9.6-14.2C71.4,330.1,73.2,328.5,75,327.2z M86.8,400.7c1.1,1.1,2.2,2.1,3.3,3
		c-1.7,4.5-4.4,9.1-9.6,14.2c-1.9,1.9-3.7,3.5-5.5,4.8c-1.8-1.3-3.6-2.9-5.5-4.8c-5.2-5.2-7.9-9.8-9.6-14.2c1.1-0.9,2.2-1.9,3.3-3.1
		c7.7-7.7,10.2-14.4,11.8-20.7C76.5,386.4,79.1,393.1,86.8,400.7z M93.6,432.3c2.7,0.5,5.4,1.1,8.1,1.9c-0.7,0.8-1.5,1.7-2.4,2.6
		c-9.1,9.1-16.5,10.6-24.3,12.2c-7.8-1.6-15.2-3.1-24.2-12.2c-0.9-0.9-1.7-1.7-2.4-2.6c2.7-0.9,5.4-1.4,8.1-1.9
		c5.9-1.2,11.9-2.4,18.5-6.9C81.7,429.9,87.7,431.1,93.6,432.3z M99.3,463.2c0.9,0.9,1.7,1.7,2.4,2.6c-2.7,0.8-5.4,1.4-8.1,1.9
		c-5.9,1.2-11.9,2.4-18.6,6.9c-6.7-4.5-12.7-5.7-18.5-6.9c-2.7-0.5-5.4-1.1-8.1-1.9c0.7-0.8,1.5-1.7,2.4-2.6
		c9.1-9.1,16.4-10.6,24.2-12.2C82.8,452.6,90.2,454.1,99.3,463.2z M100.7,461.7c-7.7-7.7-14.4-10.2-20.8-11.8
		c6.4-1.5,13.1-4.1,20.8-11.8c1.1-1.1,2.1-2.2,3-3.3c4.5,1.7,9.1,4.4,14.2,9.6c1.9,1.9,3.5,3.7,4.8,5.5c-1.3,1.8-2.9,3.6-4.8,5.5
		c-5.2,5.2-9.8,7.9-14.2,9.6C102.9,464,101.9,462.9,100.7,461.7z M119.5,457c1.8-1.8,3.3-3.5,4.6-5.2c4,6,5,11.5,6.2,17.2
		c0.6,3,1.2,6,2.3,9.1c-6.9,5.5-12.9,6.9-19.2,8.2c-1.2-6.1-2.7-12.4-8.2-19.5C109.6,465,114.3,462.1,119.5,457z M132.3,468.5
		c-1.2-5.9-2.4-11.9-6.9-18.6c4.6-6.7,5.8-12.7,6.9-18.6c0.5-2.7,1.1-5.4,1.9-8.1c0.8,0.7,1.7,1.5,2.6,2.4
		c9.1,9.1,10.6,16.5,12.2,24.3c-1.6,7.8-3.1,15.2-12.2,24.3c-0.9,0.9-1.7,1.7-2.6,2.4C133.4,473.9,132.8,471.3,132.3,468.5z
		 M138.2,475.7c7.7-7.7,10.2-14.4,11.8-20.7c1.5,6.4,4.1,13.1,11.8,20.8c1.1,1.1,2.2,2.1,3.3,3.1c-1.7,4.5-4.4,9.1-9.6,14.2
		c-1.9,1.9-3.7,3.5-5.5,4.8c-1.8-1.3-3.6-2.9-5.5-4.8c-5.2-5.2-7.9-9.8-9.6-14.2C136,477.8,137.1,476.8,138.2,475.7z M163.2,474.3
		c-9.1-9.1-10.6-16.5-12.2-24.3c1.6-7.8,3.1-15.2,12.2-24.3c0.9-0.9,1.7-1.7,2.6-2.4c0.9,2.7,1.4,5.4,1.9,8.1
		c1.2,5.9,2.4,11.9,6.9,18.5c-4.5,6.7-5.7,12.7-6.9,18.5c-0.5,2.7-1.1,5.4-1.9,8.1C165,475.9,164.1,475.1,163.2,474.3z M169.8,468.9
		c1.1-5.7,2.2-11.1,6.2-17.2c1.3,1.7,2.8,3.4,4.6,5.2c5.1,5.1,9.9,8,14.3,9.8c-5.4,7.1-6.9,13.4-8.2,19.5
		c-6.2-1.3-12.3-2.7-19.2-8.2C168.6,475,169.2,471.9,169.8,468.9z M182,455.5c-1.9-1.9-3.5-3.7-4.8-5.5c1.3-1.8,2.9-3.6,4.8-5.5
		c5.2-5.2,9.8-7.9,14.2-9.6c0.9,1.1,1.9,2.2,3.1,3.3c7.7,7.7,14.4,10.2,20.7,11.8c-6.4,1.5-13.1,4.1-20.7,11.8
		c-1.1,1.1-2.1,2.2-3.1,3.3C191.8,463.4,187.1,460.7,182,455.5z M200.7,463.2c9.1-9.1,16.4-10.6,24.2-12.2
		c7.8,1.6,15.2,3.1,24.3,12.2c0.9,0.9,1.7,1.7,2.4,2.6c-2.7,0.8-5.4,1.4-8.1,1.9c-5.9,1.2-11.9,2.4-18.6,6.9
		c-6.7-4.5-12.7-5.7-18.5-6.9c-2.7-0.5-5.4-1.1-8.1-1.9C199.1,464.9,199.9,464.1,200.7,463.2z M250.7,461.7
		c-7.7-7.7-14.4-10.2-20.8-11.8c6.4-1.5,13.1-4.1,20.8-11.8c1.1-1.1,2.1-2.2,3-3.3c4.5,1.7,9.1,4.4,14.2,9.6
		c1.9,1.9,3.5,3.7,4.8,5.5c-1.3,1.8-2.9,3.6-4.8,5.5c-5.2,5.2-9.8,7.9-14.2,9.6C252.9,464,251.9,462.9,250.7,461.7z M253.1,432.5
		c-3.1-1.1-6.2-1.7-9.1-2.3c-5.7-1.1-11.1-2.2-17.2-6.2c1.7-1.3,3.4-2.8,5.2-4.6c5.1-5.1,8-9.9,9.8-14.3c7.1,5.5,13.4,6.9,19.5,8.2
		C260,419.5,258.6,425.6,253.1,432.5z M240.8,401.7c-0.8-0.7-1.7-1.5-2.6-2.4c-9.1-9.1-10.6-16.5-12.2-24.3
		c1.6-7.8,3.1-15.2,12.2-24.3c0.9-0.9,1.7-1.7,2.6-2.4c0.9,2.7,1.4,5.4,1.9,8.1c1.2,5.9,2.4,11.9,6.9,18.5
		c-4.5,6.7-5.7,12.7-6.9,18.5C242.2,396.3,241.7,398.9,240.8,401.7z M232,330.5c-1.8-1.8-3.5-3.3-5.2-4.6c6-4,11.5-5,17.2-6.2
		c3-0.6,6-1.2,9.1-2.3c5.5,6.9,6.9,12.9,8.2,19.2c-6.1,1.2-12.4,2.7-19.5,8.2C240,340.4,237.1,335.6,232,330.5z M250.7,311.8
		c-7.7-7.7-14.4-10.2-20.8-11.8c6.4-1.5,13.1-4.1,20.8-11.8c1.1-1.1,2.1-2.2,3-3.3c4.5,1.7,9.1,4.4,14.2,9.6
		c1.9,1.9,3.5,3.7,4.8,5.5c-1.3,1.8-2.9,3.6-4.8,5.5c-5.2,5.2-9.8,7.9-14.2,9.6C252.9,314,251.9,312.9,250.7,311.8z M253.1,282.5
		c-3.1-1.1-6.2-1.7-9.1-2.3c-5.7-1.1-11.1-2.2-17.2-6.2c1.7-1.3,3.4-2.8,5.2-4.6c5.1-5.1,8-9.9,9.8-14.3c7.1,5.5,13.4,6.9,19.5,8.2
		C260,269.6,258.6,275.6,253.1,282.5z M240.8,251.7c-0.8-0.7-1.7-1.5-2.6-2.4c-9.1-9.1-10.6-16.5-12.2-24.3
		c1.6-7.8,3.1-15.2,12.2-24.3c0.9-0.9,1.7-1.7,2.6-2.4c0.9,2.7,1.4,5.4,1.9,8.1c1.2,5.9,2.4,11.9,6.9,18.5
		c-4.5,6.7-5.7,12.7-6.9,18.5C242.2,246.3,241.7,249,240.8,251.7z M232,180.5c-1.8-1.8-3.5-3.3-5.2-4.6c6-4,11.5-5,17.2-6.2
		c3-0.6,6-1.2,9.1-2.3c5.5,6.9,6.9,12.9,8.2,19.2c-6.1,1.2-12.4,2.7-19.5,8.2C240,190.4,237.1,185.7,232,180.5z M250.7,161.8
		c-7.7-7.7-14.4-10.2-20.8-11.8c6.4-1.5,13.1-4.1,20.8-11.8c1.1-1.1,2.1-2.2,3-3.3c4.5,1.7,9.1,4.4,14.2,9.6
		c1.9,1.9,3.5,3.7,4.8,5.5c-1.3,1.8-2.9,3.6-4.8,5.5c-5.2,5.2-9.8,7.9-14.2,9.6C252.9,164,251.9,162.9,250.7,161.8z M253.1,132.5
		c-3.1-1.1-6.2-1.7-9.1-2.3c-5.7-1.1-11.1-2.2-17.2-6.2c1.7-1.3,3.4-2.8,5.2-4.6c5.1-5.1,8-9.9,9.8-14.3c7.1,5.5,13.4,6.9,19.5,8.2
		C260,119.6,258.6,125.6,253.1,132.5z M230.5,118c-1.9,1.9-3.7,3.5-5.5,4.8c-1.8-1.3-3.6-2.9-5.5-4.8c-5.2-5.2-7.9-9.8-9.6-14.2
		c1.1-0.9,2.2-1.9,3.3-3.1c7.7-7.7,10.2-14.4,11.8-20.7c1.5,6.4,4.1,13.1,11.8,20.8c1.1,1.1,2.2,2.1,3.3,3
		C238.4,108.2,235.7,112.9,230.5,118z M218,119.5c1.8,1.8,3.5,3.3,5.2,4.6c-6,3.9-11.5,5-17.2,6.2c-3,0.6-6,1.2-9.2,2.3
		c-5.5-6.9-6.9-12.9-8.2-19.2c6.1-1.2,12.4-2.7,19.5-8.2C210,109.6,212.9,114.3,218,119.5z M188.3,111.3c-1.2-6.1-2.7-12.4-8.2-19.5
		c4.5-1.8,9.2-4.6,14.3-9.8c1.8-1.8,3.3-3.5,4.6-5.2c4,6,5,11.5,6.2,17.2c0.6,3,1.2,6,2.3,9.1C200.6,108.6,194.6,110,188.3,111.3z
		 M186.3,111.7c-6.1,1.2-12.4,2.7-19.5,8.2c-1.8-4.5-4.6-9.2-9.8-14.3c-1.8-1.8-3.5-3.3-5.2-4.6c6-4,11.5-5,17.2-6.2
		c3-0.6,6-1.2,9.1-2.3C183.6,99.4,185,105.4,186.3,111.7z M168.6,92.7c-5.9,1.2-11.9,2.4-18.6,6.9c-6.7-4.5-12.7-5.7-18.5-6.9
		c-2.7-0.5-5.4-1.1-8.1-1.9c0.7-0.8,1.5-1.7,2.4-2.6c9.1-9.1,16.4-10.6,24.2-12.2c7.8,1.6,15.2,3.1,24.3,12.2
		c0.9,0.9,1.7,1.7,2.4,2.6C174,91.6,171.3,92.2,168.6,92.7z M131.1,94.8c5.7,1.1,11.1,2.2,17.2,6.2c-1.7,1.3-3.4,2.8-5.2,4.6
		c-5.1,5.1-8,9.9-9.8,14.3c-7.1-5.4-13.4-6.9-19.5-8.2c1.3-6.2,2.7-12.3,8.2-19.2C125,93.6,128.1,94.2,131.1,94.8z M111.7,111.3
		c-6.2-1.3-12.3-2.7-19.2-8.2c1.1-3.1,1.7-6.2,2.3-9.2c1.1-5.7,2.2-11.1,6.2-17.2c1.3,1.7,2.8,3.4,4.6,5.2c5.1,5.1,9.9,8,14.3,9.8
		C114.4,98.9,112.9,105.2,111.7,111.3z M111.3,113.3c-1.3,6.2-2.7,12.3-8.2,19.2c-3.1-1.1-6.2-1.7-9.1-2.3
		c-5.7-1.1-11.1-2.2-17.2-6.2c1.7-1.3,3.4-2.8,5.2-4.6c5.1-5.1,8-9.9,9.8-14.3C98.9,110.6,105.2,112.1,111.3,113.3z M80.5,118
		c-1.9,1.9-3.7,3.5-5.5,4.8c-1.8-1.3-3.6-2.9-5.5-4.8c-5.2-5.2-7.9-9.8-9.6-14.2c1.1-0.9,2.2-1.9,3.3-3.1C70.9,93.1,73.5,86.4,75,80
		c1.5,6.4,4.1,13.1,11.8,20.8c1.1,1.1,2.2,2.1,3.3,3C88.4,108.2,85.7,112.9,80.5,118z M68,119.5c1.8,1.8,3.5,3.3,5.2,4.6
		c-6,3.9-11.5,5-17.2,6.2c-3,0.6-6,1.2-9.2,2.3c-5.5-6.9-6.9-12.9-8.2-19.2c6.1-1.2,12.4-2.7,19.5-8.2C60,109.6,62.9,114.3,68,119.5
		z M49.3,138.2c7.7,7.7,14.4,10.2,20.7,11.8c-6.4,1.5-13.1,4.1-20.7,11.8c-1.1,1.1-2.1,2.2-3.1,3.3c-4.5-1.7-9.1-4.4-14.2-9.6
		c-1.9-1.9-3.5-3.7-4.8-5.5c1.3-1.8,2.9-3.6,4.8-5.5c5.2-5.2,9.8-7.9,14.2-9.6C47.1,136,48.1,137.1,49.3,138.2z M46.9,167.5
		c3.1,1.1,6.2,1.7,9.2,2.3c5.7,1.1,11.1,2.2,17.2,6.2c-1.7,1.3-3.4,2.8-5.2,4.6c-5.1,5.1-8,9.9-9.8,14.3c-7.1-5.4-13.4-6.9-19.5-8.2
		C40,180.4,41.4,174.4,46.9,167.5z M59.2,198.3c0.8,0.7,1.7,1.5,2.6,2.4c9.1,9.1,10.6,16.5,12.2,24.3c-1.6,7.8-3.1,15.2-12.2,24.3
		c-0.9,0.9-1.7,1.7-2.6,2.4c-0.8-2.7-1.4-5.4-1.9-8.1c-1.2-5.9-2.4-11.9-6.9-18.6c4.6-6.7,5.8-12.7,6.9-18.6
		C57.8,203.7,58.4,201,59.2,198.3z M68,269.5c1.8,1.8,3.5,3.3,5.2,4.6c-6,3.9-11.5,5-17.2,6.2c-3,0.6-6,1.2-9.2,2.3
		c-5.5-6.9-6.9-12.9-8.2-19.2c6.1-1.2,12.4-2.7,19.5-8.2C60,259.6,62.9,264.3,68,269.5z M49.3,288.2c7.7,7.7,14.3,10.2,20.7,11.8
		c-6.4,1.5-13.1,4.1-20.7,11.8c-1.1,1.1-2.1,2.2-3.1,3.3c-4.5-1.7-9.1-4.4-14.2-9.6c-1.9-1.9-3.5-3.7-4.8-5.5
		c1.3-1.8,2.9-3.6,4.8-5.5c5.2-5.2,9.8-7.9,14.2-9.6C47.1,286,48.1,287.1,49.3,288.2z M46.9,317.5c3.1,1.1,6.2,1.7,9.2,2.3
		c5.7,1.1,11.1,2.2,17.2,6.2c-1.7,1.3-3.4,2.8-5.2,4.6c-5.1,5.1-8,9.9-9.8,14.3c-7.1-5.4-13.4-6.9-19.5-8.2
		C40,330.4,41.4,324.4,46.9,317.5z M59.2,348.3c0.8,0.7,1.7,1.5,2.6,2.4c9.1,9.1,10.6,16.5,12.2,24.3c-1.6,7.8-3.1,15.2-12.2,24.3
		c-0.9,0.9-1.7,1.7-2.6,2.4c-0.8-2.7-1.4-5.4-1.9-8.1c-1.2-5.9-2.4-11.9-6.9-18.6c4.6-6.7,5.8-12.7,6.9-18.6
		C57.8,353.7,58.4,351,59.2,348.3z M68,419.5c1.8,1.8,3.5,3.3,5.2,4.6c-6,3.9-11.5,5-17.2,6.2c-3,0.6-6,1.2-9.2,2.3
		c-5.5-6.9-6.9-12.9-8.2-19.2c6.1-1.2,12.4-2.7,19.5-8.2C60,409.6,62.9,414.3,68,419.5z M49.3,438.2c7.7,7.7,14.4,10.2,20.7,11.8
		c-6.4,1.5-13.1,4.1-20.7,11.8c-1.1,1.1-2.1,2.2-3.1,3.3c-4.5-1.7-9.1-4.4-14.2-9.6c-1.9-1.9-3.5-3.7-4.8-5.5
		c1.3-1.8,2.9-3.6,4.8-5.5c5.2-5.2,9.8-7.9,14.2-9.6C47.1,436,48.1,437.1,49.3,438.2z M46.9,467.5c3.1,1.1,6.2,1.7,9.2,2.3
		c5.7,1.1,11.1,2.2,17.2,6.2c-1.7,1.3-3.4,2.8-5.2,4.6c-5.1,5.1-8,9.9-9.8,14.3c-7.1-5.4-13.4-6.9-19.5-8.2
		C40,480.4,41.4,474.4,46.9,467.5z M69.5,482c1.9-1.9,3.7-3.5,5.5-4.8c1.8,1.3,3.6,2.9,5.5,4.8c5.2,5.2,7.9,9.8,9.6,14.2
		c-1.1,0.9-2.2,1.9-3.3,3c-7.7,7.7-10.2,14.4-11.8,20.8c-1.5-6.4-4.1-13.1-11.8-20.7c-1.1-1.1-2.2-2.1-3.3-3.1
		C61.6,491.7,64.3,487.1,69.5,482z M82,480.5c-1.8-1.8-3.5-3.3-5.2-4.6c6-4,11.5-5,17.2-6.2c3-0.6,6-1.2,9.1-2.3
		c5.5,6.9,6.9,12.9,8.2,19.2c-6.1,1.2-12.4,2.7-19.5,8.2C90,490.3,87.1,485.6,82,480.5z M111.7,488.7c1.2,6.1,2.7,12.4,8.2,19.5
		c-4.5,1.8-9.2,4.6-14.3,9.8c-1.8,1.8-3.3,3.5-4.6,5.2c-3.9-6-5-11.5-6.2-17.2c-0.6-3-1.2-6-2.3-9.2
		C99.4,491.4,105.4,490,111.7,488.7z M113.7,488.3c6.1-1.2,12.4-2.7,19.5-8.2c1.8,4.5,4.6,9.2,9.8,14.3c1.8,1.8,3.5,3.3,5.2,4.6
		c-6,3.9-11.5,5-17.2,6.2c-3,0.6-6,1.2-9.2,2.3C116.4,500.6,115,494.5,113.7,488.3z M131.5,507.2c5.9-1.2,11.9-2.4,18.5-6.9
		c6.7,4.6,12.7,5.8,18.6,6.9c2.7,0.5,5.4,1.1,8.1,1.9c-0.7,0.8-1.5,1.7-2.4,2.6c-9.1,9.1-16.5,10.6-24.3,12.2
		c-7.8-1.6-15.2-3.1-24.2-12.2c-0.9-0.9-1.7-1.7-2.4-2.6C126,508.3,128.7,507.8,131.5,507.2z M169,505.2c-5.7-1.1-11.1-2.2-17.2-6.2
		c1.7-1.3,3.4-2.8,5.2-4.6c5.1-5.1,8-9.9,9.8-14.3c7.1,5.5,13.4,6.9,19.5,8.2c-1.3,6.2-2.7,12.3-8.2,19.2
		C175,506.4,171.9,505.8,169,505.2z M188.3,488.7c6.2,1.3,12.3,2.7,19.2,8.2c-1.1,3.1-1.7,6.2-2.3,9.1c-1.1,5.7-2.2,11.1-6.2,17.2
		c-1.3-1.7-2.8-3.4-4.6-5.2c-5.1-5.1-9.9-8-14.3-9.8C185.6,501.1,187.1,494.8,188.3,488.7z M188.7,486.7c1.3-6.2,2.7-12.3,8.2-19.2
		c3.1,1.1,6.2,1.7,9.2,2.3c5.7,1.1,11.1,2.2,17.2,6.2c-1.7,1.3-3.4,2.8-5.2,4.6c-5.1,5.1-8,9.9-9.8,14.3
		C201.2,489.4,194.8,487.9,188.7,486.7z M219.5,482c1.9-1.9,3.7-3.5,5.5-4.8c1.8,1.3,3.6,2.9,5.5,4.8c5.2,5.2,7.9,9.8,9.6,14.2
		c-1.1,0.9-2.2,1.9-3.3,3c-7.7,7.7-10.2,14.4-11.8,20.8c-1.5-6.4-4.1-13.1-11.8-20.7c-1.1-1.1-2.2-2.1-3.3-3.1
		C211.6,491.7,214.3,487.1,219.5,482z M232,480.5c-1.8-1.8-3.5-3.3-5.2-4.6c6-4,11.5-5,17.2-6.2c3-0.6,6-1.2,9.1-2.3
		c5.5,6.9,6.9,12.9,8.2,19.2c-6.1,1.2-12.4,2.7-19.5,8.2C240,490.3,237.1,485.6,232,480.5z M261.7,488.7c1.2,6.1,2.7,12.4,8.2,19.5
		c-4.5,1.8-9.2,4.6-14.3,9.8c-1.8,1.8-3.3,3.5-4.6,5.2c-3.9-6-5-11.5-6.2-17.2c-0.6-3-1.2-6-2.3-9.2
		C249.4,491.4,255.4,490,261.7,488.7z M255.2,466.7c4.5-1.8,9.2-4.6,14.3-9.8c1.8-1.8,3.3-3.5,4.6-5.2c4,6,5,11.5,6.2,17.2
		c0.6,3,1.2,6,2.3,9.1c-6.9,5.5-12.9,6.9-19.2,8.2C262.1,480.1,260.6,473.8,255.2,466.7z M269.5,443c-5.1-5.1-9.9-8-14.3-9.8
		c5.5-7.1,6.9-13.4,8.2-19.5c6.2,1.3,12.3,2.7,19.2,8.2c-1.1,3.1-1.7,6.2-2.3,9.1c-1.1,5.7-2.2,11.1-6.2,17.2
		C272.8,446.5,271.3,444.8,269.5,443z M261.7,411.3c-6.2-1.3-12.3-2.7-19.2-8.2c1.1-3.1,1.7-6.2,2.3-9.2c1.1-5.7,2.2-11.1,6.2-17.2
		c1.3,1.7,2.8,3.4,4.6,5.2c5.1,5.1,9.9,8,14.3,9.8C264.4,398.8,262.9,405.1,261.7,411.3z M250.9,373.2c-3.9-6-5-11.5-6.2-17.2
		c-0.6-3-1.2-6-2.3-9.2c6.9-5.5,12.9-6.9,19.2-8.2c1.2,6.1,2.7,12.4,8.2,19.5c-4.5,1.8-9.2,4.6-14.3,9.8
		C253.7,369.8,252.2,371.5,250.9,373.2z M255.2,316.7c4.5-1.8,9.2-4.6,14.3-9.8c1.8-1.8,3.3-3.5,4.6-5.2c4,6,5,11.5,6.2,17.2
		c0.6,3,1.2,6,2.3,9.1c-6.9,5.5-12.9,6.9-19.2,8.2C262.1,330.1,260.6,323.8,255.2,316.7z M269.5,293c-5.1-5.1-9.9-8-14.3-9.8
		c5.5-7.1,6.9-13.4,8.2-19.5c6.2,1.3,12.3,2.7,19.2,8.2c-1.1,3.1-1.7,6.2-2.3,9.1c-1.1,5.7-2.2,11.1-6.2,17.2
		C272.8,296.5,271.3,294.8,269.5,293z M261.7,261.3c-6.2-1.3-12.3-2.7-19.2-8.2c1.1-3.1,1.7-6.2,2.3-9.2c1.1-5.7,2.2-11.1,6.2-17.2
		c1.3,1.7,2.8,3.4,4.6,5.2c5.1,5.1,9.9,8,14.3,9.8C264.4,248.8,262.9,255.2,261.7,261.3z M244.8,206c-0.6-3-1.2-6-2.3-9.2
		c6.9-5.5,12.9-6.9,19.2-8.2c1.2,6.1,2.7,12.4,8.2,19.5c-4.5,1.8-9.2,4.6-14.3,9.8c-1.8,1.8-3.3,3.5-4.6,5.2
		C247,217.2,245.9,211.7,244.8,206z M255.2,166.8c4.5-1.8,9.2-4.6,14.3-9.8c1.8-1.8,3.3-3.5,4.6-5.2c4,6,5,11.5,6.2,17.2
		c0.6,3,1.2,6,2.3,9.1c-6.9,5.5-12.9,6.9-19.2,8.2C262.1,180.2,260.6,173.8,255.2,166.8z M269.5,143c-5.1-5.1-9.9-8-14.3-9.8
		c5.5-7.1,6.9-13.4,8.2-19.5c6.2,1.3,12.3,2.7,19.2,8.2c-1.1,3.1-1.7,6.2-2.3,9.1c-1.1,5.7-2.2,11.1-6.2,17.2
		C272.8,146.5,271.3,144.8,269.5,143z M261.7,111.3c-6.2-1.3-12.3-2.7-19.2-8.2c1.1-3.1,1.7-6.2,2.3-9.2c1.1-5.7,2.2-11.1,6.2-17.2
		c1.3,1.7,2.8,3.4,4.6,5.2c5.1,5.1,9.9,8,14.3,9.8C264.4,98.9,262.9,105.2,261.7,111.3z M244.8,56.1c-0.6-3-1.2-6-2.3-9.2
		c6.9-5.5,12.9-6.9,19.2-8.2c1.2,6.1,2.7,12.4,8.2,19.5c-4.5,1.8-9.2,4.6-14.3,9.8c-1.8,1.8-3.3,3.5-4.6,5.2
		C247,67.2,245.9,61.7,244.8,56.1z M242.7,56.5c1.2,5.9,2.4,11.9,6.9,18.5c-4.5,6.7-5.7,12.7-6.9,18.5c-0.5,2.7-1.1,5.4-1.9,8.1
		c-0.8-0.7-1.7-1.5-2.6-2.4c-9.1-9.1-10.6-16.5-12.2-24.3c1.6-7.8,3.1-15.2,12.2-24.3c0.9-0.9,1.7-1.7,2.6-2.4
		C241.7,51,242.2,53.7,242.7,56.5z M236.8,49.3c-7.7,7.7-10.2,14.4-11.8,20.7c-1.5-6.4-4.1-13.1-11.8-20.7c-1.1-1.1-2.2-2.1-3.3-3.1
		c1.7-4.5,4.4-9.1,9.6-14.2c1.9-1.9,3.7-3.5,5.5-4.8c1.8,1.3,3.6,2.9,5.5,4.8c5.2,5.2,7.9,9.8,9.6,14.2
		C239,47.1,237.9,48.1,236.8,49.3z M211.8,50.7c9.1,9.1,10.6,16.5,12.2,24.3c-1.6,7.8-3.1,15.2-12.2,24.3c-0.9,0.9-1.7,1.7-2.6,2.4
		c-0.8-2.7-1.4-5.4-1.9-8.1c-1.2-5.9-2.4-11.9-6.9-18.6c4.6-6.7,5.8-12.7,6.9-18.5c0.5-2.7,1.1-5.4,1.9-8.1
		C210,49.1,210.9,49.9,211.8,50.7z M205.2,56c-1.1,5.7-2.2,11.1-6.2,17.2c-1.3-1.7-2.8-3.4-4.6-5.2c-5.1-5.1-9.9-8-14.3-9.8
		c5.5-7.1,6.9-13.4,8.2-19.5c6.2,1.3,12.3,2.7,19.2,8.2C206.4,50,205.8,53.1,205.2,56z M193,69.5c1.9,1.9,3.5,3.7,4.8,5.5
		c-1.3,1.8-2.9,3.6-4.8,5.5c-5.2,5.2-9.8,7.9-14.2,9.6c-0.9-1.1-1.9-2.2-3-3.3c-7.7-7.7-14.4-10.2-20.8-11.8
		c6.4-1.5,13.1-4.1,20.8-11.8c1.1-1.1,2.1-2.2,3-3.3C183.2,61.6,187.9,64.3,193,69.5z M174.3,61.8c-9.1,9.1-16.5,10.6-24.3,12.2
		c-7.8-1.6-15.2-3.1-24.2-12.2c-0.9-0.9-1.7-1.7-2.4-2.6c2.7-0.9,5.4-1.4,8.1-1.9c5.9-1.2,11.9-2.4,18.5-6.9
		c6.7,4.6,12.7,5.8,18.6,6.9c2.7,0.5,5.4,1.1,8.1,1.9C175.9,60,175.1,60.9,174.3,61.8z M124.3,63.2c7.7,7.7,14.4,10.2,20.7,11.8
		c-6.4,1.5-13.1,4.1-20.7,11.8c-1.1,1.1-2.1,2.2-3.1,3.3c-4.5-1.7-9.1-4.4-14.2-9.6c-1.9-1.9-3.5-3.7-4.8-5.5
		c1.3-1.8,2.9-3.6,4.8-5.5c5.2-5.2,9.8-7.9,14.2-9.6C122.1,61,123.1,62.1,124.3,63.2z M105.5,68c-1.8,1.8-3.3,3.5-4.6,5.2
		c-3.9-6-5-11.5-6.2-17.2c-0.6-3-1.2-6-2.3-9.2c6.9-5.5,12.9-6.9,19.2-8.2c1.2,6.1,2.7,12.4,8.2,19.5C115.4,60,110.7,62.9,105.5,68z
		 M92.7,56.5c1.2,5.9,2.4,11.9,6.9,18.5c-4.5,6.7-5.7,12.7-6.9,18.5c-0.5,2.7-1.1,5.4-1.9,8.1c-0.8-0.7-1.7-1.5-2.6-2.4
		C79.2,90.2,77.6,82.8,76.1,75c1.6-7.8,3.1-15.2,12.2-24.3c0.9-0.9,1.7-1.7,2.6-2.4C91.7,51,92.2,53.7,92.7,56.5z M86.8,49.3
		C79.1,56.9,76.5,63.6,75,70c-1.5-6.4-4.1-13.1-11.8-20.7c-1.1-1.1-2.2-2.1-3.3-3.1c1.7-4.5,4.4-9.1,9.6-14.2
		c1.9-1.9,3.7-3.5,5.5-4.8c1.8,1.3,3.6,2.9,5.5,4.8c5.2,5.2,7.9,9.8,9.6,14.2C89,47.1,87.9,48.1,86.8,49.3z M61.8,50.7
		c9.1,9.1,10.6,16.5,12.2,24.3c-1.6,7.8-3.1,15.2-12.2,24.3c-0.9,0.9-1.7,1.7-2.6,2.4c-0.8-2.7-1.4-5.4-1.9-8.1
		c-1.2-5.9-2.4-11.9-6.9-18.6c4.6-6.7,5.8-12.7,6.9-18.6c0.5-2.7,1.1-5.4,1.9-8.1C60,49.1,60.9,49.9,61.8,50.7z M55.2,56
		c-1.1,5.7-2.2,11.1-6.2,17.2c-1.3-1.7-2.8-3.4-4.6-5.2c-5.1-5.1-9.9-8-14.3-9.8c5.5-7.1,6.9-13.4,8.2-19.5
		c6.2,1.3,12.3,2.7,19.2,8.2C56.4,50,55.8,53.1,55.2,56z M55.2,94c0.6,3,1.2,6,2.3,9.1c-6.9,5.5-12.9,6.9-19.2,8.2
		c-1.2-6.1-2.7-12.4-8.2-19.5c4.5-1.8,9.2-4.6,14.3-9.8c1.8-1.8,3.3-3.5,4.6-5.2C53,82.8,54.1,88.3,55.2,94z M44.8,133.2
		c-4.5,1.8-9.2,4.6-14.3,9.8c-1.8,1.8-3.3,3.5-4.6,5.2c-3.9-6-5-11.5-6.2-17.2c-0.6-3-1.2-6-2.3-9.2c6.9-5.5,12.9-6.9,19.2-8.2
		C37.9,119.8,39.4,126.1,44.8,133.2z M30.5,157c5.1,5.1,9.9,8,14.3,9.8c-5.4,7.1-6.9,13.4-8.2,19.5c-6.2-1.3-12.3-2.7-19.2-8.2
		c1.1-3.1,1.7-6.2,2.3-9.2c1.1-5.7,2.2-11.1,6.2-17.2C27.2,153.5,28.7,155.2,30.5,157z M38.3,188.7c6.2,1.3,12.3,2.7,19.2,8.2
		c-1.1,3.1-1.7,6.2-2.3,9.1c-1.1,5.7-2.2,11.1-6.2,17.2c-1.3-1.7-2.8-3.4-4.6-5.2c-5.1-5.1-9.9-8-14.3-9.8
		C35.6,201.2,37.1,194.8,38.3,188.7z M55.2,244c0.6,3,1.2,6,2.3,9.1c-6.9,5.5-12.9,6.9-19.2,8.2c-1.2-6.1-2.7-12.4-8.2-19.5
		c4.5-1.8,9.2-4.6,14.3-9.8c1.8-1.8,3.3-3.5,4.6-5.2C53,232.8,54.1,238.3,55.2,244z M44.8,283.2c-4.5,1.8-9.2,4.6-14.3,9.8
		c-1.8,1.8-3.3,3.5-4.6,5.2c-3.9-6-5-11.5-6.2-17.2c-0.6-3-1.2-6-2.3-9.2c6.9-5.5,12.9-6.9,19.2-8.2
		C37.9,269.8,39.4,276.1,44.8,283.2z M30.5,307c5.1,5.1,9.9,8,14.3,9.8c-5.4,7.1-6.9,13.4-8.2,19.5c-6.2-1.3-12.3-2.7-19.2-8.2
		c1.1-3.1,1.7-6.2,2.3-9.2c1.1-5.7,2.2-11.1,6.2-17.2C27.2,303.5,28.7,305.2,30.5,307z M38.3,338.7c6.2,1.3,12.3,2.7,19.2,8.2
		c-1.1,3.1-1.7,6.2-2.3,9.1c-1.1,5.7-2.2,11.1-6.2,17.2c-1.3-1.7-2.8-3.4-4.6-5.2c-5.1-5.1-9.9-8-14.3-9.8
		C35.6,351.1,37.1,344.8,38.3,338.7z M55.2,393.9c0.6,3,1.2,6,2.3,9.1c-6.9,5.5-12.9,6.9-19.2,8.2c-1.2-6.1-2.7-12.4-8.2-19.5
		c4.5-1.8,9.2-4.6,14.3-9.8c1.8-1.8,3.3-3.5,4.6-5.2C53,382.8,54.1,388.3,55.2,393.9z M44.8,433.2c-4.5,1.8-9.2,4.6-14.3,9.8
		c-1.8,1.8-3.3,3.5-4.6,5.2c-3.9-6-5-11.5-6.2-17.2c-0.6-3-1.2-6-2.3-9.2c6.9-5.5,12.9-6.9,19.2-8.2
		C37.9,419.8,39.4,426.1,44.8,433.2z M30.5,457c5.1,5.1,9.9,8,14.3,9.8c-5.4,7.1-6.9,13.4-8.2,19.5c-6.2-1.3-12.3-2.7-19.2-8.2
		c1.1-3.1,1.7-6.2,2.3-9.2c1.1-5.7,2.2-11.1,6.2-17.2C27.2,453.5,28.7,455.2,30.5,457z M38.3,488.7c6.2,1.3,12.3,2.7,19.2,8.2
		c-1.1,3.1-1.7,6.2-2.3,9.1c-1.1,5.7-2.2,11.1-6.2,17.2c-1.3-1.7-2.8-3.4-4.6-5.2c-5.1-5.1-9.9-8-14.3-9.8
		C35.6,501.1,37.1,494.8,38.3,488.7z M55.2,543.9c0.6,3,1.2,6,2.3,9.1c-6.9,5.5-12.9,6.9-19.2,8.2c-1.2-6.1-2.7-12.4-8.2-19.5
		c4.5-1.8,9.2-4.6,14.3-9.8c1.8-1.8,3.3-3.5,4.6-5.2C53,532.8,54.1,538.3,55.2,543.9z M57.3,543.5c-1.2-5.9-2.4-11.9-6.9-18.6
		c4.6-6.7,5.8-12.7,6.9-18.6c0.5-2.7,1.1-5.4,1.9-8.1c0.8,0.7,1.7,1.5,2.6,2.4c9.1,9.1,10.6,16.5,12.2,24.3
		c-1.6,7.8-3.1,15.2-12.2,24.3c-0.9,0.9-1.7,1.7-2.6,2.4C58.4,548.9,57.8,546.3,57.3,543.5z M63.2,550.7C70.9,543,73.5,536.3,75,530
		c1.5,6.4,4.1,13.1,11.8,20.8c1.1,1.1,2.2,2.1,3.3,3c-1.7,4.5-4.4,9.1-9.6,14.2c-1.9,1.9-3.7,3.5-5.5,4.8c-1.8-1.3-3.6-2.9-5.5-4.8
		c-5.2-5.2-7.9-9.8-9.6-14.2C61,552.8,62.1,551.8,63.2,550.7z M88.2,549.3c-9.1-9.1-10.6-16.5-12.2-24.3c1.6-7.8,3.1-15.2,12.2-24.3
		c0.9-0.9,1.7-1.7,2.6-2.4c0.9,2.7,1.4,5.4,1.9,8.1c1.2,5.9,2.4,11.9,6.9,18.5c-4.5,6.7-5.7,12.7-6.9,18.5c-0.5,2.7-1.1,5.4-1.9,8.1
		C90,550.9,89.1,550.1,88.2,549.3z M94.8,543.9c1.1-5.7,2.2-11.1,6.2-17.2c1.3,1.7,2.8,3.4,4.6,5.2c5.1,5.1,9.9,8,14.3,9.8
		c-5.4,7.1-6.9,13.4-8.2,19.5c-6.2-1.3-12.3-2.7-19.2-8.2C93.6,549.9,94.2,546.9,94.8,543.9z M107,530.5c-1.9-1.9-3.5-3.7-4.8-5.5
		c1.3-1.8,2.9-3.6,4.8-5.5c5.2-5.2,9.8-7.9,14.2-9.6c0.9,1.1,1.9,2.2,3.1,3.3c7.7,7.7,14.4,10.2,20.7,11.8
		c-6.4,1.5-13.1,4.1-20.7,11.8c-1.1,1.1-2.1,2.2-3.1,3.3C116.8,538.4,112.1,535.7,107,530.5z M125.7,538.2
		c9.1-9.1,16.4-10.6,24.2-12.2c7.8,1.6,15.2,3.1,24.3,12.2c0.9,0.9,1.7,1.7,2.4,2.6c-2.7,0.8-5.4,1.4-8.1,1.9
		c-5.9,1.2-11.9,2.4-18.6,6.9c-6.7-4.5-12.7-5.7-18.5-6.9c-2.7-0.5-5.4-1.1-8.1-1.9C124.1,539.9,124.9,539.1,125.7,538.2z
		 M175.7,536.7c-7.7-7.7-14.4-10.2-20.8-11.8c6.4-1.5,13.1-4.1,20.8-11.8c1.1-1.1,2.1-2.2,3-3.3c4.5,1.7,9.1,4.4,14.2,9.6
		c1.9,1.9,3.5,3.7,4.8,5.5c-1.3,1.8-2.9,3.6-4.8,5.5c-5.2,5.2-9.8,7.9-14.2,9.6C177.9,539,176.9,537.9,175.7,536.7z M194.5,532
		c1.8-1.8,3.3-3.5,4.6-5.2c4,6,5,11.5,6.2,17.2c0.6,3,1.2,6,2.3,9.1c-6.9,5.5-12.9,6.9-19.2,8.2c-1.2-6.1-2.7-12.4-8.2-19.5
		C184.6,540,189.3,537.1,194.5,532z M207.3,543.5c-1.2-5.9-2.4-11.9-6.9-18.5c4.6-6.7,5.8-12.7,6.9-18.6c0.5-2.7,1.1-5.4,1.9-8.1
		c0.8,0.7,1.7,1.5,2.6,2.4c9.1,9.1,10.6,16.5,12.2,24.3c-1.6,7.8-3.1,15.2-12.2,24.3c-0.9,0.9-1.7,1.7-2.6,2.4
		C208.4,548.9,207.8,546.3,207.3,543.5z M213.2,550.7c7.7-7.7,10.2-14.4,11.8-20.7c1.5,6.4,4.1,13.1,11.8,20.7
		c1.1,1.1,2.2,2.1,3.3,3.1c-1.7,4.5-4.4,9.1-9.6,14.2c-1.9,1.9-3.7,3.5-5.5,4.8c-1.8-1.3-3.6-2.9-5.5-4.8c-5.2-5.2-7.9-9.8-9.6-14.2
		C211,552.8,212.1,551.8,213.2,550.7z M238.2,549.2c-9.1-9.1-10.6-16.5-12.2-24.3c1.6-7.8,3.1-15.2,12.2-24.3
		c0.9-0.9,1.7-1.7,2.6-2.4c0.8,2.7,1.4,5.4,1.9,8.1c1.2,5.9,2.4,11.9,6.9,18.5c-4.5,6.7-5.7,12.7-6.9,18.5c-0.5,2.7-1.1,5.4-1.9,8.1
		C240,550.9,239.1,550.1,238.2,549.2z M244.8,543.9c1.1-5.7,2.2-11.1,6.2-17.2c1.3,1.7,2.8,3.4,4.6,5.2c5.1,5.1,9.9,8,14.3,9.8
		c-5.4,7.1-6.9,13.4-8.2,19.5c-6.2-1.3-12.3-2.7-19.2-8.2C243.6,549.9,244.2,546.9,244.8,543.9z M293,494.5c1.8,1.8,3.5,3.3,5.2,4.6
		c-6,3.9-11.5,5-17.2,6.2c-3,0.6-6,1.2-9.2,2.3c-5.5-6.9-6.9-12.9-8.2-19.2c6.1-1.2,12.4-2.7,19.5-8.2
		C285,484.6,287.9,489.3,293,494.5z M286.8,425.7c9.1,9.1,10.6,16.5,12.2,24.3c-1.6,7.8-3.1,15.2-12.2,24.3
		c-0.9,0.9-1.7,1.7-2.6,2.4c-0.8-2.7-1.4-5.4-1.9-8.1c-1.2-5.9-2.4-11.9-6.9-18.5c4.6-6.7,5.8-12.7,6.9-18.6
		c0.5-2.7,1.1-5.4,1.9-8.1C285,424,285.9,424.8,286.8,425.7z M281.1,394.8c5.7,1.1,11.1,2.2,17.2,6.2c-1.7,1.3-3.4,2.8-5.2,4.6
		c-5.1,5.1-8,9.9-9.8,14.3c-7.1-5.4-13.4-6.9-19.5-8.2c1.3-6.2,2.7-12.3,8.2-19.2C275,393.6,278.1,394.2,281.1,394.8z M274.3,363.2
		c7.7,7.7,14.4,10.2,20.7,11.8c-6.4,1.5-13.1,4.1-20.7,11.8c-1.1,1.1-2.1,2.2-3.1,3.3c-4.5-1.7-9.1-4.4-14.2-9.6
		c-1.9-1.9-3.5-3.7-4.8-5.5c1.3-1.8,2.9-3.6,4.8-5.5c5.2-5.2,9.8-7.9,14.2-9.6C272.1,361,273.1,362.1,274.3,363.2z M293,344.5
		c1.8,1.8,3.5,3.3,5.2,4.6c-6,3.9-11.5,5-17.2,6.2c-3,0.6-6,1.2-9.2,2.3c-5.5-6.9-6.9-12.9-8.2-19.2c6.1-1.2,12.4-2.7,19.5-8.2
		C285,334.6,287.9,339.3,293,344.5z M286.8,275.7c9.1,9.1,10.6,16.5,12.2,24.3c-1.6,7.8-3.1,15.2-12.2,24.3
		c-0.9,0.9-1.7,1.7-2.6,2.4c-0.8-2.7-1.4-5.4-1.9-8.1c-1.2-5.9-2.4-11.9-6.9-18.6c4.6-6.7,5.8-12.7,6.9-18.6
		c0.5-2.7,1.1-5.4,1.9-8.1C285,274.1,285.9,274.9,286.8,275.7z M281.1,244.8c5.7,1.1,11.1,2.2,17.2,6.2c-1.7,1.3-3.4,2.8-5.2,4.6
		c-5.1,5.1-8,9.9-9.8,14.3c-7.1-5.4-13.4-6.9-19.5-8.2c1.3-6.2,2.7-12.3,8.2-19.2C275,243.6,278.1,244.2,281.1,244.8z M274.3,213.2
		c7.7,7.6,14.4,10.2,20.7,11.8c-6.4,1.5-13.1,4.1-20.7,11.8c-1.1,1.1-2.1,2.2-3.1,3.3c-4.5-1.7-9.1-4.4-14.2-9.6
		c-1.9-1.9-3.5-3.7-4.8-5.5c1.3-1.8,2.9-3.6,4.8-5.5c5.2-5.2,9.8-7.9,14.2-9.6C272.1,211,273.1,212.1,274.3,213.2z M293,194.5
		c1.8,1.8,3.5,3.3,5.2,4.6c-6,3.9-11.5,5-17.2,6.2c-3,0.6-6,1.2-9.2,2.3c-5.5-6.9-6.9-12.9-8.2-19.2c6.1-1.2,12.4-2.7,19.5-8.2
		C285,184.6,287.9,189.3,293,194.5z M286.8,125.7c9.1,9.1,10.6,16.5,12.2,24.3c-1.6,7.8-3.1,15.2-12.2,24.3
		c-0.9,0.9-1.7,1.7-2.6,2.4c-0.8-2.7-1.4-5.4-1.9-8.1c-1.2-5.9-2.4-11.9-6.9-18.6c4.6-6.7,5.8-12.7,6.9-18.5
		c0.5-2.7,1.1-5.4,1.9-8.1C285,124.1,285.9,124.9,286.8,125.7z M281.1,94.8c5.7,1.1,11.1,2.2,17.2,6.2c-1.7,1.3-3.4,2.8-5.2,4.6
		c-5.1,5.1-8,9.9-9.8,14.3c-7.1-5.4-13.4-6.9-19.5-8.2c1.3-6.2,2.7-12.3,8.2-19.2C275,93.6,278.1,94.2,281.1,94.8z M274.3,63.2
		c7.7,7.7,14.4,10.2,20.7,11.8c-6.4,1.5-13.1,4.1-20.7,11.8c-1.1,1.1-2.1,2.2-3.1,3.3c-4.5-1.7-9.1-4.4-14.2-9.6
		c-1.9-1.9-3.5-3.7-4.8-5.5c1.3-1.8,2.9-3.6,4.8-5.5c5.2-5.2,9.8-7.9,14.2-9.6C272.1,61,273.1,62.1,274.3,63.2z M293,44.5
		c1.8,1.8,3.5,3.3,5.2,4.6c-6,3.9-11.5,5-17.2,6.2c-3,0.6-6,1.2-9.2,2.3c-5.5-6.9-6.9-12.9-8.2-19.2c6.1-1.2,12.4-2.7,19.5-8.2
		C285,34.6,287.9,39.4,293,44.5z M269.5,7c1.8-1.8,3.3-3.5,4.6-5.2c4,6,5,11.5,6.2,17.2c0.6,3,1.2,6,2.3,9.1
		c-6.9,5.5-12.9,6.9-19.2,8.2c-1.2-6.1-2.7-12.4-8.2-19.5C259.6,15,264.3,12.1,269.5,7z M261.3,36.7c-6.1,1.2-12.4,2.7-19.5,8.2
		c-1.8-4.5-4.6-9.2-9.8-14.3c-1.8-1.8-3.5-3.3-5.2-4.6c6-4,11.5-5,17.2-6.2c3-0.6,6-1.2,9.2-2.3C258.6,24.4,260,30.4,261.3,36.7z
		 M200.7,13.2c9.1-9.1,16.5-10.6,24.2-12.2c7.8,1.6,15.2,3.1,24.3,12.2c0.9,0.9,1.7,1.7,2.4,2.6c-2.7,0.8-5.4,1.4-8.1,1.9
		c-5.9,1.2-11.9,2.4-18.6,6.9c-6.7-4.5-12.7-5.7-18.5-6.9c-2.7-0.5-5.4-1.1-8.1-1.9C199.1,15,199.9,14.1,200.7,13.2z M196.9,17.5
		c3.1,1.1,6.2,1.7,9.2,2.3c5.7,1.1,11.1,2.2,17.2,6.2c-1.7,1.3-3.4,2.8-5.2,4.6c-5.1,5.1-8,9.9-9.8,14.3c-7.1-5.4-13.4-6.9-19.5-8.2
		C190,30.4,191.4,24.4,196.9,17.5z M169.8,19c1.1-5.7,2.2-11.1,6.2-17.2c1.3,1.7,2.8,3.4,4.6,5.2c5.1,5.1,9.9,8,14.3,9.8
		c-5.4,7.1-6.9,13.4-8.2,19.5c-6.2-1.3-12.3-2.7-19.2-8.2C168.6,25,169.2,21.9,169.8,19z M166.8,30.2c7.1,5.5,13.4,6.9,19.5,8.2
		c-1.3,6.2-2.7,12.3-8.2,19.2c-3.1-1.1-6.2-1.7-9.1-2.3c-5.7-1.1-11.1-2.2-17.2-6.2c1.7-1.3,3.4-2.8,5.2-4.6
		C162.1,39.3,165,34.6,166.8,30.2z M138.2,25.7c7.7-7.7,10.2-14.4,11.8-20.7c1.5,6.4,4.1,13.1,11.8,20.8c1.1,1.1,2.2,2.1,3.3,3
		c-1.7,4.5-4.4,9.1-9.6,14.2c-1.9,1.9-3.7,3.5-5.5,4.8c-1.8-1.3-3.6-2.9-5.5-4.8c-5.2-5.2-7.9-9.8-9.6-14.2
		C136,27.9,137.1,26.9,138.2,25.7z M143,44.5c1.8,1.8,3.5,3.3,5.2,4.6c-6,3.9-11.5,5-17.2,6.2c-3,0.6-6,1.2-9.2,2.3
		c-5.5-6.9-6.9-12.9-8.2-19.2c6.1-1.2,12.4-2.7,19.5-8.2C135,34.6,137.9,39.4,143,44.5z M119.5,7c1.8-1.8,3.3-3.5,4.6-5.2
		c4,6,5,11.5,6.2,17.2c0.6,3,1.2,6,2.3,9.1c-6.9,5.5-12.9,6.9-19.2,8.2c-1.2-6.1-2.7-12.4-8.2-19.5C109.6,15,114.3,12.1,119.5,7z
		 M111.3,36.7c-6.1,1.2-12.4,2.7-19.5,8.2c-1.8-4.5-4.6-9.2-9.8-14.3c-1.8-1.8-3.5-3.3-5.2-4.6c6-4,11.5-5,17.2-6.2
		c3-0.6,6-1.2,9.1-2.3C108.6,24.4,110,30.4,111.3,36.7z M50.7,13.2C59.8,4.2,67.2,2.6,75,1.1c7.8,1.6,15.2,3.1,24.3,12.2
		c0.9,0.9,1.7,1.7,2.4,2.6c-2.7,0.8-5.4,1.4-8.1,1.9c-5.9,1.2-11.9,2.4-18.6,6.9c-6.7-4.5-12.7-5.7-18.5-6.9
		c-2.7-0.5-5.4-1.1-8.1-1.9C49.1,15,49.9,14.1,50.7,13.2z M46.9,17.5c3.1,1.1,6.2,1.7,9.2,2.3c5.7,1.1,11.1,2.2,17.2,6.2
		c-1.7,1.3-3.4,2.8-5.2,4.6c-5.1,5.1-8,9.9-9.8,14.3c-7.1-5.4-13.4-6.9-19.5-8.2C40,30.4,41.4,24.4,46.9,17.5z M19.8,19
		c1.1-5.7,2.2-11.1,6.2-17.2c1.3,1.7,2.8,3.4,4.6,5.2c5.1,5.1,9.9,8,14.3,9.8c-5.4,7.1-6.9,13.4-8.2,19.5
		c-6.2-1.3-12.3-2.7-19.2-8.2C18.6,25,19.2,21.9,19.8,19z M19,55.2C13.3,54.1,7.8,53,1.8,49.1c1.7-1.3,3.4-2.8,5.2-4.6
		c5.1-5.1,8-9.9,9.8-14.3c7.1,5.4,13.4,6.9,19.5,8.2c-1.3,6.2-2.7,12.3-8.2,19.2C25,56.4,21.9,55.8,19,55.2z M25.7,86.8
		C18.1,79.1,11.4,76.5,5,75c6.4-1.5,13.1-4.1,20.8-11.8c1.1-1.1,2.1-2.2,3-3.3c4.5,1.7,9.1,4.4,14.2,9.6c1.9,1.9,3.5,3.7,4.8,5.5
		c-1.3,1.8-2.9,3.6-4.8,5.5c-5.2,5.2-9.8,7.9-14.2,9.6C27.9,89,26.9,87.9,25.7,86.8z M7,105.5c-1.8-1.8-3.5-3.3-5.2-4.6
		c6-4,11.5-5,17.2-6.2c3-0.6,6-1.2,9.1-2.3c5.5,6.9,6.9,12.9,8.2,19.2c-6.1,1.2-12.4,2.7-19.5,8.2C15,115.4,12.1,110.7,7,105.5z
		 M13.2,174.3C4.2,165.2,2.6,157.8,1.1,150c1.6-7.8,3.1-15.2,12.2-24.3c0.9-0.9,1.7-1.7,2.6-2.4c0.9,2.7,1.4,5.4,1.9,8.1
		c1.2,5.9,2.4,11.9,6.9,18.5c-4.5,6.7-5.7,12.7-6.9,18.5c-0.5,2.7-1.1,5.4-1.9,8.1C15,175.9,14.1,175.1,13.2,174.3z M19,205.2
		c-5.7-1.1-11.1-2.2-17.2-6.2c1.7-1.3,3.4-2.8,5.2-4.6c5.1-5.1,8-9.9,9.8-14.3c7.1,5.5,13.4,6.9,19.5,8.2
		c-1.3,6.2-2.7,12.3-8.2,19.2C25,206.4,21.9,205.8,19,205.2z M25.7,236.8C18.1,229.1,11.4,226.5,5,225c6.4-1.5,13.1-4.1,20.8-11.8
		c1.1-1.1,2.1-2.2,3-3.3c4.5,1.7,9.1,4.4,14.2,9.6c1.9,1.9,3.5,3.7,4.8,5.5c-1.3,1.8-2.9,3.6-4.8,5.5c-5.2,5.2-9.8,7.9-14.2,9.6
		C27.9,239,26.9,237.9,25.7,236.8z M7,255.5c-1.8-1.8-3.5-3.3-5.2-4.6c6-4,11.5-5,17.2-6.2c3-0.6,6-1.2,9.1-2.3
		c5.5,6.9,6.9,12.9,8.2,19.2c-6.1,1.2-12.4,2.7-19.5,8.2C15,265.4,12.1,260.7,7,255.5z M13.2,324.3C4.2,315.2,2.6,307.8,1.1,300
		c1.6-7.8,3.1-15.2,12.2-24.3c0.9-0.9,1.7-1.7,2.6-2.4c0.9,2.7,1.4,5.4,1.9,8.1c1.2,5.9,2.4,11.9,6.9,18.5
		c-4.5,6.7-5.7,12.7-6.9,18.5c-0.5,2.7-1.1,5.4-1.9,8.1C15,325.9,14.1,325.1,13.2,324.3z M19,355.2c-5.7-1.1-11.1-2.2-17.2-6.2
		c1.7-1.3,3.4-2.8,5.2-4.6c5.1-5.1,8-9.9,9.8-14.3c7.1,5.5,13.4,6.9,19.5,8.2c-1.3,6.2-2.7,12.3-8.2,19.2
		C25,356.4,21.9,355.8,19,355.2z M25.7,386.8C18.1,379.1,11.4,376.5,5,375c6.4-1.5,13.1-4.1,20.8-11.8c1.1-1.1,2.1-2.2,3-3.3
		c4.5,1.7,9.1,4.4,14.2,9.6c1.9,1.9,3.5,3.7,4.8,5.5c-1.3,1.8-2.9,3.6-4.8,5.5c-5.2,5.2-9.8,7.9-14.2,9.6
		C27.9,389,26.9,387.9,25.7,386.8z M7,405.5c-1.8-1.8-3.5-3.3-5.2-4.6c6-4,11.5-5,17.2-6.2c3-0.6,6-1.2,9.1-2.3
		c5.5,6.9,6.9,12.9,8.2,19.2c-6.1,1.2-12.4,2.7-19.5,8.2C15,415.4,12.1,410.6,7,405.5z M13.2,474.3C4.2,465.2,2.6,457.8,1.1,450
		c1.6-7.8,3.1-15.2,12.2-24.3c0.9-0.9,1.7-1.7,2.6-2.4c0.9,2.7,1.4,5.4,1.9,8.1c1.2,5.9,2.4,11.9,6.9,18.5
		c-4.5,6.7-5.7,12.7-6.9,18.5c-0.5,2.7-1.1,5.4-1.9,8.1C15,475.9,14.1,475.1,13.2,474.3z M19,505.2c-5.7-1.1-11.1-2.2-17.2-6.2
		c1.7-1.3,3.4-2.8,5.2-4.6c5.1-5.1,8-9.9,9.8-14.3c7.1,5.5,13.4,6.9,19.5,8.2c-1.3,6.2-2.7,12.3-8.2,19.2
		C25,506.4,21.9,505.8,19,505.2z M25.7,536.7C18.1,529.1,11.4,526.5,5,525c6.4-1.5,13.1-4.1,20.8-11.8c1.1-1.1,2.1-2.2,3-3.3
		c4.5,1.7,9.1,4.4,14.2,9.6c1.9,1.9,3.5,3.7,4.8,5.5c-1.3,1.8-2.9,3.6-4.8,5.5c-5.2,5.2-9.8,7.9-14.2,9.6
		C27.9,539,26.9,537.9,25.7,536.7z M7,555.5c-1.8-1.8-3.5-3.3-5.2-4.6c6-4,11.5-5,17.2-6.2c3-0.6,6-1.2,9.2-2.3
		c5.5,6.9,6.9,12.9,8.2,19.2c-6.1,1.2-12.4,2.7-19.5,8.2C15,565.3,12.1,560.6,7,555.5z M30.5,593c-1.8,1.8-3.3,3.5-4.6,5.2
		c-3.9-6-5-11.5-6.2-17.2c-0.6-3-1.2-6-2.3-9.2c6.9-5.5,12.9-6.9,19.2-8.2c1.2,6.1,2.7,12.4,8.2,19.5C40.4,585,35.7,587.8,30.5,593z
		 M38.7,563.3c6.1-1.2,12.4-2.7,19.5-8.2c1.8,4.5,4.6,9.2,9.8,14.3c1.8,1.8,3.5,3.3,5.2,4.6c-6,3.9-11.5,5-17.2,6.2
		c-3,0.6-6,1.2-9.2,2.3C41.4,575.6,40,569.5,38.7,563.3z M99.3,586.7c-9.1,9.1-16.5,10.6-24.3,12.2c-7.8-1.6-15.2-3.1-24.2-12.2
		c-0.9-0.9-1.7-1.7-2.4-2.6c2.7-0.8,5.4-1.4,8.1-1.9c5.9-1.2,11.9-2.4,18.5-6.9c6.7,4.6,12.7,5.8,18.6,6.9c2.7,0.5,5.4,1.1,8.1,1.9
		C100.9,585,100.1,585.9,99.3,586.7z M103.1,582.5c-3.1-1.1-6.2-1.7-9.1-2.3c-5.7-1.1-11.1-2.2-17.2-6.2c1.7-1.3,3.4-2.8,5.2-4.6
		c5.1-5.1,8-9.9,9.8-14.3c7.1,5.5,13.4,6.9,19.5,8.2C110,569.5,108.6,575.6,103.1,582.5z M130.2,581c-1.1,5.7-2.2,11.1-6.2,17.2
		c-1.3-1.7-2.8-3.4-4.6-5.2c-5.1-5.1-9.9-8-14.3-9.8c5.5-7.1,6.9-13.4,8.2-19.5c6.2,1.3,12.3,2.7,19.2,8.2
		C131.4,575,130.8,578,130.2,581z M133.2,569.8c-7.1-5.4-13.4-6.9-19.5-8.2c1.3-6.2,2.7-12.3,8.2-19.2c3.1,1.1,6.2,1.7,9.2,2.3
		c5.7,1.1,11.1,2.2,17.2,6.2c-1.7,1.3-3.4,2.8-5.2,4.6C137.9,560.6,135,565.3,133.2,569.8z M161.8,574.2
		c-7.7,7.7-10.2,14.4-11.8,20.8c-1.5-6.4-4.1-13.1-11.8-20.7c-1.1-1.1-2.2-2.1-3.3-3.1c1.7-4.5,4.4-9.1,9.6-14.2
		c1.9-1.9,3.7-3.5,5.5-4.8c1.8,1.3,3.6,2.9,5.5,4.8c5.2,5.2,7.9,9.8,9.6,14.2C164,572.1,162.9,573.1,161.8,574.2z M157,555.5
		c-1.8-1.8-3.5-3.3-5.2-4.6c6-4,11.5-5,17.2-6.2c3-0.6,6-1.2,9.1-2.3c5.5,6.9,6.9,12.9,8.2,19.2c-6.1,1.2-12.4,2.7-19.5,8.2
		C165,565.3,162.1,560.6,157,555.5z M180.5,593c-1.8,1.8-3.3,3.5-4.6,5.2c-3.9-6-5-11.5-6.2-17.2c-0.6-3-1.2-6-2.3-9.2
		c6.9-5.5,12.9-6.9,19.2-8.2c1.2,6.1,2.7,12.4,8.2,19.5C190.4,585,185.7,587.8,180.5,593z M188.7,563.3c6.1-1.2,12.4-2.7,19.5-8.2
		c1.8,4.5,4.6,9.2,9.8,14.3c1.8,1.8,3.5,3.3,5.2,4.6c-6,3.9-11.5,5-17.2,6.2c-3,0.6-6,1.2-9.2,2.3
		C191.4,575.6,190,569.5,188.7,563.3z M249.3,586.7c-9.1,9.1-16.5,10.6-24.3,12.2c-7.8-1.6-15.2-3.1-24.2-12.2
		c-0.9-0.9-1.7-1.7-2.4-2.6c2.7-0.9,5.4-1.4,8.1-1.9c5.9-1.2,11.9-2.4,18.5-6.9c6.7,4.6,12.7,5.8,18.6,6.9c2.7,0.5,5.4,1.1,8.1,1.9
		C250.9,585,250.1,585.9,249.3,586.7z M253.1,582.5c-3.1-1.1-6.2-1.7-9.2-2.3c-5.7-1.1-11.1-2.2-17.2-6.2c1.7-1.3,3.4-2.8,5.2-4.6
		c5.1-5.1,8-9.9,9.8-14.3c7.1,5.4,13.4,6.9,19.5,8.2C260,569.5,258.6,575.6,253.1,582.5z M280.2,581c-1.1,5.7-2.2,11.1-6.2,17.2
		c-1.3-1.7-2.8-3.4-4.6-5.2c-5.1-5.1-9.9-8-14.3-9.8c5.5-7.1,6.9-13.4,8.2-19.5c6.2,1.3,12.3,2.7,19.2,8.2
		C281.4,575,280.8,578,280.2,581z M283.2,569.8c-7.1-5.4-13.4-6.9-19.5-8.2c1.3-6.2,2.7-12.3,8.2-19.2c3.1,1.1,6.2,1.7,9.2,2.3
		c5.7,1.1,11.1,2.2,17.2,6.2c-1.7,1.3-3.4,2.8-5.2,4.6C287.9,560.6,285,565.3,283.2,569.8z"/>
</g>
</svg>
