<svg xmlns="http://www.w3.org/2000/svg" width="96.11" height="3.946" viewBox="0 0 96.11 3.946">
  <path id="Swiggle_Breaker" data-name="Swiggle Breaker" d="M96.11,1.271c-2.282,0-2.371,2.674-5.341,2.674s-3.056-2.674-5.341-2.674-2.372,2.674-5.341,2.674-3.057-2.674-5.341-2.674S72.37,3.946,69.4,3.946s-3.057-2.674-5.34-2.674-2.371,2.674-5.341,2.674-3.058-2.674-5.339-2.674-2.371,2.674-5.341,2.674S44.985,1.271,42.7,1.271s-2.369,2.674-5.337,2.674S34.31,1.271,32.026,1.271s-2.369,2.674-5.339,2.674a4.052,4.052,0,0,1-3.118-1.524,2.85,2.85,0,0,0-2.218-1.15c-2.284,0-2.367,2.674-5.337,2.674s-3.06-2.674-5.341-2.674S8.3,3.946,5.335,3.946,2.279,1.271,0,1.271V0C2.968,0,3.053,2.674,5.335,2.674S7.708,0,10.672,0s3.06,2.674,5.341,2.674S18.383,0,21.351,0a4.05,4.05,0,0,1,3.118,1.524,2.852,2.852,0,0,0,2.218,1.15C28.969,2.674,29.058,0,32.026,0s3.057,2.674,5.341,2.674S39.741,0,42.7,0s3.058,2.674,5.339,2.674S50.418,0,53.385,0s3.058,2.674,5.339,2.674S61.1,0,64.065,0s3.056,2.674,5.34,2.674S71.774,0,74.745,0,77.8,2.674,80.086,2.674,82.457,0,85.427,0s3.055,2.674,5.341,2.674S93.139,0,96.11,0" transform="translate(96.11 3.946) rotate(180)" fill="#ccc"/>
</svg>
