<?xml version="1.0" encoding="utf-8"?>
<!-- Generator: Adobe Illustrator 26.2.1, SVG Export Plug-In . SVG Version: 6.00 Build 0)  -->
<svg version="1.1" id="Layer_1" xmlns="http://www.w3.org/2000/svg" xmlns:xlink="http://www.w3.org/1999/xlink" x="0px" y="0px"
	 viewBox="0 0 330.4 270.6" style="enable-background:new 0 0 330.4 270.6;" xml:space="preserve">
<style type="text/css">
	.st0{fill:#AD823D;}
	.st1{fill:#1E243A;}
</style>
<g>
	<g>
		<g>
			<polygon class="st0" points="34.9,35.4 92.8,1.5 0.3,21.7 			"/>
		</g>
		<g>
			<polygon class="st0" points="75.8,78.7 92.7,1.5 50.6,41.7 			"/>
		</g>
		<g>
			<polygon class="st0" points="37.9,57.7 54.1,47.3 50.6,41.7 			"/>
		</g>
	</g>
</g>
<g>
	<g>
		<path class="st0" d="M172.1,160.1c-4.1,0.5-8.2,0.5-12.3,0c-9.7-1.1-17.1,8.4-13.9,17.6c6.7,19.2,9.8,41.9,10,65.2l20.2,0
			c0.2-23.4,3.3-46.1,10-65.3C189.4,168.4,181.8,159,172.1,160.1z"/>
	</g>
</g>
<g>
	<path class="st1" d="M166,270.6c-14.8,0-26.9-12.1-26.9-26.9v-0.9c0-0.8,0.7-1.5,1.5-1.5c0.8,0,1.5,0.7,1.5,1.5v0.9
		c0,13.2,10.7,24,24,24c13.2,0,24-10.7,24-24v-0.9c0-0.8,0.7-1.5,1.5-1.5s1.5,0.7,1.5,1.5v0.9C192.9,258.5,180.9,270.6,166,270.6z"
		/>
</g>
<g>
	<polygon class="st0" points="310.8,234.8 302.9,218.8 294.9,234.8 277.3,237.4 290.1,249.9 287,267.5 302.9,259.2 318.7,267.5 
		315.6,249.9 328.4,237.4 	"/>
</g>
<g>
	<g>
		<path class="st1" d="M185.6,244.2h-40c-8.7,0-15.9-7.1-15.9-15.9v-4.7c0-11-4.4-21.6-12-29.2c-6.3-6.2-11.2-13.5-14.6-21.6
			c-3.6-8.4-5.4-17.3-5.4-26.5c0-18.1,7-35.1,19.9-47.9c12.8-12.8,29.8-19.9,47.9-19.9c18.1,0,35.1,7.1,48,19.9
			c12.8,12.8,19.9,29.8,19.9,47.9c0,9.2-1.8,18.1-5.4,26.5c-3.4,8.1-8.3,15.4-14.6,21.6c-7.6,7.6-12,18.2-12,29.2v4.7
			C201.5,237,194.4,244.2,185.6,244.2z M165.6,81.5c-35.8,0-64.9,29.1-64.9,64.9c0,17.4,6.8,33.7,19.1,46c4.1,4.1,7.3,8.9,9.6,14.3
			c2.2,5.4,3.3,11.1,3.3,16.9v4.7c0,7.1,5.8,12.9,12.9,12.9h40c7.1,0,12.9-5.8,12.9-12.9v-4.7c0-5.8,1.1-11.5,3.3-16.9
			c2.2-5.4,5.4-10.2,9.5-14.3c12.3-12.3,19.1-28.6,19.1-46C230.5,110.6,201.4,81.5,165.6,81.5z"/>
	</g>
	<g>
		<g>
			<path class="st1" d="M175.7,244C175.7,244,175.7,244,175.7,244c-0.8,0-1.5-0.7-1.5-1.5c0.2-24.8,3.7-47.5,10.1-65.7
				c1.3-3.9,0.6-8.1-1.9-11.3c-2.6-3.2-6.5-4.9-10.7-4.4c-4.2,0.5-8.4,0.5-12.6,0c-4-0.4-7.9,1.2-10.4,4.4
				c-2.6,3.2-3.3,7.4-1.9,11.3c6.4,18.2,9.8,40.9,10.1,65.7c0,0.8-0.6,1.5-1.4,1.5c-0.8,0-1.5-0.6-1.5-1.4
				c-0.2-24.4-3.7-46.8-9.9-64.7c-1.7-4.8-0.8-10.1,2.4-14.1c3.2-4,8-6,13-5.5c4,0.4,8,0.4,11.9,0c5.1-0.6,10.1,1.5,13.3,5.5
				c3.2,4,4.1,9.2,2.4,14c-6.3,17.9-9.7,40.4-9.9,64.8C177.2,243.3,176.5,244,175.7,244z"/>
		</g>
	</g>
	<g>
		<path class="st1" d="M165.6,270.1c-14.8,0-26.9-12.1-26.9-26.9v-0.9c0-0.8,0.7-1.5,1.5-1.5c0.8,0,1.5,0.7,1.5,1.5v0.9
			c0,13.2,10.7,24,24,24c13.2,0,24-10.7,24-24v-0.9c0-0.8,0.7-1.5,1.5-1.5s1.5,0.7,1.5,1.5v0.9C192.5,258,180.4,270.1,165.6,270.1z"
			/>
	</g>
	<g>
		<path class="st1" d="M160,253.4h-17.1c-0.8,0-1.5-0.7-1.5-1.5s0.7-1.5,1.5-1.5H160c0.8,0,1.5,0.7,1.5,1.5S160.8,253.4,160,253.4z"
			/>
	</g>
</g>
<g>
	<g>
		<g>
			<path class="st1" d="M36,36.8c-0.2,0-0.4,0-0.5-0.1L0.9,23.1c-0.6-0.2-1-0.8-0.9-1.5c0.1-0.6,0.5-1.2,1.1-1.3L93.6,0
				c0.7-0.2,1.4,0.2,1.7,0.9c0.3,0.7,0,1.4-0.6,1.8L36.8,36.6C36.5,36.7,36.3,36.8,36,36.8z M6.5,22.1l29.5,11.6L85.2,4.9L6.5,22.1z
				"/>
		</g>
		<g>
			<path class="st1" d="M77,80.1c-0.5,0-0.9-0.2-1.2-0.6L50.5,42.6c-0.4-0.6-0.3-1.4,0.2-1.9L92.9,0.4C93.3,0,94-0.1,94.6,0.2
				c0.6,0.3,0.8,1,0.7,1.6L78.4,79c-0.1,0.6-0.6,1-1.1,1.1C77.2,80.1,77.1,80.1,77,80.1z M53.6,41.9l22.7,33.1L91.4,5.8L53.6,41.9z"
				/>
		</g>
		<g>
			<path class="st1" d="M39.1,59.2c-0.1,0-0.3,0-0.4-0.1c-0.6-0.2-1-0.6-1.1-1.2l-3-22.4c-0.1-0.8,0.4-1.5,1.2-1.6
				c0.8-0.1,1.5,0.4,1.6,1.2l2.6,19l10.6-13.3c0.5-0.6,1.4-0.7,2-0.2c0.6,0.5,0.7,1.4,0.2,2l-12.7,16C39.9,59,39.5,59.2,39.1,59.2z"
				/>
		</g>
		<g>
			<path class="st1" d="M39.1,59.2c-0.5,0-0.9-0.2-1.2-0.7c-0.4-0.7-0.2-1.6,0.4-2L54.5,46c0.7-0.4,1.6-0.2,2,0.4
				c0.4,0.7,0.2,1.6-0.4,2L39.9,58.9C39.6,59.1,39.4,59.2,39.1,59.2z"/>
		</g>
	</g>
</g>
<g>
	<path class="st1" d="M287.1,270.5c-0.3,0-0.6-0.1-0.9-0.3c-0.4-0.3-0.7-0.9-0.6-1.4l2.9-16.8l-12.2-11.9c-0.4-0.4-0.5-1-0.4-1.5
		c0.2-0.5,0.6-0.9,1.2-1l16.9-2.5l7.6-15.3c0.2-0.5,0.8-0.8,1.3-0.8s1.1,0.3,1.3,0.8l7.6,15.3l16.9,2.5c0.5,0.1,1,0.5,1.2,1
		c0.2,0.5,0,1.1-0.4,1.5L317.3,252l2.9,16.8c0.1,0.5-0.1,1.1-0.6,1.4c-0.4,0.3-1,0.4-1.5,0.1l-15.1-8l-15.1,8
		C287.6,270.5,287.3,270.5,287.1,270.5z M280.5,240l10.7,10.4c0.3,0.3,0.5,0.8,0.4,1.3l-2.5,14.7l13.2-6.9c0.4-0.2,0.9-0.2,1.4,0
		l13.2,6.9l-2.5-14.7c-0.1-0.5,0.1-1,0.4-1.3l10.7-10.4l-14.7-2.1c-0.5-0.1-0.9-0.4-1.1-0.8l-6.6-13.4l-6.6,13.4
		c-0.2,0.4-0.6,0.7-1.1,0.8L280.5,240z"/>
</g>
<g>
	<g>
		<path class="st1" d="M37.9,66.4c-0.8,0-1.5-0.7-1.5-1.5v-2.7c0-0.8,0.7-1.5,1.5-1.5s1.5,0.7,1.5,1.5V65
			C39.4,65.8,38.7,66.4,37.9,66.4z"/>
	</g>
	<g>
		<path class="st1" d="M37.9,139.3c-0.8,0-1.5-0.7-1.5-1.5v-5.2c0-0.8,0.7-1.5,1.5-1.5s1.5,0.7,1.5,1.5v5.2
			C39.4,138.7,38.7,139.3,37.9,139.3z M37.9,124.7c-0.8,0-1.5-0.7-1.5-1.5v-5.2c0-0.8,0.7-1.5,1.5-1.5s1.5,0.7,1.5,1.5v5.2
			C39.4,124.1,38.7,124.7,37.9,124.7z M37.9,110.2c-0.8,0-1.5-0.7-1.5-1.5v-5.2c0-0.8,0.7-1.5,1.5-1.5s1.5,0.7,1.5,1.5v5.2
			C39.4,109.5,38.7,110.2,37.9,110.2z M37.9,95.6c-0.8,0-1.5-0.7-1.5-1.5v-5.2c0-0.8,0.7-1.5,1.5-1.5s1.5,0.7,1.5,1.5v5.2
			C39.4,94.9,38.7,95.6,37.9,95.6z M37.9,81c-0.8,0-1.5-0.7-1.5-1.5v-5.2c0-0.8,0.7-1.5,1.5-1.5s1.5,0.7,1.5,1.5v5.2
			C39.4,80.3,38.7,81,37.9,81z"/>
	</g>
	<g>
		<path class="st1" d="M40.4,151.6h-2.5c-0.8,0-1.5-0.7-1.5-1.5v-2.5c0-0.8,0.7-1.5,1.5-1.5s1.5,0.7,1.5,1.5v1h1
			c0.8,0,1.5,0.7,1.5,1.5C41.9,151,41.2,151.6,40.4,151.6z"/>
	</g>
	<g>
		<path class="st1" d="M74.6,151.6h-6c-0.8,0-1.5-0.7-1.5-1.5c0-0.8,0.7-1.5,1.5-1.5h6c0.8,0,1.5,0.7,1.5,1.5
			C76,151,75.4,151.6,74.6,151.6z M57.5,151.6h-6c-0.8,0-1.5-0.7-1.5-1.5c0-0.8,0.7-1.5,1.5-1.5h6c0.8,0,1.5,0.7,1.5,1.5
			C58.9,151,58.3,151.6,57.5,151.6z"/>
	</g>
	<g>
		<path class="st1" d="M88.1,151.6h-2.7c-0.8,0-1.5-0.7-1.5-1.5c0-0.8,0.7-1.5,1.5-1.5h2.7c0.8,0,1.5,0.7,1.5,1.5
			C89.6,151,88.9,151.6,88.1,151.6z"/>
	</g>
</g>
<g>
	<g>
		<path class="st1" d="M302.9,207.9c-0.8,0-1.5-0.7-1.5-1.5v-2.5c0-0.8,0.7-1.5,1.5-1.5s1.5,0.7,1.5,1.5v2.5
			C304.4,207.2,303.7,207.9,302.9,207.9z"/>
	</g>
	<g>
		<path class="st1" d="M302.9,196.2c-0.8,0-1.5-0.7-1.5-1.5v-5c0-0.8,0.7-1.5,1.5-1.5s1.5,0.7,1.5,1.5v5
			C304.4,195.5,303.7,196.2,302.9,196.2z M302.9,182.2c-0.8,0-1.5-0.7-1.5-1.5v-5c0-0.8,0.7-1.5,1.5-1.5s1.5,0.7,1.5,1.5v5
			C304.4,181.6,303.7,182.2,302.9,182.2z M302.9,168.3c-0.8,0-1.5-0.7-1.5-1.5v-5c0-0.8,0.7-1.5,1.5-1.5s1.5,0.7,1.5,1.5v5
			C304.4,167.6,303.7,168.3,302.9,168.3z"/>
	</g>
	<g>
		<path class="st1" d="M302.9,154.3c-0.8,0-1.5-0.7-1.5-1.5v-1.2h-1.2c-0.8,0-1.5-0.7-1.5-1.5c0-0.8,0.7-1.5,1.5-1.5h2.7
			c0.8,0,1.5,0.7,1.5,1.5v2.7C304.4,153.7,303.7,154.3,302.9,154.3z"/>
	</g>
	<g>
		<path class="st1" d="M290.6,151.6h-5.4c-0.8,0-1.5-0.7-1.5-1.5c0-0.8,0.7-1.5,1.5-1.5h5.4c0.8,0,1.5,0.7,1.5,1.5
			C292.1,151,291.4,151.6,290.6,151.6z M275.6,151.6h-5.4c-0.8,0-1.5-0.7-1.5-1.5c0-0.8,0.7-1.5,1.5-1.5h5.4c0.8,0,1.5,0.7,1.5,1.5
			C277.1,151,276.4,151.6,275.6,151.6z M260.6,151.6h-5.4c-0.8,0-1.5-0.7-1.5-1.5c0-0.8,0.7-1.5,1.5-1.5h5.4c0.8,0,1.5,0.7,1.5,1.5
			C262.1,151,261.4,151.6,260.6,151.6z"/>
	</g>
	<g>
		<path class="st1" d="M245.6,151.6h-2.5c-0.8,0-1.5-0.7-1.5-1.5c0-0.8,0.7-1.5,1.5-1.5h2.5c0.8,0,1.5,0.7,1.5,1.5
			C247.1,151,246.4,151.6,245.6,151.6z"/>
	</g>
</g>
<g>
	<g>
		<path class="st1" d="M270.4,84.7c-0.8,0-1.5-0.7-1.5-1.5v-9.4c0-0.8,0.7-1.5,1.5-1.5s1.5,0.7,1.5,1.5v9.4
			C271.9,84.1,271.2,84.7,270.4,84.7z"/>
	</g>
	<g>
		<path class="st1" d="M275.2,80.2h-9.4c-0.8,0-1.5-0.7-1.5-1.5c0-0.8,0.7-1.5,1.5-1.5h9.4c0.8,0,1.5,0.7,1.5,1.5
			C276.7,79.5,276,80.2,275.2,80.2z"/>
	</g>
</g>
<g>
	<g>
		<path class="st1" d="M49.2,189.1c-0.8,0-1.5-0.7-1.5-1.5v-9.4c0-0.8,0.7-1.5,1.5-1.5s1.5,0.7,1.5,1.5v9.4
			C50.6,188.5,50,189.1,49.2,189.1z"/>
	</g>
	<g>
		<path class="st1" d="M53.9,184.5h-9.4c-0.8,0-1.5-0.7-1.5-1.5c0-0.8,0.7-1.5,1.5-1.5h9.4c0.8,0,1.5,0.7,1.5,1.5
			C55.4,183.9,54.8,184.5,53.9,184.5z"/>
	</g>
</g>
<g>
	<g>
		<path class="st1" d="M105.6,70.8c-0.8,0-1.5-0.7-1.5-1.5V60c0-0.8,0.7-1.5,1.5-1.5c0.8,0,1.5,0.7,1.5,1.5v9.4
			C107.1,70.1,106.4,70.8,105.6,70.8z"/>
	</g>
	<g>
		<path class="st1" d="M110.4,66.2H101c-0.8,0-1.5-0.7-1.5-1.5c0-0.8,0.7-1.5,1.5-1.5h9.4c0.8,0,1.5,0.7,1.5,1.5
			C111.9,65.5,111.2,66.2,110.4,66.2z"/>
	</g>
</g>
<g>
	<g>
		<path class="st1" d="M238.3,264.3c-0.8,0-1.5-0.7-1.5-1.5v-9.4c0-0.8,0.7-1.5,1.5-1.5c0.8,0,1.5,0.7,1.5,1.5v9.4
			C239.8,263.7,239.1,264.3,238.3,264.3z"/>
	</g>
	<g>
		<path class="st1" d="M243.1,259.7h-9.4c-0.8,0-1.5-0.7-1.5-1.5s0.7-1.5,1.5-1.5h9.4c0.8,0,1.5,0.7,1.5,1.5
			S243.9,259.7,243.1,259.7z"/>
	</g>
</g>
<g>
	<path class="st1" d="M317.1,28c0-1.1,0.9-2.1,2-2.1l0,0l0,0l0,0c1.1,0,2.1,0.8,2.1,2l0,0c0,1.2-0.9,2.1-2,2.1l0,0c0,0,0,0-0.1,0
		l0,0C318,30,317.1,29.1,317.1,28z M310.9,26.8c-0.8-0.8-0.9-2.1-0.1-2.9l0,0c0.8-0.8,2.1-0.9,2.9-0.1l0,0c0.8,0.8,0.9,2.1,0.1,2.9
		l0,0c-0.4,0.4-1,0.6-1.5,0.6l0,0C311.8,27.4,311.3,27.2,310.9,26.8z M324.4,26.5c-0.8-0.8-0.9-2.1-0.1-2.9l0,0
		c0.8-0.8,2.1-0.9,2.9-0.1l0,0c0.8,0.8,0.9,2.1,0.1,2.9l0,0c-0.4,0.4-1,0.7-1.5,0.7l0,0C325.3,27.1,324.8,26.9,324.4,26.5z
		 M307.3,18.7c0-1.1,0.9-2.1,2.1-2.1l0,0c1.1,0,2.1,0.9,2.1,2.1l0,0c0,1.1-0.9,2.1-2.1,2.1l0,0c0,0,0,0,0,0l0,0
		C308.3,20.8,307.4,19.8,307.3,18.7z M326.3,18.2c0-1.2,0.9-2.1,2-2.2l0,0c1.1,0,2.1,0.9,2.2,2l0,0c0,1.1-0.9,2.1-2,2.2l0,0
		c0,0-0.1,0-0.1,0l0,0C327.2,20.2,326.3,19.3,326.3,18.2z M310.7,13.3c-0.8-0.8-0.8-2.1,0-2.9l0,0c0.8-0.8,2.1-0.8,2.9,0l0,0
		c0.8,0.8,0.8,2.1,0,2.9l0,0l0,0l0,0c-0.4,0.4-0.9,0.6-1.5,0.6l0,0C311.6,13.9,311.1,13.7,310.7,13.3z M323.9,13
		c-0.8-0.8-0.9-2.1-0.1-2.9l0,0c0.8-0.8,2.1-0.9,2.9-0.1l0,0c0.8,0.8,0.9,2.1,0.1,2.9l0,0c-0.4,0.4-1,0.7-1.5,0.7l0,0
		C324.8,13.6,324.3,13.4,323.9,13z M316.8,9c0-1.1,0.9-2.1,2.1-2.1v0c1,0,2.1,0.9,2.1,2.1l0,0c0,1.2-0.9,2.1-2.1,2.1l0,0l0,0l0,0
		C317.8,11.1,316.8,10.2,316.8,9z"/>
</g>
<g>
	<path class="st1" d="M185.2,44c0-1.1,0.9-2.1,2-2.1l0,0l0,0l0,0c1.1,0,2.1,0.8,2.1,2l0,0c0,1.2-0.9,2.1-2,2.1l0,0c0,0,0,0-0.1,0
		l0,0C186.1,46,185.2,45.1,185.2,44z M179,42.9c-0.8-0.8-0.9-2.1-0.1-2.9l0,0c0.8-0.8,2.1-0.9,2.9-0.1l0,0c0.8,0.8,0.9,2.1,0.1,2.9
		l0,0c-0.4,0.4-1,0.6-1.5,0.6l0,0C179.9,43.4,179.4,43.2,179,42.9z M192.5,42.5c-0.8-0.8-0.9-2.1-0.1-2.9l0,0
		c0.8-0.8,2.1-0.9,2.9-0.1l0,0c0.8,0.8,0.9,2.1,0.1,2.9l0,0c-0.4,0.4-1,0.7-1.5,0.7l0,0C193.4,43.1,192.9,42.9,192.5,42.5z
		 M175.5,34.7L175.5,34.7c0-1.1,0.9-2.1,2.1-2.1l0,0c1.1,0,2.1,0.9,2.1,2.1l0,0c0,1.1-0.9,2.1-2.1,2.1l0,0c0,0,0,0,0,0l0,0
		C176.4,36.8,175.5,35.9,175.5,34.7z M194.4,34.2c0-1.1,0.9-2.1,2-2.1l0,0c1.1,0,2.1,0.8,2.2,2l0,0c0,1.2-0.9,2.1-2,2.1l0,0
		c0,0-0.1,0-0.1,0l0,0C195.4,36.2,194.4,35.3,194.4,34.2z M178.8,29.4c-0.8-0.8-0.8-2.1,0-2.9l0,0c0.8-0.8,2.1-0.8,2.9,0l0,0
		c0.8,0.8,0.8,2.1,0,2.9l0,0c-0.4,0.4-0.9,0.6-1.5,0.6l0,0C179.8,30,179.2,29.8,178.8,29.4z M192,29.1L192,29.1L192,29.1
		c-0.8-0.8-0.9-2.1-0.1-2.9l0,0c0.8-0.8,2.1-0.9,2.9-0.1l0,0c0.8,0.8,0.9,2.1,0.1,2.9l0,0c-0.4,0.4-1,0.7-1.5,0.7l0,0
		C192.9,29.6,192.4,29.5,192,29.1z M184.9,25.1c0-1.1,0.9-2.1,2.1-2.1l0,0c1.1,0,2.1,0.9,2.1,2.1l0,0c0,1.2-0.9,2.1-2.1,2.1l0,0l0,0
		l0,0C185.9,27.1,184.9,26.2,184.9,25.1z"/>
</g>
<g>
	<path class="st1" d="M88.9,239.6c0-1.1,0.9-2.1,2-2.1l0,0c1.1,0,2.1,0.8,2.1,2l0,0c0,1.2-0.9,2.1-2,2.1l0,0c0,0,0,0-0.1,0l0,0
		C89.9,241.6,89,240.8,88.9,239.6z M82.8,238.5c-0.8-0.8-0.9-2.1-0.1-2.9l0,0c0.8-0.8,2.1-0.9,2.9-0.1l0,0c0.8,0.8,0.9,2.1,0.1,2.9
		l0,0c-0.4,0.4-1,0.6-1.5,0.6l0,0C83.7,239.1,83.2,238.9,82.8,238.5z M96.2,238.2c-0.8-0.8-0.9-2.1-0.1-2.9l0,0l0,0l0,0
		c0.8-0.8,2.1-0.9,2.9-0.1l0,0c0.8,0.8,0.9,2.1,0.1,2.9l0,0c-0.4,0.4-1,0.7-1.5,0.7l0,0C97.2,238.7,96.7,238.5,96.2,238.2z
		 M79.2,230.3L79.2,230.3c0-1.1,0.9-2.1,2.1-2.1l0,0c1.1,0,2.1,0.9,2.1,2.1l0,0l0,0l0,0c0,1.1-0.9,2.1-2.1,2.1l0,0c0,0,0,0,0,0l0,0
		C80.2,232.4,79.2,231.5,79.2,230.3z M98.2,229.8c0-1.1,0.9-2.1,2-2.1l0,0c1.1,0,2.1,0.8,2.2,2l0,0c0,1.2-0.9,2.1-2,2.1l0,0
		c0,0-0.1,0-0.1,0l0,0C99.1,231.8,98.2,231,98.2,229.8z M82.6,225c-0.8-0.8-0.8-2.1,0-2.9l0,0c0.8-0.8,2.1-0.8,2.9,0l0,0
		c0.8,0.8,0.8,2.1,0,2.9l0,0c-0.4,0.4-0.9,0.6-1.5,0.6l0,0C83.5,225.6,83,225.4,82.6,225z M95.8,224.7L95.8,224.7L95.8,224.7
		c-0.8-0.8-0.9-2.1-0.1-2.9l0,0c0.8-0.8,2.1-0.9,2.9-0.1l0,0c0.9,0.8,0.9,2.1,0.1,2.9l0,0c-0.4,0.4-1,0.7-1.5,0.7l0,0
		C96.7,225.3,96.2,225.1,95.8,224.7z M88.7,220.7c0-1.1,0.9-2.1,2.1-2.1l0,0c1.1,0,2.1,0.9,2.1,2.1l0,0c0,1.2-0.9,2.1-2.1,2.1l0,0
		C89.6,222.8,88.7,221.8,88.7,220.7z"/>
</g>
<g>
	<path class="st1" d="M15.4,263c0-1.1,0.9-2.1,2-2.1l0,0c1.1,0,2.1,0.8,2.1,2l0,0c0,1.2-0.9,2.1-2,2.1l0,0c0,0,0,0-0.1,0l0,0
		C16.3,264.9,15.4,264.1,15.4,263z M9.2,261.8c-0.8-0.8-0.9-2.1-0.1-2.9l0,0c0.8-0.8,2.1-0.9,2.9-0.1l0,0c0.8,0.8,0.9,2.1,0.1,2.9
		l0,0c-0.4,0.4-1,0.6-1.5,0.6l0,0C10.1,262.4,9.6,262.2,9.2,261.8z M22.7,261.5c-0.8-0.8-0.9-2.1-0.1-2.9l0,0l0,0l0,0
		c0.8-0.8,2.1-0.9,2.9-0.1l0,0c0.8,0.8,0.9,2.1,0.1,2.9l0,0c-0.4,0.4-1,0.7-1.5,0.7l0,0C23.6,262.1,23.1,261.9,22.7,261.5z
		 M5.7,253.7c0-1.1,0.9-2.1,2.1-2.1l0,0c1.1,0,2.1,0.9,2.1,2.1l0,0c0,1.1-0.9,2.1-2.1,2.1l0,0c0,0,0,0,0,0l0,0
		C6.6,255.8,5.7,254.8,5.7,253.7z M24.6,253.2c0-1.1,0.9-2.1,2-2.1l0,0c1.1,0,2.1,0.8,2.2,2l0,0c0,1.1-0.9,2.1-2,2.1l0,0
		c0,0-0.1,0-0.1,0l0,0C25.6,255.2,24.7,254.3,24.6,253.2z M9,248.3c-0.8-0.8-0.8-2.1,0-2.9l0,0c0.8-0.8,2.1-0.8,2.9,0l0,0
		c0.8,0.8,0.8,2.1,0,2.9l0,0c-0.4,0.4-0.9,0.6-1.5,0.6l0,0C10,248.9,9.4,248.7,9,248.3z M22.2,248c-0.8-0.8-0.9-2.1-0.1-2.9l0,0
		c0.8-0.8,2.1-0.9,2.9-0.1l0,0c0.9,0.8,0.9,2.1,0.1,2.9l0,0c-0.4,0.4-1,0.7-1.5,0.7l0,0C23.1,248.6,22.6,248.4,22.2,248z M15.2,244
		c0-1.1,0.9-2.1,2.1-2.1l0,0c1.1,0,2.1,0.9,2.1,2.1l0,0c0,1.2-0.9,2.1-2.1,2.1l0,0C16.1,246.1,15.2,245.2,15.2,244z"/>
</g>
<g>
	<path class="st1" d="M240.8,215.9c0-1.1,0.9-2.1,2-2.1l0,0c1.1,0,2.1,0.8,2.1,2l0,0c0,1.2-0.9,2.1-2,2.1l0,0c0,0,0,0-0.1,0l0,0
		C241.8,217.9,240.8,217,240.8,215.9z M234.6,214.7L234.6,214.7c-0.8-0.8-0.9-2.1-0.1-3l0,0c0.8-0.8,2.1-0.9,2.9-0.1l0,0l0,0l0,0
		c0.8,0.8,0.9,2.1,0.1,2.9l0,0c-0.4,0.4-1,0.6-1.5,0.6l0,0C235.6,215.3,235,215.2,234.6,214.7z M248.1,214.4
		c-0.8-0.8-0.9-2.1-0.1-2.9l0,0l0,0l0,0c0.8-0.8,2.1-0.9,2.9-0.1l0,0c0.8,0.8,0.9,2.1,0.1,2.9l0,0c-0.4,0.4-1,0.7-1.5,0.7l0,0
		C249,215,248.5,214.8,248.1,214.4z M231.1,206.6c0-1.1,0.9-2.1,2.1-2.1l0,0c1.1,0,2.1,0.9,2.1,2.1l0,0c0,1.1-0.9,2.1-2.1,2.1l0,0
		c0,0,0,0,0,0l0,0C232,208.7,231.1,207.7,231.1,206.6z M250,206.1c0-1.1,0.9-2.1,2-2.1l0,0c1.1,0,2.1,0.8,2.2,2l0,0
		c0,1.1-0.9,2.1-2,2.1l0,0c0,0-0.1,0-0.1,0l0,0C251,208.1,250.1,207.2,250,206.1z M234.4,201.2c-0.8-0.8-0.8-2.1,0-2.9l0,0
		c0.8-0.8,2.1-0.8,2.9,0l0,0c0.8,0.8,0.8,2.1,0,2.9l0,0l0,0l0,0c-0.4,0.4-0.9,0.6-1.5,0.6l0,0C235.4,201.8,234.9,201.6,234.4,201.2z
		 M247.6,201L247.6,201L247.6,201c-0.8-0.8-0.9-2.1-0.1-2.9l0,0c0.8-0.8,2.1-0.9,2.9-0.1l0,0c0.8,0.8,0.9,2.1,0.1,2.9l0,0
		c-0.4,0.4-1,0.7-1.5,0.7l0,0C248.5,201.5,248,201.3,247.6,201z M240.6,196.9c0-1.1,0.9-2.1,2.1-2.1l0,0c1.1,0,2.1,0.9,2.1,2.1l0,0
		c0,1.2-0.9,2.1-2.1,2.1l0,0C241.5,199,240.6,198.1,240.6,196.9z"/>
</g>
</svg>
